LeutkirchSans-ExtraBold.ufo
<glyph name="exclam" format="2">
	<unicode hex="0021"/>
	<advance width="282"/>
	<outline>
		<contour>
			<point x="196" y="765" type="line"/>
			<point x="86" y="765" type="line"/>
			<point x="92" y="196" type="line"/>
			<point x="190" y="196" type="line"/>
		</contour>
		<contour>
			<point x="207" y="-48" type="line"/>
			<point x="207" y="87" type="line"/>
			<point x="77" y="87" type="line"/>
			<point x="77" y="-48" type="line"/>
		</contour>
	</outline>
</glyph>
<glyph name="quotedbl" format="2">
	<unicode hex="0022"/>
	<advance width="384"/>
	<outline>
		<contour>
			<point x="313" y="785" type="line"/>
			<point x="199" y="785" type="line"/>
			<point x="213" y="534" type="line"/>
			<point x="297" y="534" type="line"/>
		</contour>
		<contour>
			<point x="174" y="785" type="line"/>
			<point x="59" y="785" type="line"/>
			<point x="77" y="534" type="line"/>
			<point x="160" y="534" type="line"/>
		</contour>
	</outline>
</glyph>
<glyph name="numbersign" format="2">
	<unicode hex="0023"/>
	<advance width="595"/>
	<outline>
		<contour>
			<point x="546" y="464" type="line"/>
			<point x="439" y="464" type="line"/>
			<point x="491" y="686" type="line"/>
			<point x="395" y="686" type="line"/>
			<point x="343" y="464" type="line"/>
			<point x="277" y="464" type="line"/>
			<point x="328" y="686" type="line"/>
			<point x="232" y="686" type="line"/>
			<point x="181" y="464" type="line"/>
			<point x="79" y="464" type="line"/>
			<point x="58" y="377" type="line"/>
			<point x="162" y="377" type="line"/>
			<point x="147" y="310" type="line"/>
			<point x="44" y="310" type="line"/>
			<point x="25" y="223" type="line"/>
			<point x="128" y="223" type="line"/>
			<point x="77" y="3" type="line"/>
			<point x="173" y="3" type="line"/>
			<point x="224" y="223" type="line"/>
			<point x="290" y="223" type="line"/>
			<point x="241" y="3" type="line"/>
			<point x="335" y="3" type="line"/>
			<point x="385" y="223" type="line"/>
			<point x="492" y="223" type="line"/>
			<point x="513" y="310" type="line"/>
			<point x="404" y="310" type="line"/>
			<point x="420" y="377" type="line"/>
			<point x="527" y="377" type="line"/>
		</contour>
		<contour>
			<point x="324" y="377" type="line"/>
			<point x="309" y="310" type="line"/>
			<point x="243" y="310" type="line"/>
			<point x="258" y="377" type="line"/>
		</contour>
	</outline>
</glyph>
<glyph name="dollar" format="2">
	<unicode hex="0024"/>
	<advance width="514"/>
	<outline>
		<contour>
			<point x="280" y="74" type="line"/>
			<point x="280" y="294" type="line"/>
			<point x="314.404" y="269.426"/>
			<point x="346" y="241.581"/>
			<point x="346" y="184" type="curve" smooth="yes"/>
			<point x="346" y="130.81"/>
			<point x="318.915" y="86.6384"/>
			<point x="281" y="74" type="curve"/>
		</contour>
		<contour>
			<point x="197" y="330" type="curve"/>
			<point x="197" y="75" type="line"/>
			<point x="160.55" y="87.1499"/>
			<point x="143" y="120.584"/>
			<point x="143" y="171" type="curve"/>
			<point x="30" y="171" type="line"/>
			<point x="39.0159" y="62.809"/>
			<point x="92.5047" y="1.33983"/>
			<point x="197" y="-12" type="curve"/>
			<point x="197" y="-98" type="line"/>
			<point x="280" y="-98" type="line"/>
			<point x="280" y="-11" type="line"/>
			<point x="382.182" y="10.8962"/>
			<point x="450" y="65.5593"/>
			<point x="450" y="191" type="curve" smooth="yes"/>
			<point x="450" y="321.852"/>
			<point x="364.222" y="346.873"/>
			<point x="280" y="395" type="curve"/>
			<point x="280" y="632" type="line"/>
			<point x="312.829" y="618.868"/>
			<point x="328.572" y="584.262"/>
			<point x="330" y="540" type="curve"/>
			<point x="439" y="540" type="line"/>
			<point x="439" y="640.116"/>
			<point x="369.456" y="708.476"/>
			<point x="280" y="719" type="curve"/>
			<point x="280" y="796" type="line"/>
			<point x="197" y="796" type="line"/>
			<point x="197" y="718" type="line"/>
			<point x="104.81" y="702.635"/>
			<point x="41" y="638.296"/>
			<point x="41" y="533" type="curve" smooth="yes"/>
			<point x="41" y="417.158"/>
			<point x="112" y="363"/>
		</contour>
		<contour>
			<point x="197" y="634" type="curve"/>
			<point x="197" y="429" type="line"/>
			<point x="159.291" y="447.855"/>
			<point x="144" y="480.67"/>
			<point x="144" y="537" type="curve" smooth="yes"/>
			<point x="144" y="584.627"/>
			<point x="162.746" y="620.298"/>
		</contour>
	</outline>
</glyph>
<glyph name="percent" format="2">
  <advance width="766"/>
  <unicode hex="0025"/>
  <outline>
    <contour>
      <point x="569" y="692" type="line"/>
      <point x="469" y="692" type="line"/>
      <point x="196" y="6" type="line"/>
      <point x="296" y="6" type="line"/>
    </contour>
    <contour>
      <point x="238" y="476" type="curve" smooth="yes"/>
      <point x="238" y="434"/>
      <point x="232" y="402"/>
      <point x="220" y="380" type="curve" smooth="yes"/>
      <point x="208" y="356"/>
      <point x="193" y="345"/>
      <point x="176" y="345" type="curve" smooth="yes"/>
      <point x="159" y="345"/>
      <point x="145" y="356"/>
      <point x="134" y="380" type="curve" smooth="yes"/>
      <point x="122" y="402"/>
      <point x="116" y="434"/>
      <point x="116" y="476" type="curve" smooth="yes"/>
      <point x="116" y="518"/>
      <point x="122" y="550"/>
      <point x="134" y="574" type="curve" smooth="yes"/>
      <point x="146" y="597"/>
      <point x="160" y="609"/>
      <point x="176" y="609" type="curve" smooth="yes"/>
      <point x="193" y="609"/>
      <point x="208" y="597"/>
      <point x="220" y="574" type="curve" smooth="yes"/>
      <point x="232" y="550"/>
      <point x="238" y="518"/>
    </contour>
    <contour>
      <point x="340" y="476" type="curve" smooth="yes"/>
      <point x="340" y="505"/>
      <point x="336" y="534"/>
      <point x="328" y="562" type="curve" smooth="yes"/>
      <point x="320" y="589"/>
      <point x="308" y="612"/>
      <point x="294" y="632" type="curve" smooth="yes"/>
      <point x="279" y="651"/>
      <point x="262" y="666"/>
      <point x="242" y="677" type="curve" smooth="yes"/>
      <point x="221" y="687"/>
      <point x="199" y="692"/>
      <point x="176" y="692" type="curve" smooth="yes"/>
      <point x="153" y="692"/>
      <point x="132" y="687"/>
      <point x="112" y="677" type="curve" smooth="yes"/>
      <point x="91" y="666"/>
      <point x="73" y="651"/>
      <point x="59" y="632" type="curve" smooth="yes"/>
      <point x="44" y="612"/>
      <point x="33" y="589"/>
      <point x="26" y="562" type="curve" smooth="yes"/>
      <point x="18" y="534"/>
      <point x="14" y="505"/>
      <point x="14" y="476" type="curve" smooth="yes"/>
      <point x="14" y="447"/>
      <point x="18" y="419"/>
      <point x="26" y="392" type="curve" smooth="yes"/>
      <point x="33" y="364"/>
      <point x="44" y="340"/>
      <point x="59" y="320" type="curve" smooth="yes"/>
      <point x="73" y="300"/>
      <point x="91" y="286"/>
      <point x="112" y="277" type="curve" smooth="yes"/>
      <point x="132" y="267"/>
      <point x="153" y="262"/>
      <point x="176" y="262" type="curve" smooth="yes"/>
      <point x="199" y="262"/>
      <point x="221" y="267"/>
      <point x="242" y="277" type="curve" smooth="yes"/>
      <point x="262" y="286"/>
      <point x="279" y="300"/>
      <point x="294" y="320" type="curve" smooth="yes"/>
      <point x="308" y="340"/>
      <point x="320" y="364"/>
      <point x="328" y="392" type="curve" smooth="yes"/>
      <point x="336" y="419"/>
      <point x="340" y="447"/>
    </contour>
    <contour>
      <point x="651" y="220" type="curve" smooth="yes"/>
      <point x="651" y="178"/>
      <point x="645" y="146"/>
      <point x="633" y="124" type="curve" smooth="yes"/>
      <point x="621" y="100"/>
      <point x="606" y="89"/>
      <point x="589" y="89" type="curve" smooth="yes"/>
      <point x="572" y="89"/>
      <point x="558" y="100"/>
      <point x="547" y="124" type="curve" smooth="yes"/>
      <point x="535" y="146"/>
      <point x="529" y="178"/>
      <point x="529" y="220" type="curve" smooth="yes"/>
      <point x="529" y="262"/>
      <point x="535" y="294"/>
      <point x="547" y="318" type="curve" smooth="yes"/>
      <point x="559" y="341"/>
      <point x="573" y="353"/>
      <point x="589" y="353" type="curve" smooth="yes"/>
      <point x="606" y="353"/>
      <point x="621" y="341"/>
      <point x="633" y="318" type="curve" smooth="yes"/>
      <point x="645" y="294"/>
      <point x="651" y="262"/>
    </contour>
    <contour>
      <point x="753" y="220" type="curve" smooth="yes"/>
      <point x="753" y="249"/>
      <point x="749" y="278"/>
      <point x="741" y="306" type="curve" smooth="yes"/>
      <point x="733" y="333"/>
      <point x="721" y="356"/>
      <point x="707" y="376" type="curve" smooth="yes"/>
      <point x="692" y="395"/>
      <point x="675" y="410"/>
      <point x="655" y="421" type="curve" smooth="yes"/>
      <point x="634" y="431"/>
      <point x="612" y="436"/>
      <point x="589" y="436" type="curve" smooth="yes"/>
      <point x="566" y="436"/>
      <point x="545" y="431"/>
      <point x="525" y="421" type="curve" smooth="yes"/>
      <point x="504" y="410"/>
      <point x="486" y="395"/>
      <point x="472" y="376" type="curve" smooth="yes"/>
      <point x="457" y="356"/>
      <point x="446" y="333"/>
      <point x="439" y="306" type="curve" smooth="yes"/>
      <point x="431" y="278"/>
      <point x="427" y="249"/>
      <point x="427" y="220" type="curve" smooth="yes"/>
      <point x="427" y="191"/>
      <point x="431" y="163"/>
      <point x="439" y="136" type="curve" smooth="yes"/>
      <point x="446" y="108"/>
      <point x="457" y="84"/>
      <point x="472" y="64" type="curve" smooth="yes"/>
      <point x="486" y="44"/>
      <point x="504" y="30"/>
      <point x="525" y="21" type="curve" smooth="yes"/>
      <point x="545" y="11"/>
      <point x="566" y="6"/>
      <point x="589" y="6" type="curve" smooth="yes"/>
      <point x="612" y="6"/>
      <point x="634" y="11"/>
      <point x="655" y="21" type="curve" smooth="yes"/>
      <point x="675" y="30"/>
      <point x="692" y="44"/>
      <point x="707" y="64" type="curve" smooth="yes"/>
      <point x="721" y="84"/>
      <point x="733" y="108"/>
      <point x="741" y="136" type="curve" smooth="yes"/>
      <point x="749" y="163"/>
      <point x="753" y="191"/>
    </contour>
  </outline>
</glyph>
<glyph name="ampersand" format="2">
	<unicode hex="0026"/>
	<advance width="688"/>
	<outline>
		<contour>
			<point x="688" y="-7" type="line"/>
			<point x="560" y="162" type="line"/>
			<point x="646" y="258" type="line"/>
			<point x="571" y="324" type="line"/>
			<point x="499" y="239" type="line"/>
			<point x="368" y="411" type="line"/>
			<point x="417.923" y="450.938"/>
			<point x="492" y="499.837"/>
			<point x="492" y="586" type="curve" smooth="yes"/>
			<point x="488.246" y="679.839"/>
			<point x="415.974" y="735"/>
			<point x="320" y="735" type="curve" smooth="yes"/>
			<point x="226.454" y="735"/>
			<point x="154.4" y="674.408"/>
			<point x="154.4" y="583.184" type="curve" smooth="yes"/>
			<point x="154.4" y="517.174"/>
			<point x="191.289" y="469.204"/>
			<point x="227" y="427" type="curve"/>
			<point x="157.404" y="374.803"/>
			<point x="51.9122" y="309.326"/>
			<point x="51.9122" y="181.953" type="curve" smooth="yes"/>
			<point x="51.9122" y="63.9162"/>
			<point x="145.516" y="-18.2512"/>
			<point x="259.951" y="-18.2512" type="curve" smooth="yes"/>
			<point x="358.716" y="-18.2512"/>
			<point x="443.002" y="37.702"/>
			<point x="489" y="86" type="curve"/>
			<point x="559" y="-7" type="line"/>
		</contour>
		<contour>
			<point x="387" y="592" type="curve" smooth="yes"/>
			<point x="387" y="541.512"/>
			<point x="336.07" y="505.06"/>
			<point x="309" y="482" type="curve"/>
			<point x="295.781" y="497.863"/>
			<point x="262" y="554.145"/>
			<point x="262" y="586" type="curve" smooth="yes"/>
			<point x="262" y="619.78"/>
			<point x="287.364" y="655"/>
			<point x="321" y="655" type="curve" smooth="yes"/>
			<point x="355.137" y="655"/>
			<point x="387" y="625.872"/>
		</contour>
		<contour>
			<point x="432" y="160" type="line"/>
			<point x="402.191" y="125.72"/>
			<point x="327.904" y="69.9251"/>
			<point x="270.628" y="69.9251" type="curve" smooth="yes"/>
			<point x="209.019" y="69.9251"/>
			<point x="159.625" y="120.999"/>
			<point x="159.625" y="182.928" type="curve" smooth="yes"/>
			<point x="159.625" y="264.546"/>
			<point x="239.02" y="325.012"/>
			<point x="284" y="352" type="curve"/>
		</contour>
	</outline>
</glyph>
<glyph name="quotesingle" format="2">
	<unicode hex="0027"/>
	<advance width="291"/>
	<outline>
		<contour>
			<point x="177" y="785" type="line"/>
			<point x="58" y="785" type="line"/>
			<point x="74" y="534" type="line"/>
			<point x="163" y="534" type="line"/>
		</contour>
	</outline>
</glyph>
<glyph name="parenleft" format="2">
	<unicode hex="0028"/>
	<advance width="340"/>
	<outline>
		<contour>
			<point x="219" y="234" type="curve" smooth="yes"/>
			<point x="219" y="424" type="line" smooth="yes"/>
			<point x="219" y="462"/>
			<point x="221" y="498"/>
			<point x="225" y="533" type="curve" smooth="yes"/>
			<point x="229" y="567"/>
			<point x="234" y="599"/>
			<point x="242" y="627" type="curve" smooth="yes"/>
			<point x="249" y="655"/>
			<point x="258" y="680"/>
			<point x="268" y="700" type="curve" smooth="yes"/>
			<point x="278" y="719"/>
			<point x="292" y="734"/>
			<point x="312" y="744" type="curve"/>
			<point x="312" y="818" type="line"/>
			<point x="254" y="802"/>
			<point x="213" y="778"/>
			<point x="190" y="745" type="curve" smooth="yes"/>
			<point x="166" y="711"/>
			<point x="149" y="673"/>
			<point x="138" y="632" type="curve" smooth="yes"/>
			<point x="127" y="592"/>
			<point x="120" y="550"/>
			<point x="117" y="508" type="curve" smooth="yes"/>
			<point x="113" y="465"/>
			<point x="112" y="426"/>
			<point x="112" y="392" type="curve" smooth="yes"/>
			<point x="112" y="266" type="line" smooth="yes"/>
			<point x="112" y="232"/>
			<point x="113" y="193"/>
			<point x="117" y="151" type="curve" smooth="yes"/>
			<point x="120" y="108"/>
			<point x="127" y="67"/>
			<point x="138" y="27" type="curve" smooth="yes"/>
			<point x="149" y="-14"/>
			<point x="166" y="-52"/>
			<point x="190" y="-86" type="curve" smooth="yes"/>
			<point x="213" y="-119"/>
			<point x="254" y="-143"/>
			<point x="312" y="-159" type="curve"/>
			<point x="312" y="-85" type="line"/>
			<point x="292" y="-75"/>
			<point x="278" y="-60"/>
			<point x="268" y="-41" type="curve" smooth="yes"/>
			<point x="258" y="-21"/>
			<point x="249" y="3"/>
			<point x="242" y="31" type="curve" smooth="yes"/>
			<point x="234" y="59"/>
			<point x="229" y="91"/>
			<point x="225" y="126" type="curve" smooth="yes"/>
			<point x="221" y="160"/>
			<point x="219" y="196"/>
		</contour>
	</outline>
</glyph>
<glyph name="parenright" format="2">
	<unicode hex="0029"/>
	<advance width="340"/>
	<outline>
		<contour>
			<point x="121" y="234" type="line" smooth="yes"/>
			<point x="121" y="111.438"/>
			<point x="107.404" y="-43.2084"/>
			<point x="28" y="-85" type="curve"/>
			<point x="28" y="-159" type="line"/>
			<point x="198.172" y="-112.056"/>
			<point x="228" y="57.6657"/>
			<point x="228" y="266" type="curve" smooth="yes"/>
			<point x="228" y="392" type="line" smooth="yes"/>
			<point x="228" y="600.312"/>
			<point x="198.42" y="770.987"/>
			<point x="28" y="818" type="curve"/>
			<point x="28" y="744" type="line"/>
			<point x="107.379" y="702.221"/>
			<point x="121" y="546.037"/>
			<point x="121" y="424" type="curve" smooth="yes"/>
		</contour>
	</outline>
</glyph>
<glyph name="asterisk" format="2">
	<unicode hex="002A"/>
	<advance width="360"/>
	<outline>
		<contour>
			<point x="241" y="599" type="line"/>
			<point x="262" y="621" type="line"/>
			<point x="301" y="686" type="line"/>
			<point x="228" y="728" type="line"/>
			<point x="190" y="662" type="line"/>
			<point x="181" y="630" type="line"/>
			<point x="171" y="662" type="line"/>
			<point x="133" y="728" type="line"/>
			<point x="60" y="686" type="line"/>
			<point x="99" y="621" type="line"/>
			<point x="121" y="598" type="line"/>
			<point x="86" y="608" type="line"/>
			<point x="15" y="608" type="line"/>
			<point x="15" y="526" type="line"/>
			<point x="86" y="526" type="line"/>
			<point x="123" y="535" type="line"/>
			<point x="98" y="512" type="line"/>
			<point x="60" y="448" type="line"/>
			<point x="131" y="405" type="line"/>
			<point x="170" y="470" type="line"/>
			<point x="181" y="503" type="line"/>
			<point x="191" y="470" type="line"/>
			<point x="230" y="405" type="line"/>
			<point x="301" y="448" type="line"/>
			<point x="263" y="512" type="line"/>
			<point x="238" y="535" type="line"/>
			<point x="273" y="526" type="line"/>
			<point x="346" y="526" type="line"/>
			<point x="346" y="608" type="line"/>
			<point x="273" y="608" type="line"/>
		</contour>
	</outline>
</glyph>
<glyph name="plus" format="2">
	<unicode hex="002B"/>
	<advance width="516"/>
	<outline>
		<contour>
			<point x="486" y="315" type="line"/>
			<point x="486" y="408" type="line"/>
			<point x="307" y="408" type="line"/>
			<point x="307" y="610" type="line"/>
			<point x="209" y="610" type="line"/>
			<point x="209" y="408" type="line"/>
			<point x="31" y="408" type="line"/>
			<point x="31" y="315" type="line"/>
			<point x="209" y="315" type="line"/>
			<point x="209" y="114" type="line"/>
			<point x="307" y="114" type="line"/>
			<point x="307" y="315" type="line"/>
		</contour>
	</outline>
</glyph>
<glyph name="comma" format="2">
	<unicode hex="002C"/>
	<advance width="236"/>
	<outline>
		<contour>
			<point x="185" y="127" type="line"/>
			<point x="59" y="127" type="line"/>
			<point x="34" y="-125" type="line"/>
			<point x="129" y="-125" type="line"/>
		</contour>
	</outline>
</glyph>
<glyph name="hyphen" format="2">
  <advance width="379"/>
  <unicode hex="002D"/>
  <outline>
    <contour>
      <point x="349" y="311" type="line"/>
      <point x="349" y="411" type="line"/>
      <point x="28" y="411" type="line"/>
      <point x="28" y="311" type="line"/>
    </contour>
  </outline>
</glyph>
<glyph name="period" format="2">
	<unicode hex="002E"/>
	<advance width="224"/>
	<outline>
		<contour>
			<point x="177" y="-48" type="line"/>
			<point x="177" y="87" type="line"/>
			<point x="47" y="87" type="line"/>
			<point x="47" y="-48" type="line"/>
		</contour>
	</outline>
</glyph>
<glyph name="slash" format="2">
  <advance width="344"/>
  <unicode hex="002F"/>
  <outline>
    <contour>
      <point x="332" y="806" type="line"/>
      <point x="230" y="806" type="line"/>
      <point x="12" y="-147" type="line"/>
      <point x="113" y="-147" type="line"/>
    </contour>
  </outline>
</glyph>
<glyph name="zero" format="2">
	<unicode hex="0030"/>
	<advance width="490"/>
	<outline>
		<contour>
			<point x="245" y="68" type="curve" smooth="yes"/>
			<point x="148.865" y="68"/>
			<point x="139" y="246.384"/>
			<point x="139" y="351" type="curve" smooth="yes"/>
			<point x="139" y="453.84"/>
			<point x="150.071" y="634"/>
			<point x="245" y="634" type="curve" smooth="yes"/>
			<point x="339.156" y="634"/>
			<point x="351" y="453.81"/>
			<point x="351" y="351" type="curve" smooth="yes"/>
			<point x="351" y="245.684"/>
			<point x="340.103" y="68"/>
		</contour>
		<contour>
			<point x="245" y="-25" type="curve" smooth="yes"/>
			<point x="415.067" y="-25"/>
			<point x="458" y="174.046"/>
			<point x="458" y="351" type="curve" smooth="yes"/>
			<point x="458" y="526.875"/>
			<point x="414.458" y="727"/>
			<point x="245" y="727" type="curve" smooth="yes"/>
			<point x="74.0685" y="727"/>
			<point x="32" y="526.736"/>
			<point x="32" y="351" type="curve" smooth="yes"/>
			<point x="32" y="174.028"/>
			<point x="73.8027" y="-25"/>
		</contour>
	</outline>
</glyph>
<glyph name="one" format="2">
	<unicode hex="0031"/>
	<advance width="490"/>
	<outline>
		<contour>
			<point x="318" y="-16" type="line"/>
			<point x="318" y="719" type="line"/>
			<point x="233" y="719" type="line"/>
			<point x="90" y="627" type="line"/>
			<point x="90" y="521" type="line"/>
			<point x="214" y="596" type="line"/>
			<point x="214" y="-16" type="line"/>
		</contour>
	</outline>
</glyph>
<glyph name="two" format="2">
	<unicode hex="0032"/>
	<advance width="519"/>
	<outline>
		<contour>
			<point x="453" y="-8" type="line"/>
			<point x="453" y="90" type="line"/>
			<point x="183" y="90" type="line"/>
			<point x="225" y="134"/>
			<point x="268" y="184"/>
			<point x="314" y="240" type="curve" smooth="yes"/>
			<point x="359" y="296"/>
			<point x="394" y="351"/>
			<point x="419" y="405" type="curve" smooth="yes"/>
			<point x="431.448" y="434.045"/>
			<point x="440" y="474.117"/>
			<point x="440" y="518" type="curve" smooth="yes"/>
			<point x="440" y="638.409"/>
			<point x="367.687" y="724"/>
			<point x="248" y="724" type="curve" smooth="yes"/>
			<point x="108.874" y="724"/>
			<point x="45" y="639.07"/>
			<point x="45" y="502" type="curve"/>
			<point x="153" y="502" type="line"/>
			<point x="153" y="583.726"/>
			<point x="171.498" y="635"/>
			<point x="246" y="635" type="curve" smooth="yes"/>
			<point x="303.799" y="635"/>
			<point x="334" y="575.503"/>
			<point x="334" y="518" type="curve" smooth="yes"/>
			<point x="334" y="490"/>
			<point x="329" y="462"/>
			<point x="319" y="435" type="curve" smooth="yes"/>
			<point x="306" y="396"/>
			<point x="267" y="336"/>
			<point x="203" y="256" type="curve" smooth="yes"/>
			<point x="137" y="174"/>
			<point x="85" y="116"/>
			<point x="46" y="82" type="curve"/>
			<point x="46" y="-8" type="line"/>
		</contour>
	</outline>
</glyph>
<glyph name="three" format="2">
  <advance width="490"/>
  <unicode hex="0033"/>
  <outline>
    <contour>
      <point x="455" y="198" type="curve" smooth="yes"/>
      <point x="455" y="230"/>
      <point x="450" y="257"/>
      <point x="442" y="278" type="curve" smooth="yes"/>
      <point x="432" y="298"/>
      <point x="420" y="316"/>
      <point x="405" y="332" type="curve" smooth="yes"/>
      <point x="385" y="348"/>
      <point x="367" y="361"/>
      <point x="350" y="370" type="curve"/>
      <point x="361" y="375"/>
      <point x="377" y="387"/>
      <point x="399" y="406" type="curve" smooth="yes"/>
      <point x="415" y="423"/>
      <point x="426" y="443"/>
      <point x="434" y="466" type="curve" smooth="yes"/>
      <point x="441" y="488"/>
      <point x="445" y="509"/>
      <point x="445" y="527" type="curve" smooth="yes"/>
      <point x="445" y="558"/>
      <point x="440" y="586"/>
      <point x="431" y="610" type="curve" smooth="yes"/>
      <point x="421" y="633"/>
      <point x="407" y="654"/>
      <point x="387" y="672" type="curve" smooth="yes"/>
      <point x="369" y="688"/>
      <point x="347" y="701"/>
      <point x="320" y="709" type="curve" smooth="yes"/>
      <point x="292" y="717"/>
      <point x="266" y="721"/>
      <point x="242" y="722" type="curve" smooth="yes"/>
      <point x="207" y="722"/>
      <point x="177" y="717"/>
      <point x="152" y="707" type="curve" smooth="yes"/>
      <point x="126" y="696"/>
      <point x="105" y="683"/>
      <point x="89" y="667" type="curve" smooth="yes"/>
      <point x="73" y="650"/>
      <point x="62" y="631"/>
      <point x="56" y="609" type="curve" smooth="yes"/>
      <point x="48" y="587"/>
      <point x="45" y="564"/>
      <point x="45" y="540" type="curve"/>
      <point x="150" y="540" type="line"/>
      <point x="152" y="570"/>
      <point x="162" y="594"/>
      <point x="179" y="610" type="curve" smooth="yes"/>
      <point x="195" y="626"/>
      <point x="217" y="634"/>
      <point x="247" y="634" type="curve" smooth="yes"/>
      <point x="269" y="634"/>
      <point x="290" y="625"/>
      <point x="310" y="608" type="curve" smooth="yes"/>
      <point x="329" y="590"/>
      <point x="339" y="563"/>
      <point x="339" y="527" type="curve" smooth="yes"/>
      <point x="339" y="493"/>
      <point x="328" y="466"/>
      <point x="306" y="445" type="curve" smooth="yes"/>
      <point x="284" y="423"/>
      <point x="244" y="412"/>
      <point x="186" y="412" type="curve"/>
      <point x="186" y="325" type="line"/>
      <point x="210" y="325"/>
      <point x="231" y="323"/>
      <point x="249" y="319" type="curve" smooth="yes"/>
      <point x="267" y="315"/>
      <point x="283" y="308"/>
      <point x="298" y="299" type="curve" smooth="yes"/>
      <point x="311" y="290"/>
      <point x="323" y="278"/>
      <point x="334" y="262" type="curve" smooth="yes"/>
      <point x="344" y="245"/>
      <point x="349" y="224"/>
      <point x="349" y="198" type="curve" smooth="yes"/>
      <point x="349" y="158"/>
      <point x="338" y="126"/>
      <point x="317" y="102" type="curve" smooth="yes"/>
      <point x="295" y="77"/>
      <point x="269" y="65"/>
      <point x="239" y="65" type="curve" smooth="yes"/>
      <point x="223" y="65"/>
      <point x="210" y="67"/>
      <point x="200" y="73" type="curve" smooth="yes"/>
      <point x="188" y="78"/>
      <point x="179" y="84"/>
      <point x="173" y="91" type="curve" smooth="yes"/>
      <point x="165" y="99"/>
      <point x="159" y="108"/>
      <point x="155" y="120" type="curve" smooth="yes"/>
      <point x="150" y="130"/>
      <point x="148" y="144"/>
      <point x="148" y="162" type="curve"/>
      <point x="31" y="162" type="line"/>
      <point x="34" y="129"/>
      <point x="40" y="102"/>
      <point x="49" y="81" type="curve" smooth="yes"/>
      <point x="57" y="59"/>
      <point x="71" y="40"/>
      <point x="89" y="25" type="curve" smooth="yes"/>
      <point x="105" y="11"/>
      <point x="126" y="0"/>
      <point x="153" y="-10" type="curve" smooth="yes"/>
      <point x="179" y="-18"/>
      <point x="208" y="-23"/>
      <point x="242" y="-23" type="curve" smooth="yes"/>
      <point x="277" y="-23"/>
      <point x="309" y="-17"/>
      <point x="338" y="-5" type="curve" smooth="yes"/>
      <point x="366" y="7"/>
      <point x="388" y="24"/>
      <point x="406" y="47" type="curve" smooth="yes"/>
      <point x="422" y="67"/>
      <point x="434" y="91"/>
      <point x="443" y="120" type="curve" smooth="yes"/>
      <point x="451" y="148"/>
      <point x="455" y="174"/>
    </contour>
  </outline>
</glyph>
<glyph name="four" format="2">
	<unicode hex="0034"/>
	<advance width="509"/>
	<outline>
		<contour>
			<point x="477" y="177" type="line"/>
			<point x="477" y="275" type="line"/>
			<point x="377" y="275" type="line"/>
			<point x="377" y="724" type="line"/>
			<point x="285" y="724" type="line"/>
			<point x="14" y="258" type="line"/>
			<point x="14" y="177" type="line"/>
			<point x="275" y="177" type="line"/>
			<point x="275" y="-11" type="line"/>
			<point x="377" y="-11" type="line"/>
			<point x="377" y="177" type="line"/>
		</contour>
		<contour>
			<point x="275" y="275" type="line"/>
			<point x="130" y="275" type="line"/>
			<point x="275" y="525" type="line"/>
		</contour>
	</outline>
</glyph>
<glyph name="five" format="2">
  <advance width="490"/>
  <unicode hex="0035"/>
  <outline>
    <contour>
      <point x="456" y="211" type="curve" smooth="yes"/>
      <point x="456" y="278"/>
      <point x="439" y="333"/>
      <point x="406" y="376" type="curve" smooth="yes"/>
      <point x="372" y="418"/>
      <point x="320" y="440"/>
      <point x="251" y="440" type="curve" smooth="yes"/>
      <point x="218" y="439"/>
      <point x="188" y="430"/>
      <point x="160" y="413" type="curve"/>
      <point x="172" y="615" type="line"/>
      <point x="419" y="615" type="line"/>
      <point x="419" y="713" type="line"/>
      <point x="74" y="713" type="line"/>
      <point x="55" y="292" type="line"/>
      <point x="154" y="292" type="line"/>
      <point x="163" y="312"/>
      <point x="175" y="327"/>
      <point x="191" y="337" type="curve" smooth="yes"/>
      <point x="206" y="346"/>
      <point x="223" y="351"/>
      <point x="241" y="351" type="curve" smooth="yes"/>
      <point x="271" y="351"/>
      <point x="296" y="339"/>
      <point x="318" y="316" type="curve" smooth="yes"/>
      <point x="338" y="292"/>
      <point x="349" y="257"/>
      <point x="349" y="211" type="curve" smooth="yes"/>
      <point x="347" y="165"/>
      <point x="334" y="129"/>
      <point x="312" y="104" type="curve" smooth="yes"/>
      <point x="289" y="78"/>
      <point x="263" y="66"/>
      <point x="233" y="66" type="curve" smooth="yes"/>
      <point x="217" y="66"/>
      <point x="203" y="68"/>
      <point x="193" y="74" type="curve" smooth="yes"/>
      <point x="182" y="79"/>
      <point x="174" y="85"/>
      <point x="168" y="91" type="curve" smooth="yes"/>
      <point x="162" y="97"/>
      <point x="157" y="106"/>
      <point x="155" y="117" type="curve" smooth="yes"/>
      <point x="152" y="127"/>
      <point x="150" y="140"/>
      <point x="150" y="156" type="curve"/>
      <point x="38" y="156" type="line"/>
      <point x="38" y="128"/>
      <point x="41" y="105"/>
      <point x="48" y="86" type="curve" smooth="yes"/>
      <point x="54" y="66"/>
      <point x="65" y="49"/>
      <point x="79" y="33" type="curve" smooth="yes"/>
      <point x="95" y="15"/>
      <point x="115" y="2"/>
      <point x="141" y="-8" type="curve" smooth="yes"/>
      <point x="166" y="-18"/>
      <point x="197" y="-23"/>
      <point x="233" y="-23" type="curve" smooth="yes"/>
      <point x="267" y="-23"/>
      <point x="299" y="-17"/>
      <point x="329" y="-5" type="curve" smooth="yes"/>
      <point x="357" y="7"/>
      <point x="381" y="25"/>
      <point x="399" y="47" type="curve" smooth="yes"/>
      <point x="417" y="68"/>
      <point x="431" y="93"/>
      <point x="441" y="122" type="curve" smooth="yes"/>
      <point x="451" y="150"/>
      <point x="456" y="180"/>
    </contour>
  </outline>
</glyph>
<glyph name="six" format="2">
  <advance width="490"/>
  <unicode hex="0036"/>
  <outline>
    <contour>
      <point x="57" y="120" type="curve" smooth="yes"/>
      <point x="67" y="89"/>
      <point x="81" y="63"/>
      <point x="98" y="42" type="curve" smooth="yes"/>
      <point x="116" y="19"/>
      <point x="140" y="2"/>
      <point x="169" y="-8" type="curve" smooth="yes"/>
      <point x="197" y="-18"/>
      <point x="224" y="-23"/>
      <point x="250" y="-23" type="curve" smooth="yes"/>
      <point x="276" y="-23"/>
      <point x="304" y="-18"/>
      <point x="332" y="-8" type="curve" smooth="yes"/>
      <point x="360" y="2"/>
      <point x="383" y="18"/>
      <point x="403" y="41" type="curve" smooth="yes"/>
      <point x="420" y="61"/>
      <point x="433" y="87"/>
      <point x="443" y="118" type="curve" smooth="yes"/>
      <point x="452" y="148"/>
      <point x="457" y="180"/>
      <point x="457" y="212" type="curve" smooth="yes"/>
      <point x="457" y="244"/>
      <point x="452" y="276"/>
      <point x="444" y="308" type="curve" smooth="yes"/>
      <point x="434" y="338"/>
      <point x="421" y="364"/>
      <point x="404" y="385" type="curve" smooth="yes"/>
      <point x="385" y="407"/>
      <point x="364" y="423"/>
      <point x="340" y="434" type="curve" smooth="yes"/>
      <point x="315" y="444"/>
      <point x="285" y="449"/>
      <point x="250" y="449" type="curve" smooth="yes"/>
      <point x="221" y="449"/>
      <point x="193" y="440"/>
      <point x="166" y="422" type="curve" smooth="yes"/>
      <point x="154" y="414"/>
      <point x="145" y="407"/>
      <point x="139" y="399" type="curve"/>
      <point x="139" y="426" type="line" smooth="yes"/>
      <point x="139" y="435"/>
      <point x="141" y="453"/>
      <point x="145" y="481" type="curve" smooth="yes"/>
      <point x="149" y="507"/>
      <point x="155" y="533"/>
      <point x="165" y="557" type="curve" smooth="yes"/>
      <point x="173" y="581"/>
      <point x="184" y="600"/>
      <point x="200" y="614" type="curve" smooth="yes"/>
      <point x="214" y="628"/>
      <point x="231" y="635"/>
      <point x="250" y="635" type="curve" smooth="yes"/>
      <point x="264" y="635"/>
      <point x="276" y="632"/>
      <point x="287" y="628" type="curve" smooth="yes"/>
      <point x="297" y="622"/>
      <point x="306" y="616"/>
      <point x="312" y="608" type="curve" smooth="yes"/>
      <point x="318" y="600"/>
      <point x="322" y="591"/>
      <point x="325" y="579" type="curve" smooth="yes"/>
      <point x="327" y="566"/>
      <point x="329" y="552"/>
      <point x="329" y="537" type="curve"/>
      <point x="445" y="537" type="line"/>
      <point x="445" y="564"/>
      <point x="441" y="589"/>
      <point x="433" y="611" type="curve" smooth="yes"/>
      <point x="425" y="633"/>
      <point x="413" y="652"/>
      <point x="397" y="669" type="curve" smooth="yes"/>
      <point x="381" y="685"/>
      <point x="360" y="698"/>
      <point x="336" y="708" type="curve" smooth="yes"/>
      <point x="311" y="718"/>
      <point x="283" y="723"/>
      <point x="252" y="723" type="curve" smooth="yes"/>
      <point x="206" y="723"/>
      <point x="168" y="711"/>
      <point x="139" y="689" type="curve" smooth="yes"/>
      <point x="109" y="666"/>
      <point x="87" y="636"/>
      <point x="72" y="600" type="curve" smooth="yes"/>
      <point x="57" y="565"/>
      <point x="47" y="528"/>
      <point x="42" y="488" type="curve" smooth="yes"/>
      <point x="36" y="448"/>
      <point x="34" y="406"/>
      <point x="34" y="364" type="curve" smooth="yes"/>
      <point x="34" y="304"/>
      <point x="36" y="254"/>
      <point x="41" y="214" type="curve" smooth="yes"/>
      <point x="45" y="172"/>
      <point x="50" y="141"/>
    </contour>
    <contour>
      <point x="352" y="213" type="curve" smooth="yes"/>
      <point x="352" y="192"/>
      <point x="349" y="172"/>
      <point x="345" y="154" type="curve" smooth="yes"/>
      <point x="339" y="134"/>
      <point x="332" y="118"/>
      <point x="323" y="106" type="curve" smooth="yes"/>
      <point x="314" y="92"/>
      <point x="303" y="82"/>
      <point x="291" y="76" type="curve" smooth="yes"/>
      <point x="277" y="69"/>
      <point x="264" y="66"/>
      <point x="251" y="66" type="curve" smooth="yes"/>
      <point x="237" y="66"/>
      <point x="224" y="69"/>
      <point x="212" y="76" type="curve" smooth="yes"/>
      <point x="198" y="82"/>
      <point x="187" y="92"/>
      <point x="179" y="106" type="curve" smooth="yes"/>
      <point x="169" y="118"/>
      <point x="162" y="134"/>
      <point x="158" y="154" type="curve" smooth="yes"/>
      <point x="152" y="172"/>
      <point x="150" y="192"/>
      <point x="150" y="213" type="curve" smooth="yes"/>
      <point x="150" y="233"/>
      <point x="152" y="253"/>
      <point x="158" y="273" type="curve" smooth="yes"/>
      <point x="162" y="291"/>
      <point x="169" y="307"/>
      <point x="179" y="320" type="curve" smooth="yes"/>
      <point x="187" y="333"/>
      <point x="198" y="343"/>
      <point x="212" y="350" type="curve" smooth="yes"/>
      <point x="224" y="356"/>
      <point x="237" y="360"/>
      <point x="251" y="360" type="curve" smooth="yes"/>
      <point x="264" y="360"/>
      <point x="277" y="356"/>
      <point x="291" y="350" type="curve" smooth="yes"/>
      <point x="303" y="343"/>
      <point x="314" y="333"/>
      <point x="323" y="320" type="curve" smooth="yes"/>
      <point x="332" y="307"/>
      <point x="339" y="291"/>
      <point x="345" y="273" type="curve" smooth="yes"/>
      <point x="349" y="253"/>
      <point x="352" y="233"/>
    </contour>
  </outline>
</glyph>
<glyph name="eight" format="2">
  <advance width="490"/>
  <unicode hex="0038"/>
  <outline>
    <contour>
      <point x="342" y="523" type="curve" smooth="yes"/>
      <point x="342" y="489"/>
      <point x="332" y="462"/>
      <point x="314" y="442" type="curve" smooth="yes"/>
      <point x="295" y="421"/>
      <point x="272" y="411"/>
      <point x="244" y="411" type="curve" smooth="yes"/>
      <point x="217" y="411"/>
      <point x="194" y="421"/>
      <point x="176" y="442" type="curve" smooth="yes"/>
      <point x="157" y="462"/>
      <point x="148" y="489"/>
      <point x="148" y="523" type="curve" smooth="yes"/>
      <point x="148" y="557"/>
      <point x="157" y="585"/>
      <point x="176" y="606" type="curve" smooth="yes"/>
      <point x="194" y="626"/>
      <point x="217" y="636"/>
      <point x="244" y="636" type="curve" smooth="yes"/>
      <point x="271" y="636"/>
      <point x="294" y="626"/>
      <point x="314" y="606" type="curve" smooth="yes"/>
      <point x="332" y="585"/>
      <point x="342" y="557"/>
    </contour>
    <contour>
      <point x="447" y="523" type="curve" smooth="yes"/>
      <point x="447" y="551"/>
      <point x="442" y="577"/>
      <point x="433" y="601" type="curve" smooth="yes"/>
      <point x="423" y="625"/>
      <point x="409" y="646"/>
      <point x="391" y="665" type="curve" smooth="yes"/>
      <point x="373" y="683"/>
      <point x="350" y="698"/>
      <point x="324" y="708" type="curve" smooth="yes"/>
      <point x="296" y="718"/>
      <point x="270" y="723"/>
      <point x="244" y="723" type="curve" smooth="yes"/>
      <point x="218" y="723"/>
      <point x="192" y="718"/>
      <point x="166" y="708" type="curve" smooth="yes"/>
      <point x="138" y="698"/>
      <point x="116" y="683"/>
      <point x="98" y="665" type="curve" smooth="yes"/>
      <point x="80" y="646"/>
      <point x="66" y="625"/>
      <point x="57" y="601" type="curve" smooth="yes"/>
      <point x="47" y="576"/>
      <point x="43" y="550"/>
      <point x="43" y="523" type="curve" smooth="yes"/>
      <point x="43" y="496"/>
      <point x="47" y="471"/>
      <point x="57" y="448" type="curve" smooth="yes"/>
      <point x="65" y="424"/>
      <point x="79" y="402"/>
      <point x="98" y="384" type="curve" smooth="yes"/>
      <point x="105" y="376"/>
      <point x="113" y="370"/>
      <point x="122" y="366" type="curve"/>
      <point x="111" y="360"/>
      <point x="101" y="352"/>
      <point x="91" y="343" type="curve" smooth="yes"/>
      <point x="71" y="323"/>
      <point x="57" y="300"/>
      <point x="47" y="276" type="curve" smooth="yes"/>
      <point x="36" y="250"/>
      <point x="31" y="222"/>
      <point x="31" y="192" type="curve" smooth="yes"/>
      <point x="31" y="163"/>
      <point x="35" y="135"/>
      <point x="44" y="109" type="curve" smooth="yes"/>
      <point x="52" y="81"/>
      <point x="66" y="57"/>
      <point x="86" y="36" type="curve" smooth="yes"/>
      <point x="106" y="15"/>
      <point x="130" y="0"/>
      <point x="160" y="-10" type="curve" smooth="yes"/>
      <point x="188" y="-19"/>
      <point x="216" y="-24"/>
      <point x="244" y="-24" type="curve" smooth="yes"/>
      <point x="271" y="-24"/>
      <point x="299" y="-19"/>
      <point x="329" y="-10" type="curve" smooth="yes"/>
      <point x="357" y="0"/>
      <point x="382" y="15"/>
      <point x="402" y="36" type="curve" smooth="yes"/>
      <point x="421" y="57"/>
      <point x="435" y="81"/>
      <point x="444" y="109" type="curve" smooth="yes"/>
      <point x="452" y="135"/>
      <point x="457" y="163"/>
      <point x="457" y="192" type="curve" smooth="yes"/>
      <point x="457" y="222"/>
      <point x="452" y="250"/>
      <point x="442" y="276" type="curve" smooth="yes"/>
      <point x="431" y="300"/>
      <point x="416" y="323"/>
      <point x="397" y="343" type="curve" smooth="yes"/>
      <point x="387" y="352"/>
      <point x="376" y="360"/>
      <point x="366" y="366" type="curve"/>
      <point x="374" y="370"/>
      <point x="382" y="376"/>
      <point x="390" y="384" type="curve" smooth="yes"/>
      <point x="409" y="402"/>
      <point x="423" y="423"/>
      <point x="433" y="447" type="curve" smooth="yes"/>
      <point x="442" y="471"/>
      <point x="447" y="496"/>
    </contour>
    <contour>
      <point x="244" y="67" type="curve" smooth="yes"/>
      <point x="214" y="67"/>
      <point x="188" y="78"/>
      <point x="168" y="102" type="curve" smooth="yes"/>
      <point x="147" y="124"/>
      <point x="137" y="154"/>
      <point x="137" y="192" type="curve" smooth="yes"/>
      <point x="137" y="230"/>
      <point x="147" y="261"/>
      <point x="169" y="285" type="curve" smooth="yes"/>
      <point x="189" y="308"/>
      <point x="214" y="320"/>
      <point x="244" y="320" type="curve" smooth="yes"/>
      <point x="273" y="320"/>
      <point x="298" y="308"/>
      <point x="320" y="285" type="curve" smooth="yes"/>
      <point x="340" y="261"/>
      <point x="351" y="230"/>
      <point x="351" y="192" type="curve" smooth="yes"/>
      <point x="351" y="154"/>
      <point x="340" y="124"/>
      <point x="320" y="102" type="curve" smooth="yes"/>
      <point x="299" y="78"/>
      <point x="274" y="67"/>
    </contour>
  </outline>
</glyph>
<glyph name="nine" format="2">
  <advance width="490"/>
  <unicode hex="0039"/>
  <outline>
    <contour>
      <point x="433" y="580" type="curve" smooth="yes"/>
      <point x="422" y="610"/>
      <point x="408" y="636"/>
      <point x="392" y="658" type="curve" smooth="yes"/>
      <point x="373" y="680"/>
      <point x="350" y="697"/>
      <point x="322" y="708" type="curve" smooth="yes"/>
      <point x="293" y="718"/>
      <point x="266" y="723"/>
      <point x="240" y="723" type="curve" smooth="yes"/>
      <point x="213" y="723"/>
      <point x="186" y="718"/>
      <point x="158" y="708" type="curve" smooth="yes"/>
      <point x="130" y="698"/>
      <point x="106" y="681"/>
      <point x="87" y="659" type="curve" smooth="yes"/>
      <point x="69" y="638"/>
      <point x="56" y="612"/>
      <point x="47" y="582" type="curve" smooth="yes"/>
      <point x="37" y="551"/>
      <point x="33" y="520"/>
      <point x="33" y="488" type="curve" smooth="yes"/>
      <point x="33" y="455"/>
      <point x="37" y="423"/>
      <point x="47" y="393" type="curve" smooth="yes"/>
      <point x="55" y="361"/>
      <point x="68" y="335"/>
      <point x="86" y="315" type="curve" smooth="yes"/>
      <point x="104" y="293"/>
      <point x="126" y="277"/>
      <point x="151" y="267" type="curve" smooth="yes"/>
      <point x="175" y="256"/>
      <point x="204" y="251"/>
      <point x="240" y="251" type="curve" smooth="yes"/>
      <point x="268" y="251"/>
      <point x="296" y="260"/>
      <point x="324" y="278" type="curve" smooth="yes"/>
      <point x="335" y="285"/>
      <point x="344" y="293"/>
      <point x="351" y="301" type="curve"/>
      <point x="351" y="274" type="line" smooth="yes"/>
      <point x="351" y="264"/>
      <point x="349" y="246"/>
      <point x="345" y="220" type="curve" smooth="yes"/>
      <point x="341" y="192"/>
      <point x="334" y="167"/>
      <point x="325" y="143" type="curve" smooth="yes"/>
      <point x="317" y="119"/>
      <point x="305" y="100"/>
      <point x="291" y="86" type="curve" smooth="yes"/>
      <point x="275" y="72"/>
      <point x="258" y="65"/>
      <point x="240" y="65" type="curve" smooth="yes"/>
      <point x="226" y="65"/>
      <point x="213" y="67"/>
      <point x="203" y="73" type="curve" smooth="yes"/>
      <point x="192" y="77"/>
      <point x="184" y="84"/>
      <point x="178" y="92" type="curve" smooth="yes"/>
      <point x="172" y="99"/>
      <point x="167" y="109"/>
      <point x="165" y="122" type="curve" smooth="yes"/>
      <point x="162" y="134"/>
      <point x="161" y="147"/>
      <point x="161" y="163" type="curve"/>
      <point x="45" y="163" type="line"/>
      <point x="45" y="135"/>
      <point x="49" y="111"/>
      <point x="57" y="89" type="curve" smooth="yes"/>
      <point x="65" y="67"/>
      <point x="77" y="47"/>
      <point x="93" y="31" type="curve" smooth="yes"/>
      <point x="109" y="15"/>
      <point x="129" y="2"/>
      <point x="154" y="-8" type="curve" smooth="yes"/>
      <point x="178" y="-18"/>
      <point x="206" y="-23"/>
      <point x="238" y="-23" type="curve" smooth="yes"/>
      <point x="284" y="-23"/>
      <point x="321" y="-11"/>
      <point x="351" y="11" type="curve" smooth="yes"/>
      <point x="380" y="33"/>
      <point x="402" y="63"/>
      <point x="418" y="100" type="curve" smooth="yes"/>
      <point x="432" y="134"/>
      <point x="442" y="172"/>
      <point x="448" y="212" type="curve" smooth="yes"/>
      <point x="453" y="252"/>
      <point x="456" y="293"/>
      <point x="456" y="336" type="curve" smooth="yes"/>
      <point x="456" y="395"/>
      <point x="454" y="445"/>
      <point x="450" y="487" type="curve" smooth="yes"/>
      <point x="445" y="527"/>
      <point x="439" y="558"/>
    </contour>
    <contour>
      <point x="138" y="487" type="curve" smooth="yes"/>
      <point x="138" y="507"/>
      <point x="140" y="527"/>
      <point x="146" y="547" type="curve" smooth="yes"/>
      <point x="150" y="565"/>
      <point x="157" y="581"/>
      <point x="167" y="594" type="curve" smooth="yes"/>
      <point x="175" y="607"/>
      <point x="186" y="617"/>
      <point x="200" y="624" type="curve" smooth="yes"/>
      <point x="212" y="630"/>
      <point x="225" y="634"/>
      <point x="239" y="634" type="curve" smooth="yes"/>
      <point x="252" y="634"/>
      <point x="265" y="630"/>
      <point x="279" y="624" type="curve" smooth="yes"/>
      <point x="291" y="617"/>
      <point x="302" y="607"/>
      <point x="311" y="594" type="curve" smooth="yes"/>
      <point x="320" y="581"/>
      <point x="327" y="565"/>
      <point x="333" y="547" type="curve" smooth="yes"/>
      <point x="337" y="527"/>
      <point x="340" y="507"/>
      <point x="340" y="487" type="curve" smooth="yes"/>
      <point x="340" y="466"/>
      <point x="337" y="446"/>
      <point x="333" y="428" type="curve" smooth="yes"/>
      <point x="327" y="408"/>
      <point x="320" y="392"/>
      <point x="311" y="380" type="curve" smooth="yes"/>
      <point x="302" y="366"/>
      <point x="291" y="356"/>
      <point x="279" y="350" type="curve" smooth="yes"/>
      <point x="265" y="343"/>
      <point x="252" y="340"/>
      <point x="239" y="340" type="curve" smooth="yes"/>
      <point x="225" y="340"/>
      <point x="212" y="343"/>
      <point x="200" y="350" type="curve" smooth="yes"/>
      <point x="186" y="356"/>
      <point x="175" y="366"/>
      <point x="167" y="380" type="curve" smooth="yes"/>
      <point x="157" y="392"/>
      <point x="150" y="408"/>
      <point x="146" y="428" type="curve" smooth="yes"/>
      <point x="140" y="446"/>
      <point x="138" y="466"/>
    </contour>
  </outline>
</glyph>
<glyph name="colon" format="2">
	<unicode hex="003A"/>
	<advance width="376"/>
	<outline>
		<contour>
			<point x="246" y="-18" type="line"/>
			<point x="246" y="117" type="line"/>
			<point x="116" y="117" type="line"/>
			<point x="116" y="-18" type="line"/>
		</contour>
		<contour>
			<point x="246" y="377" type="line"/>
			<point x="246" y="512" type="line"/>
			<point x="116" y="512" type="line"/>
			<point x="116" y="377" type="line"/>
		</contour>
	</outline>
</glyph>
<glyph name="semicolon" format="2">
	<unicode hex="003B"/>
	<advance width="376"/>
	<outline>
		<contour>
			<point x="250" y="127" type="line"/>
			<point x="124" y="127" type="line"/>
			<point x="99" y="-125" type="line"/>
			<point x="194" y="-125" type="line"/>
		</contour>
		<contour>
			<point x="246" y="377" type="line"/>
			<point x="246" y="512" type="line"/>
			<point x="116" y="512" type="line"/>
			<point x="116" y="377" type="line"/>
		</contour>
	</outline>
</glyph>
<glyph name="less" format="2">
  <advance width="524"/>
  <unicode hex="003C"/>
  <outline>
    <contour>
      <point x="74" y="324" type="line"/>
      <point x="483" y="-46" type="line"/>
      <point x="483" y="72" type="line"/>
      <point x="164" y="362" type="line"/>
      <point x="483" y="653" type="line"/>
      <point x="483" y="771" type="line"/>
      <point x="74" y="401" type="line"/>
    </contour>
  </outline>
</glyph>
<glyph name="greater" format="2">
  <advance width="524"/>
  <unicode hex="003E"/>
  <outline>
    <contour>
      <point x="450" y="324" type="line"/>
      <point x="450" y="401" type="line"/>
      <point x="41" y="771" type="line"/>
      <point x="41" y="653" type="line"/>
      <point x="360" y="362" type="line"/>
      <point x="41" y="72" type="line"/>
      <point x="41" y="-46" type="line"/>
    </contour>
  </outline>
</glyph>
<glyph name="question" format="2">
	<unicode hex="003F"/>
	<advance width="415"/>
	<outline>
		<contour>
			<point x="397" y="570" type="curve" smooth="yes"/>
			<point x="397" y="602"/>
			<point x="390" y="630"/>
			<point x="378" y="654" type="curve" smooth="yes"/>
			<point x="364" y="678"/>
			<point x="348" y="697"/>
			<point x="328" y="712" type="curve" smooth="yes"/>
			<point x="307" y="727"/>
			<point x="284" y="738"/>
			<point x="259" y="746" type="curve" smooth="yes"/>
			<point x="233" y="752"/>
			<point x="209" y="756"/>
			<point x="187" y="756" type="curve" smooth="yes"/>
			<point x="171" y="756"/>
			<point x="155" y="755"/>
			<point x="141" y="753" type="curve" smooth="yes"/>
			<point x="125" y="750"/>
			<point x="112" y="747"/>
			<point x="101" y="745" type="curve" smooth="yes"/>
			<point x="89" y="742"/>
			<point x="76" y="739"/>
			<point x="64" y="736" type="curve" smooth="yes"/>
			<point x="50" y="732"/>
			<point x="36" y="727"/>
			<point x="22" y="722" type="curve"/>
			<point x="22" y="610" type="line"/>
			<point x="44" y="622"/>
			<point x="61" y="630"/>
			<point x="74" y="635" type="curve" smooth="yes"/>
			<point x="86" y="639"/>
			<point x="99" y="643"/>
			<point x="111" y="647" type="curve" smooth="yes"/>
			<point x="124" y="651"/>
			<point x="137" y="654"/>
			<point x="149" y="657" type="curve" smooth="yes"/>
			<point x="161" y="659"/>
			<point x="173" y="660"/>
			<point x="185" y="660" type="curve" smooth="yes"/>
			<point x="199" y="660"/>
			<point x="212" y="657"/>
			<point x="225" y="653" type="curve" smooth="yes"/>
			<point x="237" y="648"/>
			<point x="248" y="642"/>
			<point x="258" y="634" type="curve" smooth="yes"/>
			<point x="267" y="626"/>
			<point x="275" y="616"/>
			<point x="281" y="604" type="curve" smooth="yes"/>
			<point x="286" y="592"/>
			<point x="289" y="579"/>
			<point x="289" y="567" type="curve" smooth="yes"/>
			<point x="289" y="553"/>
			<point x="285" y="539"/>
			<point x="278" y="524" type="curve" smooth="yes"/>
			<point x="270" y="508"/>
			<point x="262" y="493"/>
			<point x="252" y="480" type="curve" smooth="yes"/>
			<point x="240" y="464"/>
			<point x="229" y="450"/>
			<point x="217" y="438" type="curve" smooth="yes"/>
			<point x="204" y="425"/>
			<point x="193" y="413"/>
			<point x="183" y="403" type="curve" smooth="yes"/>
			<point x="163" y="380"/>
			<point x="147" y="358"/>
			<point x="136" y="337" type="curve" smooth="yes"/>
			<point x="124" y="315"/>
			<point x="119" y="281"/>
			<point x="119" y="235" type="curve" smooth="yes"/>
			<point x="119" y="164" type="line"/>
			<point x="220" y="164" type="line"/>
			<point x="220" y="212" type="line" smooth="yes"/>
			<point x="220" y="237"/>
			<point x="221" y="255"/>
			<point x="224" y="266" type="curve" smooth="yes"/>
			<point x="226" y="276"/>
			<point x="229" y="287"/>
			<point x="233" y="297" type="curve" smooth="yes"/>
			<point x="237" y="305"/>
			<point x="243" y="314"/>
			<point x="250" y="322" type="curve" smooth="yes"/>
			<point x="256" y="330"/>
			<point x="263" y="339"/>
			<point x="271" y="350" type="curve" smooth="yes"/>
			<point x="277" y="357"/>
			<point x="287" y="368"/>
			<point x="301" y="383" type="curve" smooth="yes"/>
			<point x="314" y="397"/>
			<point x="328" y="413"/>
			<point x="342" y="432" type="curve" smooth="yes"/>
			<point x="356" y="450"/>
			<point x="368" y="471"/>
			<point x="380" y="495" type="curve" smooth="yes"/>
			<point x="391" y="519"/>
			<point x="397" y="544"/>
		</contour>
		<contour>
			<point x="236" y="-48" type="line"/>
			<point x="236" y="87" type="line"/>
			<point x="106" y="87" type="line"/>
			<point x="106" y="-48" type="line"/>
		</contour>
	</outline>
</glyph>
<glyph name="at" format="2">
	<unicode hex="0040"/>
	<advance width="890"/>
	<outline>
		<contour>
			<point x="832" y="332" type="curve" smooth="yes"/>
			<point x="836" y="417"/>
			<point x="818" y="493"/>
			<point x="779" y="561" type="curve" smooth="yes"/>
			<point x="739" y="627"/>
			<point x="687" y="672"/>
			<point x="623" y="696" type="curve" smooth="yes"/>
			<point x="581" y="712"/>
			<point x="540" y="722"/>
			<point x="498" y="724" type="curve" smooth="yes"/>
			<point x="455" y="725"/>
			<point x="414" y="720"/>
			<point x="375" y="708" type="curve" smooth="yes"/>
			<point x="337" y="694"/>
			<point x="302" y="676"/>
			<point x="270" y="653" type="curve" smooth="yes"/>
			<point x="237" y="629"/>
			<point x="207" y="599"/>
			<point x="179" y="563" type="curve" smooth="yes"/>
			<point x="149" y="524"/>
			<point x="125" y="482"/>
			<point x="108" y="438" type="curve" smooth="yes"/>
			<point x="90" y="393"/>
			<point x="77" y="350"/>
			<point x="69" y="309" type="curve" smooth="yes"/>
			<point x="61" y="266"/>
			<point x="59" y="222"/>
			<point x="62" y="178" type="curve" smooth="yes"/>
			<point x="64" y="132"/>
			<point x="73" y="92"/>
			<point x="88" y="56" type="curve" smooth="yes"/>
			<point x="118" y="-18"/>
			<point x="165" y="-74"/>
			<point x="229" y="-112" type="curve" smooth="yes"/>
			<point x="293" y="-149"/>
			<point x="366" y="-168"/>
			<point x="449" y="-168" type="curve" smooth="yes"/>
			<point x="497" y="-168"/>
			<point x="540" y="-162"/>
			<point x="578" y="-151" type="curve" smooth="yes"/>
			<point x="614" y="-139"/>
			<point x="645" y="-125"/>
			<point x="670" y="-110" type="curve" smooth="yes"/>
			<point x="694" y="-94"/>
			<point x="714" y="-79"/>
			<point x="729" y="-66" type="curve" smooth="yes"/>
			<point x="743" y="-52"/>
			<point x="754" y="-40"/>
			<point x="762" y="-28" type="curve"/>
			<point x="717" y="31" type="line"/>
			<point x="701" y="15"/>
			<point x="686" y="2"/>
			<point x="672" y="-9" type="curve" smooth="yes"/>
			<point x="656" y="-20"/>
			<point x="640" y="-31"/>
			<point x="622" y="-42" type="curve" smooth="yes"/>
			<point x="600" y="-55"/>
			<point x="575" y="-65"/>
			<point x="547" y="-73" type="curve" smooth="yes"/>
			<point x="517" y="-79"/>
			<point x="486" y="-83"/>
			<point x="452" y="-83" type="curve" smooth="yes"/>
			<point x="382" y="-83"/>
			<point x="325" y="-67"/>
			<point x="280" y="-36" type="curve" smooth="yes"/>
			<point x="234" y="-4"/>
			<point x="201" y="36"/>
			<point x="181" y="86" type="curve" smooth="yes"/>
			<point x="169" y="114"/>
			<point x="163" y="146"/>
			<point x="162" y="182" type="curve" smooth="yes"/>
			<point x="160" y="217"/>
			<point x="162" y="251"/>
			<point x="169" y="285" type="curve" smooth="yes"/>
			<point x="175" y="317"/>
			<point x="184" y="351"/>
			<point x="196" y="388" type="curve" smooth="yes"/>
			<point x="208" y="424"/>
			<point x="227" y="460"/>
			<point x="253" y="497" type="curve" smooth="yes"/>
			<point x="271" y="523"/>
			<point x="294" y="548"/>
			<point x="321" y="570" type="curve" smooth="yes"/>
			<point x="347" y="592"/>
			<point x="376" y="608"/>
			<point x="407" y="620" type="curve" smooth="yes"/>
			<point x="435" y="630"/>
			<point x="464" y="636"/>
			<point x="496" y="636" type="curve" smooth="yes"/>
			<point x="526" y="636"/>
			<point x="558" y="629"/>
			<point x="591" y="617" type="curve" smooth="yes"/>
			<point x="638" y="597"/>
			<point x="676" y="559"/>
			<point x="705" y="505" type="curve" smooth="yes"/>
			<point x="733" y="449"/>
			<point x="745" y="392"/>
			<point x="743" y="333" type="curve" smooth="yes"/>
			<point x="742" y="313"/>
			<point x="738" y="287"/>
			<point x="730" y="256" type="curve" smooth="yes"/>
			<point x="722" y="224"/>
			<point x="712" y="198"/>
			<point x="702" y="178" type="curve" smooth="yes"/>
			<point x="693" y="161"/>
			<point x="682" y="145"/>
			<point x="668" y="131" type="curve" smooth="yes"/>
			<point x="654" y="115"/>
			<point x="640" y="104"/>
			<point x="628" y="96" type="curve" smooth="yes"/>
			<point x="602" y="79"/>
			<point x="584" y="73"/>
			<point x="575" y="77" type="curve" smooth="yes"/>
			<point x="565" y="80"/>
			<point x="565" y="95"/>
			<point x="573" y="121" type="curve" smooth="yes"/>
			<point x="589" y="168"/>
			<point x="610" y="230"/>
			<point x="638" y="308" type="curve" smooth="yes"/>
			<point x="665" y="385"/>
			<point x="685" y="444"/>
			<point x="699" y="485" type="curve"/>
			<point x="598" y="485" type="line"/>
			<point x="586" y="450" type="line"/>
			<point x="581" y="461"/>
			<point x="571" y="473"/>
			<point x="556" y="487" type="curve" smooth="yes"/>
			<point x="540" y="499"/>
			<point x="516" y="506"/>
			<point x="486" y="506" type="curve" smooth="yes"/>
			<point x="450" y="506"/>
			<point x="416" y="493"/>
			<point x="385" y="468" type="curve" smooth="yes"/>
			<point x="353" y="442"/>
			<point x="327" y="413"/>
			<point x="305" y="379" type="curve" smooth="yes"/>
			<point x="279" y="339"/>
			<point x="262" y="301"/>
			<point x="252" y="265" type="curve" smooth="yes"/>
			<point x="242" y="228"/>
			<point x="236" y="197"/>
			<point x="235" y="172" type="curve" smooth="yes"/>
			<point x="233" y="142"/>
			<point x="236" y="117"/>
			<point x="244" y="95" type="curve" smooth="yes"/>
			<point x="250" y="72"/>
			<point x="260" y="53"/>
			<point x="273" y="37" type="curve" smooth="yes"/>
			<point x="285" y="22"/>
			<point x="300" y="11"/>
			<point x="320" y="5" type="curve" smooth="yes"/>
			<point x="339" y="-1"/>
			<point x="357" y="-5"/>
			<point x="373" y="-5" type="curve" smooth="yes"/>
			<point x="394" y="-5"/>
			<point x="414" y="0"/>
			<point x="433" y="10" type="curve" smooth="yes"/>
			<point x="451" y="20"/>
			<point x="466" y="31"/>
			<point x="478" y="44" type="curve"/>
			<point x="479" y="30"/>
			<point x="486" y="16"/>
			<point x="500" y="2" type="curve" smooth="yes"/>
			<point x="512" y="-12"/>
			<point x="534" y="-18"/>
			<point x="564" y="-16" type="curve" smooth="yes"/>
			<point x="594" y="-14"/>
			<point x="625" y="-3"/>
			<point x="657" y="16" type="curve" smooth="yes"/>
			<point x="709" y="46"/>
			<point x="751" y="89"/>
			<point x="782" y="145" type="curve" smooth="yes"/>
			<point x="812" y="200"/>
			<point x="828" y="262"/>
		</contour>
		<contour>
			<point x="538" y="363" type="curve" smooth="yes"/>
			<point x="538" y="352"/>
			<point x="535" y="333"/>
			<point x="529" y="305" type="curve" smooth="yes"/>
			<point x="523" y="276"/>
			<point x="512" y="242"/>
			<point x="497" y="204" type="curve" smooth="yes"/>
			<point x="481" y="162"/>
			<point x="463" y="132"/>
			<point x="443" y="112" type="curve" smooth="yes"/>
			<point x="422" y="92"/>
			<point x="402" y="82"/>
			<point x="382" y="82" type="curve" smooth="yes"/>
			<point x="375" y="82"/>
			<point x="370" y="82"/>
			<point x="367" y="84" type="curve" smooth="yes"/>
			<point x="363" y="85"/>
			<point x="359" y="88"/>
			<point x="355" y="92" type="curve" smooth="yes"/>
			<point x="348" y="98"/>
			<point x="343" y="106"/>
			<point x="340" y="118" type="curve" smooth="yes"/>
			<point x="336" y="129"/>
			<point x="335" y="145"/>
			<point x="338" y="166" type="curve" smooth="yes"/>
			<point x="340" y="189"/>
			<point x="345" y="213"/>
			<point x="353" y="237" type="curve" smooth="yes"/>
			<point x="360" y="260"/>
			<point x="370" y="283"/>
			<point x="383" y="307" type="curve" smooth="yes"/>
			<point x="402" y="343"/>
			<point x="423" y="371"/>
			<point x="446" y="392" type="curve" smooth="yes"/>
			<point x="468" y="412"/>
			<point x="485" y="423"/>
			<point x="498" y="423" type="curve" smooth="yes"/>
			<point x="510" y="423"/>
			<point x="519" y="417"/>
			<point x="527" y="405" type="curve" smooth="yes"/>
			<point x="534" y="392"/>
			<point x="538" y="378"/>
		</contour>
	</outline>
</glyph>
<glyph name="A" format="2">
	<unicode hex="0041"/>
	<advance width="570"/>
	<outline>
		<contour>
			<point x="569" y="-8" type="line"/>
			<point x="337" y="721" type="line"/>
			<point x="232" y="721" type="line"/>
			<point x="0" y="-8" type="line"/>
			<point x="111" y="-8" type="line"/>
			<point x="177" y="211" type="line"/>
			<point x="391" y="211" type="line"/>
			<point x="458" y="-8" type="line"/>
		</contour>
		<contour>
			<point x="362" y="308" type="line"/>
			<point x="207" y="308" type="line"/>
			<point x="285" y="565" type="line"/>
		</contour>
	</outline>
</glyph>
<glyph name="B" format="2">
	<unicode hex="0042"/>
	<advance width="561"/>
	<outline>
		<contour>
			<point x="500" y="205" type="curve" smooth="yes"/>
			<point x="500" y="302.416"/>
			<point x="447.686" y="353.672"/>
			<point x="382" y="378" type="curve"/>
			<point x="433.914" y="399.964"/>
			<point x="474" y="447.867"/>
			<point x="474" y="523" type="curve" smooth="yes"/>
			<point x="474" y="655.194"/>
			<point x="382.533" y="721"/>
			<point x="249" y="721" type="curve" smooth="yes"/>
			<point x="54" y="721" type="line"/>
			<point x="54" y="-8" type="line"/>
			<point x="261" y="-8" type="line" smooth="yes"/>
			<point x="404.766" y="-8"/>
			<point x="500" y="59.6399"/>
		</contour>
		<contour>
			<point x="159" y="87" type="line"/>
			<point x="159" y="326" type="line"/>
			<point x="249" y="326" type="line" smooth="yes"/>
			<point x="334.272" y="326"/>
			<point x="394" y="287.279"/>
			<point x="394" y="205" type="curve" smooth="yes"/>
			<point x="394" y="121.153"/>
			<point x="336.111" y="87"/>
			<point x="249" y="87" type="curve" smooth="yes"/>
		</contour>
		<contour>
			<point x="368" y="523" type="curve" smooth="yes"/>
			<point x="368" y="455.711"/>
			<point x="318.146" y="421"/>
			<point x="252" y="421" type="curve" smooth="yes"/>
			<point x="159" y="421" type="line"/>
			<point x="159" y="626" type="line"/>
			<point x="229" y="626" type="line" smooth="yes"/>
			<point x="311.851" y="626"/>
			<point x="368" y="605.494"/>
		</contour>
	</outline>
</glyph>
<glyph name="C" format="2">
	<unicode hex="0043"/>
	<advance width="573"/>
	<outline>
		<contour>
			<point x="552" y="501" type="line"/>
			<point x="552" y="643.452"/>
			<point x="460.114" y="734"/>
			<point x="321" y="734" type="curve" smooth="yes"/>
			<point x="119.62" y="734"/>
			<point x="23" y="568.104"/>
			<point x="23" y="368" type="curve" smooth="yes"/>
			<point x="23" y="160.554"/>
			<point x="116.585" y="-20"/>
			<point x="323" y="-20" type="curve" smooth="yes"/>
			<point x="409.302" y="-20"/>
			<point x="474.404" y="-0.779861"/>
			<point x="529" y="29" type="curve"/>
			<point x="529" y="142" type="line"/>
			<point x="468.848" y="102.983"/>
			<point x="424.582" y="75"/>
			<point x="343" y="75" type="curve" smooth="yes"/>
			<point x="189.856" y="75"/>
			<point x="131" y="219.514"/>
			<point x="131" y="368" type="curve" smooth="yes"/>
			<point x="131" y="503.589"/>
			<point x="187.571" y="639"/>
			<point x="321" y="639" type="curve"/>
			<point x="400.254" y="633.339"/>
			<point x="441" y="590.124"/>
			<point x="441" y="501" type="curve"/>
		</contour>
	</outline>
</glyph>
<glyph name="D" format="2">
	<unicode hex="0044"/>
	<advance width="578"/>
	<outline>
		<contour>
			<point x="159" y="624" type="line"/>
			<point x="218" y="624" type="line" smooth="yes"/>
			<point x="380.354" y="624"/>
			<point x="443" y="520.647"/>
			<point x="443" y="356" type="curve" smooth="yes"/>
			<point x="443" y="191.491"/>
			<point x="379.768" y="89"/>
			<point x="218" y="89" type="curve" smooth="yes"/>
			<point x="159" y="89" type="line"/>
		</contour>
		<contour>
			<point x="54" y="721" type="line"/>
			<point x="54" y="-8" type="line"/>
			<point x="213" y="-8" type="line" smooth="yes"/>
			<point x="441.306" y="-8"/>
			<point x="549" y="126.295"/>
			<point x="549" y="356" type="curve" smooth="yes"/>
			<point x="549" y="585.95"/>
			<point x="442.472" y="721"/>
			<point x="213" y="721" type="curve" smooth="yes"/>
		</contour>
	</outline>
</glyph>
<glyph name="E" format="2">
	<unicode hex="0045"/>
	<advance width="499"/>
	<outline>
		<contour>
			<point x="446" y="-8" type="line"/>
			<point x="446" y="89" type="line"/>
			<point x="160" y="89" type="line"/>
			<point x="160" y="324" type="line"/>
			<point x="426" y="324" type="line"/>
			<point x="426" y="421" type="line"/>
			<point x="160" y="421" type="line"/>
			<point x="160" y="624" type="line"/>
			<point x="438" y="624" type="line"/>
			<point x="438" y="721" type="line"/>
			<point x="54" y="721" type="line"/>
			<point x="54" y="-8" type="line"/>
		</contour>
	</outline>
</glyph>
<glyph name="G" format="2">
	<unicode hex="0047"/>
	<advance width="599"/>
	<outline>
		<contour>
			<point x="552" y="501" type="line"/>
			<point x="552" y="643.452"/>
			<point x="460.114" y="734"/>
			<point x="321" y="734" type="curve" smooth="yes"/>
			<point x="120.13" y="734"/>
			<point x="23" y="568.524"/>
			<point x="23" y="369" type="curve" smooth="yes"/>
			<point x="23" y="161.861"/>
			<point x="116.563" y="-19"/>
			<point x="323" y="-19" type="curve" smooth="yes"/>
			<point x="423.111" y="-19"/>
			<point x="476.209" y="-0.724683"/>
			<point x="546" y="37" type="curve"/>
			<point x="546" y="394" type="line"/>
			<point x="287" y="394" type="line"/>
			<point x="287" y="296" type="line"/>
			<point x="440" y="296" type="line"/>
			<point x="440" y="93" type="line"/>
			<point x="424.545" y="82.6967"/>
			<point x="372.331" y="76"/>
			<point x="343" y="76" type="curve" smooth="yes"/>
			<point x="189.825" y="76"/>
			<point x="131" y="220.491"/>
			<point x="131" y="369" type="curve" smooth="yes"/>
			<point x="131" y="504.116"/>
			<point x="187.45" y="639"/>
			<point x="321" y="639" type="curve"/>
			<point x="400.254" y="633.339"/>
			<point x="441" y="590.124"/>
			<point x="441" y="501" type="curve"/>
		</contour>
	</outline>
</glyph>
<glyph name="H" format="2">
	<unicode hex="0048"/>
	<advance width="614"/>
	<outline>
		<contour>
			<point x="525" y="-8" type="line"/>
			<point x="525" y="721" type="line"/>
			<point x="419" y="721" type="line"/>
			<point x="419" y="419" type="line"/>
			<point x="160" y="419" type="line"/>
			<point x="160" y="721" type="line"/>
			<point x="54" y="721" type="line"/>
			<point x="54" y="-8" type="line"/>
			<point x="160" y="-8" type="line"/>
			<point x="160" y="322" type="line"/>
			<point x="419" y="322" type="line"/>
			<point x="419" y="-8" type="line"/>
		</contour>
	</outline>
</glyph>
<glyph name="I" format="2">
	<unicode hex="0049"/>
	<advance width="230"/>
	<outline>
		<contour>
			<point x="164" y="-8" type="line"/>
			<point x="164" y="721" type="line"/>
			<point x="58" y="721" type="line"/>
			<point x="58" y="-8" type="line"/>
		</contour>
	</outline>
</glyph>
<glyph name="J" format="2">
	<unicode hex="004A"/>
	<advance width="343"/>
	<outline>
		<contour>
			<point x="289" y="160" type="curve" smooth="yes"/>
			<point x="289" y="721" type="line"/>
			<point x="183" y="721" type="line"/>
			<point x="183" y="174" type="line" smooth="yes"/>
			<point x="183" y="111.593"/>
			<point x="155.335" y="77"/>
			<point x="98" y="77" type="curve" smooth="yes"/>
			<point x="57.8499" y="77"/>
			<point x="32.2828" y="86.4655"/>
			<point x="-5" y="102" type="curve"/>
			<point x="-5" y="-3" type="line"/>
			<point x="27.477" y="-13.2559"/>
			<point x="53.9333" y="-19"/>
			<point x="92" y="-19" type="curve" smooth="yes"/>
			<point x="214.209" y="-19"/>
			<point x="289" y="41.0298"/>
		</contour>
	</outline>
</glyph>
<glyph name="K" format="2">
	<unicode hex="004B"/>
	<advance width="540"/>
	<outline>
		<contour>
			<point x="540" y="-8" type="line"/>
			<point x="231" y="378" type="line"/>
			<point x="517" y="721" type="line"/>
			<point x="388" y="721" type="line"/>
			<point x="158" y="443" type="line"/>
			<point x="158" y="721" type="line"/>
			<point x="54" y="721" type="line"/>
			<point x="54" y="-8" type="line"/>
			<point x="158" y="-8" type="line"/>
			<point x="158" y="298" type="line"/>
			<point x="406" y="-8" type="line"/>
		</contour>
	</outline>
</glyph>
<glyph name="L" format="2">
  <advance width="450"/>
  <unicode hex="004C"/>
  <outline>
    <contour>
      <point x="447" y="-8" type="line"/>
      <point x="447" y="89" type="line"/>
      <point x="160" y="89" type="line"/>
      <point x="160" y="721" type="line"/>
      <point x="54" y="721" type="line"/>
      <point x="54" y="-8" type="line"/>
    </contour>
  </outline>
</glyph>
<glyph name="M" format="2">
	<unicode hex="004D"/>
	<advance width="731"/>
	<outline>
		<contour>
			<point x="677" y="-8" type="line"/>
			<point x="677" y="721" type="line"/>
			<point x="546" y="721" type="line"/>
			<point x="366" y="156" type="line"/>
			<point x="184" y="721" type="line"/>
			<point x="54" y="721" type="line"/>
			<point x="54" y="-8" type="line"/>
			<point x="154" y="-8" type="line"/>
			<point x="154" y="520" type="line"/>
			<point x="323" y="-8" type="line"/>
			<point x="407" y="-8" type="line"/>
			<point x="577" y="520" type="line"/>
			<point x="577" y="-8" type="line"/>
		</contour>
	</outline>
</glyph>
<glyph name="O" format="2">
	<unicode hex="004F"/>
	<advance width="678"/>
	<outline>
		<contour>
			<point x="517" y="357" type="curve" smooth="yes"/>
			<point x="517" y="216.117"/>
			<point x="461.088" y="74"/>
			<point x="325" y="74" type="curve" smooth="yes"/>
			<point x="188.532" y="74"/>
			<point x="133" y="217.255"/>
			<point x="133" y="357" type="curve" smooth="yes"/>
			<point x="133" y="495.514"/>
			<point x="188.083" y="641"/>
			<point x="325" y="641" type="curve" smooth="yes"/>
			<point x="461.76" y="641"/>
			<point x="517" y="496.933"/>
		</contour>
		<contour>
			<point x="624" y="357" type="curve" smooth="yes"/>
			<point x="624" y="558.893"/>
			<point x="524.395" y="734"/>
			<point x="325" y="734" type="curve" smooth="yes"/>
			<point x="124.784" y="734"/>
			<point x="26" y="558.76"/>
			<point x="26" y="357" type="curve" smooth="yes"/>
			<point x="26" y="154.085"/>
			<point x="125.151" y="-19"/>
			<point x="325" y="-19" type="curve" smooth="yes"/>
			<point x="524.008" y="-19"/>
			<point x="624" y="153.963"/>
		</contour>
	</outline>
</glyph>
<glyph name="P" format="2">
	<unicode hex="0050"/>
	<advance width="512"/>
	<outline>
		<contour>
			<point x="493" y="501" type="curve" smooth="yes"/>
			<point x="493" y="648.849"/>
			<point x="388.415" y="721"/>
			<point x="243" y="721" type="curve" smooth="yes"/>
			<point x="54" y="721" type="line"/>
			<point x="54" y="-8" type="line"/>
			<point x="160" y="-8" type="line"/>
			<point x="160" y="281" type="line"/>
			<point x="186.667" y="281"/>
			<point x="213.333" y="281"/>
			<point x="240" y="281" type="curve" smooth="yes"/>
			<point x="386.359" y="281"/>
			<point x="493" y="352.145"/>
		</contour>
		<contour>
			<point x="160" y="381" type="curve"/>
			<point x="160" y="625" type="line"/>
			<point x="245" y="625" type="line" smooth="yes"/>
			<point x="324.984" y="625"/>
			<point x="387" y="583.713"/>
			<point x="387" y="501" type="curve" smooth="yes"/>
			<point x="387" y="414.441"/>
			<point x="325.497" y="381"/>
			<point x="238" y="381" type="curve" smooth="yes"/>
			<point x="212" y="381"/>
			<point x="186" y="381"/>
		</contour>
	</outline>
</glyph>
<glyph name="Q" format="2">
	<unicode hex="0051"/>
	<advance width="670"/>
	<outline>
		<contour>
			<point x="531" y="73" type="line"/>
			<point x="583.408" y="142.877"/>
			<point x="624" y="235.006"/>
			<point x="624" y="357" type="curve" smooth="yes"/>
			<point x="624" y="558.893"/>
			<point x="524.395" y="734"/>
			<point x="325" y="734" type="curve" smooth="yes"/>
			<point x="124.784" y="734"/>
			<point x="26" y="558.76"/>
			<point x="26" y="357" type="curve" smooth="yes"/>
			<point x="26" y="154.085"/>
			<point x="125.151" y="-19"/>
			<point x="325" y="-19" type="curve" smooth="yes"/>
			<point x="351" y="-19"/>
			<point x="377" y="-15"/>
			<point x="402" y="-8" type="curve"/>
			<point x="668" y="-8" type="line"/>
			<point x="668" y="85" type="line"/>
			<point x="626" y="77"/>
			<point x="581" y="73"/>
			<point x="535" y="73" type="curve" smooth="yes"/>
		</contour>
		<contour>
			<point x="517" y="357" type="curve" smooth="yes"/>
			<point x="517" y="216.117"/>
			<point x="461.088" y="74"/>
			<point x="325" y="74" type="curve" smooth="yes"/>
			<point x="188.532" y="74"/>
			<point x="133" y="217.255"/>
			<point x="133" y="357" type="curve" smooth="yes"/>
			<point x="133" y="495.514"/>
			<point x="188.083" y="641"/>
			<point x="325" y="641" type="curve" smooth="yes"/>
			<point x="461.522" y="641"/>
			<point x="517" y="496.637"/>
		</contour>
	</outline>
</glyph>
<glyph name="R" format="2">
	<unicode hex="0052"/>
	<advance width="522"/>
	<outline>
		<contour>
			<point x="493" y="507" type="curve" smooth="yes"/>
			<point x="493" y="651.355"/>
			<point x="385.479" y="721"/>
			<point x="243" y="721" type="curve" smooth="yes"/>
			<point x="54" y="721" type="line"/>
			<point x="54" y="-8" type="line"/>
			<point x="160" y="-8" type="line"/>
			<point x="160" y="291" type="line"/>
			<point x="184.667" y="291"/>
			<point x="209.333" y="291"/>
			<point x="234" y="291" type="curve" smooth="yes"/>
			<point x="273" y="291"/>
			<point x="307" y="270"/>
			<point x="335" y="229" type="curve" smooth="yes"/>
			<point x="361" y="191"/>
			<point x="383" y="112"/>
			<point x="401" y="-8" type="curve"/>
			<point x="512" y="-8" type="line"/>
			<point x="497" y="84"/>
			<point x="478" y="162"/>
			<point x="455" y="226" type="curve" smooth="yes"/>
			<point x="437" y="276"/>
			<point x="411" y="310"/>
			<point x="377" y="330" type="curve"/>
			<point x="439.559" y="357.804"/>
			<point x="493" y="416.189"/>
		</contour>
		<contour>
			<point x="160" y="391" type="curve"/>
			<point x="160" y="625" type="line"/>
			<point x="245" y="625" type="line" smooth="yes"/>
			<point x="322.762" y="625"/>
			<point x="387" y="586.658"/>
			<point x="387" y="507" type="curve" smooth="yes"/>
			<point x="387" y="423.613"/>
			<point x="320.608" y="391"/>
			<point x="238" y="391" type="curve" smooth="yes"/>
			<point x="212" y="391"/>
			<point x="186" y="391"/>
		</contour>
	</outline>
</glyph>
<glyph name="S" format="2">
  <advance width="467"/>
  <unicode hex="0053"/>
  <outline>
    <contour>
      <point x="449" y="195" type="curve" smooth="yes"/>
      <point x="447" y="227"/>
      <point x="442" y="254"/>
      <point x="433" y="276" type="curve" smooth="yes"/>
      <point x="423" y="297"/>
      <point x="409" y="316"/>
      <point x="392" y="332" type="curve" smooth="yes"/>
      <point x="376" y="346"/>
      <point x="357" y="360"/>
      <point x="334" y="376" type="curve" smooth="yes"/>
      <point x="310" y="391"/>
      <point x="276" y="411"/>
      <point x="230" y="436" type="curve" smooth="yes"/>
      <point x="216" y="443"/>
      <point x="203" y="451"/>
      <point x="192" y="460" type="curve" smooth="yes"/>
      <point x="180" y="468"/>
      <point x="169" y="476"/>
      <point x="160" y="486" type="curve" smooth="yes"/>
      <point x="151" y="494"/>
      <point x="144" y="503"/>
      <point x="138" y="513" type="curve" smooth="yes"/>
      <point x="132" y="522"/>
      <point x="129" y="533"/>
      <point x="129" y="546" type="curve" smooth="yes"/>
      <point x="129" y="576"/>
      <point x="139" y="599"/>
      <point x="159" y="616" type="curve" smooth="yes"/>
      <point x="179" y="632"/>
      <point x="204" y="641"/>
      <point x="234" y="641" type="curve" smooth="yes"/>
      <point x="262" y="641"/>
      <point x="292" y="636"/>
      <point x="324" y="628" type="curve" smooth="yes"/>
      <point x="355" y="618"/>
      <point x="383" y="607"/>
      <point x="408" y="594" type="curve"/>
      <point x="408" y="699" type="line"/>
      <point x="382" y="707"/>
      <point x="357" y="715"/>
      <point x="333" y="721" type="curve" smooth="yes"/>
      <point x="319" y="724"/>
      <point x="305" y="727"/>
      <point x="289" y="730" type="curve" smooth="yes"/>
      <point x="273" y="732"/>
      <point x="256" y="734"/>
      <point x="240" y="734" type="curve" smooth="yes"/>
      <point x="176" y="734"/>
      <point x="124" y="718"/>
      <point x="84" y="687" type="curve" smooth="yes"/>
      <point x="43" y="655"/>
      <point x="23" y="606"/>
      <point x="23" y="539" type="curve" smooth="yes"/>
      <point x="23" y="509"/>
      <point x="29" y="483"/>
      <point x="43" y="461" type="curve" smooth="yes"/>
      <point x="56" y="437"/>
      <point x="73" y="417"/>
      <point x="95" y="400" type="curve" smooth="yes"/>
      <point x="115" y="383"/>
      <point x="137" y="368"/>
      <point x="161" y="355" type="curve" smooth="yes"/>
      <point x="183" y="341"/>
      <point x="204" y="329"/>
      <point x="224" y="319" type="curve" smooth="yes"/>
      <point x="251" y="305"/>
      <point x="277" y="287"/>
      <point x="301" y="267" type="curve" smooth="yes"/>
      <point x="311" y="257"/>
      <point x="321" y="246"/>
      <point x="329" y="233" type="curve" smooth="yes"/>
      <point x="337" y="219"/>
      <point x="341" y="202"/>
      <point x="341" y="183" type="curve" smooth="yes"/>
      <point x="341" y="162"/>
      <point x="336" y="145"/>
      <point x="328" y="132" type="curve" smooth="yes"/>
      <point x="319" y="118"/>
      <point x="309" y="108"/>
      <point x="298" y="101" type="curve" smooth="yes"/>
      <point x="285" y="91"/>
      <point x="271" y="85"/>
      <point x="256" y="82" type="curve" smooth="yes"/>
      <point x="240" y="78"/>
      <point x="224" y="77"/>
      <point x="207" y="77" type="curve" smooth="yes"/>
      <point x="191" y="77"/>
      <point x="174" y="79"/>
      <point x="157" y="83" type="curve" smooth="yes"/>
      <point x="139" y="86"/>
      <point x="123" y="90"/>
      <point x="110" y="94" type="curve" smooth="yes"/>
      <point x="86" y="101"/>
      <point x="59" y="111"/>
      <point x="29" y="125" type="curve"/>
      <point x="29" y="14" type="line"/>
      <point x="55" y="5"/>
      <point x="82" y="-2"/>
      <point x="112" y="-9" type="curve" smooth="yes"/>
      <point x="141" y="-15"/>
      <point x="170" y="-19"/>
      <point x="199" y="-19" type="curve" smooth="yes"/>
      <point x="275" y="-19"/>
      <point x="335" y="-1"/>
      <point x="381" y="34" type="curve" smooth="yes"/>
      <point x="426" y="68"/>
      <point x="449" y="122"/>
    </contour>
  </outline>
</glyph>
<glyph name="T" format="2">
	<unicode hex="0054"/>
	<advance width="551"/>
	<outline>
		<contour>
			<point x="518" y="624" type="line"/>
			<point x="518" y="721" type="line"/>
			<point x="12" y="721" type="line"/>
			<point x="12" y="624" type="line"/>
			<point x="212" y="624" type="line"/>
			<point x="212" y="-8" type="line"/>
			<point x="318" y="-8" type="line"/>
			<point x="318" y="624" type="line"/>
		</contour>
	</outline>
</glyph>
<glyph name="U" format="2">
	<unicode hex="0055"/>
	<advance width="591"/>
	<outline>
		<contour>
			<point x="295" y="78" type="curve" smooth="yes"/>
			<point x="269" y="78"/>
			<point x="248" y="83"/>
			<point x="231" y="94" type="curve" smooth="yes"/>
			<point x="213" y="104"/>
			<point x="199" y="117"/>
			<point x="189" y="134" type="curve" smooth="yes"/>
			<point x="179" y="154"/>
			<point x="171" y="175"/>
			<point x="167" y="199" type="curve" smooth="yes"/>
			<point x="162" y="221"/>
			<point x="160" y="246"/>
			<point x="160" y="273" type="curve" smooth="yes"/>
			<point x="160" y="721" type="line"/>
			<point x="54" y="721" type="line"/>
			<point x="54" y="268" type="line" smooth="yes"/>
			<point x="54" y="238"/>
			<point x="56" y="206"/>
			<point x="62" y="173" type="curve" smooth="yes"/>
			<point x="67" y="139"/>
			<point x="79" y="108"/>
			<point x="97" y="80" type="curve" smooth="yes"/>
			<point x="115" y="51"/>
			<point x="140" y="27"/>
			<point x="173" y="9" type="curve" smooth="yes"/>
			<point x="205" y="-9"/>
			<point x="245" y="-19"/>
			<point x="295" y="-19" type="curve" smooth="yes"/>
			<point x="344" y="-19"/>
			<point x="385" y="-9"/>
			<point x="418" y="9" type="curve" smooth="yes"/>
			<point x="450" y="27"/>
			<point x="475" y="51"/>
			<point x="493" y="80" type="curve" smooth="yes"/>
			<point x="511" y="108"/>
			<point x="523" y="138"/>
			<point x="529" y="172" type="curve" smooth="yes"/>
			<point x="534" y="205"/>
			<point x="537" y="237"/>
			<point x="537" y="268" type="curve" smooth="yes"/>
			<point x="537" y="721" type="line"/>
			<point x="431" y="721" type="line"/>
			<point x="431" y="273" type="line" smooth="yes"/>
			<point x="431" y="246"/>
			<point x="428" y="221"/>
			<point x="424" y="199" type="curve" smooth="yes"/>
			<point x="418" y="175"/>
			<point x="411" y="154"/>
			<point x="401" y="134" type="curve" smooth="yes"/>
			<point x="391" y="117"/>
			<point x="377" y="103"/>
			<point x="359" y="93" type="curve" smooth="yes"/>
			<point x="341" y="81"/>
			<point x="319" y="76"/>
		</contour>
	</outline>
</glyph>
<glyph name="V" format="2">
	<unicode hex="0056"/>
	<advance width="598"/>
	<outline>
		<contour>
			<point x="563" y="721" type="line"/>
			<point x="454" y="721" type="line"/>
			<point x="283" y="152" type="line"/>
			<point x="109" y="721" type="line"/>
			<point x="2" y="721" type="line"/>
			<point x="229" y="-8" type="line"/>
			<point x="335" y="-8" type="line"/>
		</contour>
	</outline>
</glyph>
<glyph name="W" format="2">
	<unicode hex="0057"/>
	<advance width="767"/>
	<outline>
		<contour>
			<point x="758" y="721" type="line"/>
			<point x="656" y="721" type="line"/>
			<point x="566" y="181" type="line"/>
			<point x="434" y="721" type="line"/>
			<point x="333" y="721" type="line"/>
			<point x="201" y="181" type="line"/>
			<point x="111" y="721" type="line"/>
			<point x="9" y="721" type="line"/>
			<point x="139" y="-8" type="line"/>
			<point x="251" y="-8" type="line"/>
			<point x="384" y="540" type="line"/>
			<point x="516" y="-8" type="line"/>
			<point x="628" y="-8" type="line"/>
		</contour>
	</outline>
</glyph>
<glyph name="X" format="2">
  <advance width="540"/>
  <unicode hex="0058"/>
  <outline>
    <contour>
      <point x="542" y="-8" type="line"/>
      <point x="328" y="373" type="line"/>
      <point x="522" y="721" type="line"/>
      <point x="405" y="721" type="line"/>
      <point x="270" y="477" type="line"/>
      <point x="134" y="721" type="line"/>
      <point x="17" y="721" type="line"/>
      <point x="212" y="373" type="line"/>
      <point x="0" y="-8" type="line"/>
      <point x="114" y="-8" type="line"/>
      <point x="269" y="270" type="line"/>
      <point x="425" y="-8" type="line"/>
    </contour>
  </outline>
</glyph>
<glyph name="Y" format="2">
	<unicode hex="0059"/>
	<advance width="561"/>
	<outline>
		<contour>
			<point x="269" y="431" type="line"/>
			<point x="118" y="721" type="line"/>
			<point x="2" y="721" type="line"/>
			<point x="217" y="323" type="line"/>
			<point x="217" y="-8" type="line"/>
			<point x="323" y="-8" type="line"/>
			<point x="323" y="323" type="line"/>
			<point x="538" y="721" type="line"/>
			<point x="421" y="721" type="line"/>
		</contour>
	</outline>
</glyph>
<glyph name="Z" format="2">
	<unicode hex="005A"/>
	<advance width="500"/>
	<outline>
		<contour>
			<point x="492" y="-8" type="line"/>
			<point x="492" y="89" type="line"/>
			<point x="143" y="89" type="line"/>
			<point x="471" y="632" type="line"/>
			<point x="471" y="721" type="line"/>
			<point x="34" y="721" type="line"/>
			<point x="34" y="624" type="line"/>
			<point x="346" y="624" type="line"/>
			<point x="19" y="79" type="line"/>
			<point x="19" y="-8" type="line"/>
		</contour>
	</outline>
</glyph>
<glyph name="bracketleft" format="2">
	<unicode hex="005B"/>
	<advance width="318"/>
	<outline>
		<contour>
			<point x="296" y="-147" type="line"/>
			<point x="296" y="-59" type="line"/>
			<point x="199" y="-59" type="line"/>
			<point x="199" y="718" type="line"/>
			<point x="296" y="718" type="line"/>
			<point x="296" y="806" type="line"/>
			<point x="96" y="806" type="line"/>
			<point x="96" y="-147" type="line"/>
		</contour>
	</outline>
</glyph>
<glyph name="bracketright" format="2">
	<unicode hex="005D"/>
	<advance width="318"/>
	<outline>
		<contour>
			<point x="223" y="-147" type="line"/>
			<point x="223" y="806" type="line"/>
			<point x="22" y="806" type="line"/>
			<point x="22" y="718" type="line"/>
			<point x="119" y="718" type="line"/>
			<point x="119" y="-59" type="line"/>
			<point x="22" y="-59" type="line"/>
			<point x="22" y="-147" type="line"/>
		</contour>
	</outline>
</glyph>
<glyph name="asciicircum" format="2">
	<unicode hex="005E"/>
	<advance width="447"/>
	<outline>
		<contour>
			<point x="168" y="742" type="line"/>
			<point x="21" y="484" type="line"/>
			<point x="127" y="484" type="line"/>
			<point x="213" y="637" type="line"/>
			<point x="296" y="484" type="line"/>
			<point x="403" y="484" type="line"/>
			<point x="257" y="742" type="line"/>
		</contour>
	</outline>
</glyph>
<glyph name="underscore" format="2">
	<unicode hex="005F"/>
	<advance width="450"/>
	<outline>
		<contour>
			<point x="449" y="-123" type="line"/>
			<point x="449" y="-43" type="line"/>
			<point x="2" y="-43" type="line"/>
			<point x="2" y="-123" type="line"/>
		</contour>
	</outline>
</glyph>
<glyph name="grave" format="2">
	<unicode hex="0060"/>
	<advance width="289"/>
	<outline>
		<contour>
			<point x="215" y="529" type="line"/>
			<point x="150" y="727" type="line"/>
			<point x="30" y="727" type="line"/>
			<point x="122" y="529" type="line"/>
		</contour>
	</outline>
</glyph>
<glyph name="a" format="2">
  <advance width="472"/>
  <unicode hex="0061"/>
  <outline>
    <contour>
      <point x="424" y="-8" type="line"/>
      <point x="424" y="346" type="line" smooth="yes"/>
      <point x="424" y="394"/>
      <point x="407" y="436"/>
      <point x="375" y="472" type="curve" smooth="yes"/>
      <point x="341" y="506"/>
      <point x="293" y="524"/>
      <point x="231" y="524" type="curve" smooth="yes"/>
      <point x="201" y="524"/>
      <point x="173" y="519"/>
      <point x="147" y="510" type="curve" smooth="yes"/>
      <point x="121" y="500"/>
      <point x="100" y="488"/>
      <point x="84" y="474" type="curve" smooth="yes"/>
      <point x="67" y="459"/>
      <point x="55" y="443"/>
      <point x="48" y="425" type="curve" smooth="yes"/>
      <point x="40" y="407"/>
      <point x="36" y="383"/>
      <point x="36" y="355" type="curve"/>
      <point x="150" y="355" type="line"/>
      <point x="150" y="383"/>
      <point x="158" y="404"/>
      <point x="174" y="417" type="curve" smooth="yes"/>
      <point x="190" y="429"/>
      <point x="209" y="435"/>
      <point x="231" y="435" type="curve" smooth="yes"/>
      <point x="249" y="435"/>
      <point x="264" y="431"/>
      <point x="277" y="425" type="curve" smooth="yes"/>
      <point x="289" y="418"/>
      <point x="298" y="410"/>
      <point x="304" y="400" type="curve" smooth="yes"/>
      <point x="310" y="390"/>
      <point x="314" y="380"/>
      <point x="317" y="368" type="curve" smooth="yes"/>
      <point x="319" y="356"/>
      <point x="320" y="347"/>
      <point x="320" y="342" type="curve" smooth="yes"/>
      <point x="320" y="308" type="line"/>
      <point x="253" y="308" type="line" smooth="yes"/>
      <point x="237" y="308"/>
      <point x="219" y="306"/>
      <point x="197" y="303" type="curve" smooth="yes"/>
      <point x="175" y="299"/>
      <point x="154" y="294"/>
      <point x="134" y="287" type="curve" smooth="yes"/>
      <point x="103" y="276"/>
      <point x="77" y="256"/>
      <point x="56" y="228" type="curve" smooth="yes"/>
      <point x="34" y="198"/>
      <point x="24" y="164"/>
      <point x="24" y="124" type="curve" smooth="yes"/>
      <point x="24" y="102"/>
      <point x="27" y="82"/>
      <point x="35" y="65" type="curve" smooth="yes"/>
      <point x="42" y="47"/>
      <point x="53" y="31"/>
      <point x="67" y="19" type="curve" smooth="yes"/>
      <point x="79" y="7"/>
      <point x="95" y="-2"/>
      <point x="113" y="-9" type="curve" smooth="yes"/>
      <point x="131" y="-15"/>
      <point x="146" y="-19"/>
      <point x="159" y="-19" type="curve" smooth="yes"/>
      <point x="187" y="-19"/>
      <point x="211" y="-16"/>
      <point x="233" y="-12" type="curve" smooth="yes"/>
      <point x="253" y="-6"/>
      <point x="272" y="1"/>
      <point x="288" y="12" type="curve" smooth="yes"/>
      <point x="301" y="20"/>
      <point x="312" y="29"/>
      <point x="320" y="38" type="curve"/>
      <point x="320" y="-8" type="line"/>
    </contour>
    <contour>
      <point x="320" y="187" type="line" smooth="yes"/>
      <point x="320" y="169"/>
      <point x="317" y="155"/>
      <point x="312" y="145" type="curve" smooth="yes"/>
      <point x="300" y="123"/>
      <point x="283" y="105"/>
      <point x="261" y="91" type="curve" smooth="yes"/>
      <point x="250" y="83"/>
      <point x="238" y="78"/>
      <point x="225" y="75" type="curve" smooth="yes"/>
      <point x="211" y="71"/>
      <point x="200" y="70"/>
      <point x="193" y="70" type="curve" smooth="yes"/>
      <point x="175" y="70"/>
      <point x="160" y="75"/>
      <point x="148" y="85" type="curve" smooth="yes"/>
      <point x="136" y="94"/>
      <point x="130" y="110"/>
      <point x="130" y="134" type="curve" smooth="yes"/>
      <point x="130" y="156"/>
      <point x="139" y="175"/>
      <point x="159" y="191" type="curve" smooth="yes"/>
      <point x="176" y="203"/>
      <point x="196" y="212"/>
      <point x="218" y="216" type="curve" smooth="yes"/>
      <point x="245" y="220"/>
      <point x="268" y="223"/>
      <point x="286" y="224" type="curve" smooth="yes"/>
      <point x="304" y="224"/>
      <point x="315" y="224"/>
      <point x="320" y="224" type="curve"/>
    </contour>
  </outline>
</glyph>
<glyph name="b" format="2">
	<unicode hex="0062"/>
	<advance width="500"/>
	<outline>
		<contour>
			<point x="370" y="252" type="curve" smooth="yes"/>
			<point x="370" y="166.795"/>
			<point x="342.296" y="70"/>
			<point x="261" y="70" type="curve" smooth="yes"/>
			<point x="180.047" y="70"/>
			<point x="153" y="169.089"/>
			<point x="153" y="252" type="curve" smooth="yes"/>
			<point x="153" y="330.416"/>
			<point x="184.623" y="434"/>
			<point x="261" y="434" type="curve" smooth="yes"/>
			<point x="342.047" y="434"/>
			<point x="370" y="336.277"/>
		</contour>
		<contour>
			<point x="262" y="-19" type="curve" smooth="yes"/>
			<point x="416.812" y="-19"/>
			<point x="476" y="98.3337"/>
			<point x="476" y="257" type="curve" smooth="yes"/>
			<point x="476" y="402.146"/>
			<point x="411.968" y="524"/>
			<point x="267" y="524" type="curve" smooth="yes"/>
			<point x="221" y="524"/>
			<point x="182" y="504"/>
			<point x="152" y="466" type="curve"/>
			<point x="152" y="721" type="line"/>
			<point x="49" y="721" type="line"/>
			<point x="49" y="257" type="line" smooth="yes"/>
			<point x="49" y="99.8074"/>
			<point x="106.677" y="-19"/>
		</contour>
	</outline>
</glyph>
<glyph name="c" format="2">
	<unicode hex="0063"/>
	<advance width="472"/>
	<outline>
		<contour>
			<point x="444" y="330" type="line"/>
			<point x="444" y="451.727"/>
			<point x="370.116" y="524"/>
			<point x="252" y="524" type="curve" smooth="yes"/>
			<point x="100.386" y="524"/>
			<point x="24" y="413.56"/>
			<point x="24" y="263" type="curve" smooth="yes"/>
			<point x="24" y="96.1257"/>
			<point x="110.283" y="-19.6875"/>
			<point x="275.928" y="-19.6875" type="curve" smooth="yes"/>
			<point x="340.954" y="-19.6875"/>
			<point x="382.712" y="-7.55486"/>
			<point x="430" y="22" type="curve"/>
			<point x="430" y="114" type="line"/>
			<point x="374.433" y="81.8296"/>
			<point x="348.484" y="71"/>
			<point x="291" y="71" type="curve" smooth="yes"/>
			<point x="180.96" y="71"/>
			<point x="132" y="155.276"/>
			<point x="132" y="262" type="curve" smooth="yes"/>
			<point x="132" y="351.284"/>
			<point x="169.592" y="435"/>
			<point x="250" y="435" type="curve" smooth="yes"/>
			<point x="309.208" y="435"/>
			<point x="335" y="390.385"/>
			<point x="335" y="330" type="curve"/>
		</contour>
	</outline>
</glyph>
<glyph name="d" format="2">
	<unicode hex="0064"/>
	<advance width="500"/>
	<outline>
		<contour>
			<point x="24" y="257" type="curve" smooth="yes"/>
			<point x="24" y="109.01"/>
			<point x="85.28" y="-19"/>
			<point x="229" y="-19" type="curve" smooth="yes"/>
			<point x="283.829" y="-19"/>
			<point x="325.302" y="6.49254"/>
			<point x="348" y="36" type="curve"/>
			<point x="348" y="-8" type="line"/>
			<point x="451" y="-8" type="line"/>
			<point x="451" y="721" type="line"/>
			<point x="348" y="721" type="line"/>
			<point x="348" y="466" type="line"/>
			<point x="319" y="504"/>
			<point x="281" y="524"/>
			<point x="233" y="524" type="curve" smooth="yes"/>
			<point x="91.0121" y="524"/>
			<point x="24" y="398.051"/>
		</contour>
		<contour>
			<point x="130" y="252" type="curve" smooth="yes"/>
			<point x="130" y="332.201"/>
			<point x="161.358" y="434"/>
			<point x="239" y="434" type="curve" smooth="yes"/>
			<point x="314.262" y="434"/>
			<point x="347" y="330.401"/>
			<point x="347" y="252" type="curve" smooth="yes"/>
			<point x="347" y="171.333"/>
			<point x="314.632" y="70"/>
			<point x="239" y="70" type="curve" smooth="yes"/>
			<point x="161.048" y="70"/>
			<point x="130" y="170.351"/>
		</contour>
	</outline>
</glyph>
<glyph name="e" format="2">
	<unicode hex="0065"/>
	<advance width="499"/>
	<outline>
		<contour>
			<point x="444" y="330" type="line" smooth="yes"/>
			<point x="444" y="451.727"/>
			<point x="370.116" y="524"/>
			<point x="252" y="524" type="curve" smooth="yes"/>
			<point x="100.386" y="524"/>
			<point x="24" y="413.56"/>
			<point x="24" y="263" type="curve" smooth="yes"/>
			<point x="24" y="96.1257"/>
			<point x="110.283" y="-19.6875"/>
			<point x="275.928" y="-19.6875" type="curve" smooth="yes"/>
			<point x="340.954" y="-19.6875"/>
			<point x="382.712" y="-7.55486"/>
			<point x="430" y="22" type="curve"/>
			<point x="430" y="114" type="line"/>
			<point x="374.433" y="81.8296"/>
			<point x="348.484" y="71"/>
			<point x="291" y="71" type="curve" smooth="yes"/>
			<point x="181.287" y="71"/>
			<point x="146.516" y="146.388"/>
			<point x="133" y="241" type="curve"/>
			<point x="444" y="241" type="line"/>
		</contour>
		<contour>
			<point x="139" y="330" type="line"/>
			<point x="152.639" y="384.556"/>
			<point x="192.743" y="435"/>
			<point x="250" y="435" type="curve" smooth="yes"/>
			<point x="309.208" y="435"/>
			<point x="335" y="390.385"/>
			<point x="335" y="330" type="curve"/>
		</contour>
	</outline>
</glyph>
<glyph name="f" format="2">
	<unicode hex="0066"/>
	<advance width="350"/>
	<outline>
		<contour>
			<point x="361" y="627" type="curve"/>
			<point x="361" y="721" type="line"/>
			<point x="341" y="724"/>
			<point x="324" y="727"/>
			<point x="310" y="730" type="curve" smooth="yes"/>
			<point x="294" y="732"/>
			<point x="277" y="734"/>
			<point x="259" y="734" type="curve" smooth="yes"/>
			<point x="219" y="733"/>
			<point x="189" y="726"/>
			<point x="167" y="714" type="curve" smooth="yes"/>
			<point x="145" y="700"/>
			<point x="128" y="684"/>
			<point x="116" y="665" type="curve" smooth="yes"/>
			<point x="104" y="643"/>
			<point x="97" y="621"/>
			<point x="95" y="598" type="curve" smooth="yes"/>
			<point x="92" y="574"/>
			<point x="91" y="553"/>
			<point x="91" y="535" type="curve" smooth="yes"/>
			<point x="91" y="512" type="line"/>
			<point x="11" y="512" type="line"/>
			<point x="11" y="423" type="line"/>
			<point x="91" y="423" type="line"/>
			<point x="91" y="-8" type="line"/>
			<point x="197" y="-8" type="line"/>
			<point x="197" y="423" type="line"/>
			<point x="328" y="423" type="line"/>
			<point x="328" y="512" type="line"/>
			<point x="197" y="512" type="line"/>
			<point x="197" y="551" type="line" smooth="yes"/>
			<point x="197" y="564"/>
			<point x="198" y="576"/>
			<point x="200" y="588" type="curve" smooth="yes"/>
			<point x="201" y="598"/>
			<point x="204" y="608"/>
			<point x="208" y="616" type="curve" smooth="yes"/>
			<point x="214" y="627"/>
			<point x="222" y="635"/>
			<point x="230" y="639" type="curve" smooth="yes"/>
			<point x="237" y="643"/>
			<point x="248" y="645"/>
			<point x="263" y="645" type="curve" smooth="yes"/>
			<point x="277" y="645"/>
			<point x="290" y="643"/>
			<point x="303" y="641" type="curve" smooth="yes"/>
			<point x="315" y="638"/>
			<point x="335" y="633"/>
		</contour>
	</outline>
</glyph>
<glyph name="g" format="2">
	<unicode hex="0067"/>
	<advance width="500"/>
	<outline>
		<contour>
			<point x="129" y="262" type="curve" smooth="yes"/>
			<point x="129" y="338.278"/>
			<point x="163.257" y="434"/>
			<point x="238" y="434" type="curve" smooth="yes"/>
			<point x="310.961" y="434"/>
			<point x="347" y="338.778"/>
			<point x="347" y="262" type="curve" smooth="yes"/>
			<point x="347" y="183.664"/>
			<point x="311.336" y="90"/>
			<point x="238" y="90" type="curve" smooth="yes"/>
			<point x="164.251" y="90"/>
			<point x="129" y="184.402"/>
		</contour>
		<contour>
			<point x="451" y="54" type="curve"/>
			<point x="451" y="512" type="line"/>
			<point x="348" y="512" type="line"/>
			<point x="348" y="465" type="line"/>
			<point x="320" y="504"/>
			<point x="281" y="524"/>
			<point x="233" y="524" type="curve" smooth="yes"/>
			<point x="95.097" y="524"/>
			<point x="23" y="403.408"/>
			<point x="23" y="267" type="curve" smooth="yes"/>
			<point x="23" y="123.039"/>
			<point x="88.4033" y="1"/>
			<point x="228" y="1" type="curve" smooth="yes"/>
			<point x="273.174" y="1"/>
			<point x="334.351" y="29.7027"/>
			<point x="348" y="57" type="curve"/>
			<point x="348" y="-35.4206"/>
			<point x="314.368" y="-71"/>
			<point x="221" y="-71" type="curve" smooth="yes"/>
			<point x="153.723" y="-71"/>
			<point x="110.415" y="-55.59"/>
			<point x="58" y="-27" type="curve"/>
			<point x="58" y="-137" type="line"/>
			<point x="96.1031" y="-154.32"/>
			<point x="159.002" y="-166"/>
			<point x="214" y="-166" type="curve" smooth="yes"/>
			<point x="368.383" y="-166"/>
			<point x="445.198" y="-102.666"/>
		</contour>
	</outline>
</glyph>
<glyph name="h" format="2">
	<unicode hex="0068"/>
	<advance width="500"/>
	<outline>
		<contour>
			<point x="451" y="-8" type="line"/>
			<point x="451" y="338" type="line" smooth="yes"/>
			<point x="451" y="454.529"/>
			<point x="389.002" y="524"/>
			<point x="273" y="524" type="curve" smooth="yes"/>
			<point x="218.89" y="524"/>
			<point x="173.448" y="490.198"/>
			<point x="152" y="459" type="curve"/>
			<point x="152" y="721" type="line"/>
			<point x="49" y="721" type="line"/>
			<point x="49" y="-8" type="line"/>
			<point x="152" y="-8" type="line"/>
			<point x="152" y="220" type="line" smooth="yes"/>
			<point x="152" y="312.656"/>
			<point x="185.002" y="430"/>
			<point x="268" y="430" type="curve" smooth="yes"/>
			<point x="328.456" y="430"/>
			<point x="347" y="378.955"/>
			<point x="347" y="320" type="curve" smooth="yes"/>
			<point x="347" y="-8" type="line"/>
		</contour>
	</outline>
</glyph>
<glyph name="i" format="2">
	<unicode hex="0069"/>
	<advance width="212"/>
	<outline>
		<contour>
			<point x="165" y="595" type="line"/>
			<point x="165" y="721" type="line"/>
			<point x="45" y="721" type="line"/>
			<point x="45" y="595" type="line"/>
		</contour>
		<contour>
			<point x="159" y="-8" type="line"/>
			<point x="159" y="512" type="line"/>
			<point x="53" y="512" type="line"/>
			<point x="53" y="-8" type="line"/>
		</contour>
	</outline>
</glyph>
<glyph name="j" format="2">
	<unicode hex="006A"/>
	<advance width="247"/>
	<outline>
		<contour>
			<point x="197" y="595" type="line"/>
			<point x="197" y="721" type="line"/>
			<point x="77" y="721" type="line"/>
			<point x="77" y="595" type="line"/>
		</contour>
		<contour>
			<point x="189" y="16" type="line"/>
			<point x="189" y="512" type="line"/>
			<point x="85" y="512" type="line"/>
			<point x="85" y="22" type="line" smooth="yes"/>
			<point x="85" y="-53.6748"/>
			<point x="56.608" y="-70.2311"/>
			<point x="-19.2695" y="-70.2311" type="curve" smooth="yes"/>
			<point x="-24.609" y="-70.2311"/>
			<point x="-30.1836" y="-70.1491"/>
			<point x="-36" y="-70" type="curve"/>
			<point x="-36" y="-166" type="line"/>
			<point x="114.093" y="-166"/>
			<point x="179.558" y="-127.507"/>
			<point x="188" y="16" type="curve"/>
		</contour>
	</outline>
</glyph>
<glyph name="k" format="2">
	<unicode hex="006B"/>
	<advance width="478"/>
	<outline>
		<contour>
			<point x="469" y="-8" type="line"/>
			<point x="224" y="278" type="line"/>
			<point x="467" y="512" type="line"/>
			<point x="329" y="512" type="line"/>
			<point x="152" y="335" type="line"/>
			<point x="152" y="721" type="line"/>
			<point x="49" y="721" type="line"/>
			<point x="49" y="-8" type="line"/>
			<point x="152" y="-8" type="line"/>
			<point x="152" y="207" type="line"/>
			<point x="338" y="-8" type="line"/>
		</contour>
	</outline>
</glyph>
<glyph name="l" format="2">
	<unicode hex="006C"/>
	<advance width="212"/>
	<outline>
		<contour>
			<point x="159" y="-8" type="line"/>
			<point x="159" y="721" type="line"/>
			<point x="53" y="721" type="line"/>
			<point x="53" y="-8" type="line"/>
		</contour>
	</outline>
</glyph>
<glyph name="m" format="2">
	<unicode hex="006D"/>
	<advance width="716"/>
	<outline>
		<contour>
			<point x="667" y="-8" type="line"/>
			<point x="667" y="333" type="line" smooth="yes"/>
			<point x="667" y="397"/>
			<point x="652" y="445"/>
			<point x="623" y="477" type="curve" smooth="yes"/>
			<point x="593" y="508"/>
			<point x="557" y="524"/>
			<point x="513" y="524" type="curve" smooth="yes"/>
			<point x="467" y="524"/>
			<point x="431" y="507"/>
			<point x="405" y="473" type="curve" smooth="yes"/>
			<point x="397" y="462"/>
			<point x="390" y="452"/>
			<point x="385" y="443" type="curve"/>
			<point x="375" y="461"/>
			<point x="365" y="476"/>
			<point x="354" y="487" type="curve" smooth="yes"/>
			<point x="328" y="511"/>
			<point x="294" y="524"/>
			<point x="252" y="524" type="curve" smooth="yes"/>
			<point x="230" y="524"/>
			<point x="211" y="517"/>
			<point x="193" y="505" type="curve" smooth="yes"/>
			<point x="174" y="491"/>
			<point x="160" y="478"/>
			<point x="150" y="464" type="curve"/>
			<point x="150" y="512" type="line"/>
			<point x="49" y="512" type="line"/>
			<point x="49" y="-8" type="line"/>
			<point x="150" y="-8" type="line"/>
			<point x="150" y="218" type="line" smooth="yes"/>
			<point x="150" y="244"/>
			<point x="153" y="269"/>
			<point x="157" y="293" type="curve" smooth="yes"/>
			<point x="160" y="316"/>
			<point x="166" y="338"/>
			<point x="174" y="360" type="curve" smooth="yes"/>
			<point x="182" y="382"/>
			<point x="193" y="398"/>
			<point x="205" y="409" type="curve" smooth="yes"/>
			<point x="216" y="419"/>
			<point x="229" y="424"/>
			<point x="244" y="424" type="curve" smooth="yes"/>
			<point x="258" y="424"/>
			<point x="269" y="421"/>
			<point x="277" y="416" type="curve" smooth="yes"/>
			<point x="285" y="410"/>
			<point x="291" y="401"/>
			<point x="297" y="389" type="curve" smooth="yes"/>
			<point x="301" y="376"/>
			<point x="305" y="360"/>
			<point x="307" y="342" type="curve" smooth="yes"/>
			<point x="308" y="323"/>
			<point x="309" y="304"/>
			<point x="309" y="286" type="curve" smooth="yes"/>
			<point x="309" y="-8" type="line"/>
			<point x="407" y="-8" type="line"/>
			<point x="407" y="216" type="line" smooth="yes"/>
			<point x="407" y="228"/>
			<point x="407" y="240"/>
			<point x="408" y="252" type="curve" smooth="yes"/>
			<point x="408" y="262"/>
			<point x="410" y="275"/>
			<point x="412" y="289" type="curve" smooth="yes"/>
			<point x="418" y="332"/>
			<point x="429" y="365"/>
			<point x="447" y="389" type="curve" smooth="yes"/>
			<point x="463" y="412"/>
			<point x="482" y="424"/>
			<point x="504" y="424" type="curve" smooth="yes"/>
			<point x="516" y="424"/>
			<point x="526" y="421"/>
			<point x="535" y="416" type="curve" smooth="yes"/>
			<point x="543" y="410"/>
			<point x="549" y="401"/>
			<point x="555" y="389" type="curve" smooth="yes"/>
			<point x="559" y="378"/>
			<point x="562" y="363"/>
			<point x="564" y="344" type="curve" smooth="yes"/>
			<point x="565" y="324"/>
			<point x="566" y="304"/>
			<point x="566" y="286" type="curve" smooth="yes"/>
			<point x="566" y="-8" type="line"/>
		</contour>
	</outline>
</glyph>
<glyph name="n" format="2">
	<unicode hex="006E"/>
	<advance width="520"/>
	<outline>
		<contour>
			<point x="451" y="-8" type="line"/>
			<point x="451" y="338" type="line" smooth="yes"/>
			<point x="451" y="454.529"/>
			<point x="389.002" y="524"/>
			<point x="273" y="524" type="curve" smooth="yes"/>
			<point x="218.89" y="524"/>
			<point x="173.448" y="490.198"/>
			<point x="152" y="459" type="curve"/>
			<point x="152" y="512" type="line"/>
			<point x="49" y="512" type="line"/>
			<point x="49" y="-8" type="line"/>
			<point x="152" y="-8" type="line"/>
			<point x="152" y="220" type="line" smooth="yes"/>
			<point x="152" y="312.656"/>
			<point x="185.002" y="430"/>
			<point x="268" y="430" type="curve" smooth="yes"/>
			<point x="328.456" y="430"/>
			<point x="347" y="378.955"/>
			<point x="347" y="320" type="curve" smooth="yes"/>
			<point x="347" y="-8" type="line"/>
		</contour>
	</outline>
</glyph>
<glyph name="o" format="2">
	<unicode hex="006F"/>
	<advance width="500"/>
	<outline>
		<contour>
			<point x="368" y="252" type="curve" smooth="yes"/>
			<point x="368" y="226"/>
			<point x="365" y="202"/>
			<point x="360" y="178" type="curve" smooth="yes"/>
			<point x="354" y="153"/>
			<point x="345" y="133"/>
			<point x="334" y="117" type="curve" smooth="yes"/>
			<point x="323" y="100"/>
			<point x="310" y="88"/>
			<point x="296" y="81" type="curve" smooth="yes"/>
			<point x="280" y="73"/>
			<point x="265" y="69"/>
			<point x="250" y="69" type="curve" smooth="yes"/>
			<point x="234" y="69"/>
			<point x="219" y="73"/>
			<point x="205" y="81" type="curve" smooth="yes"/>
			<point x="189" y="88"/>
			<point x="176" y="100"/>
			<point x="165" y="117" type="curve" smooth="yes"/>
			<point x="154" y="133"/>
			<point x="146" y="153"/>
			<point x="141" y="178" type="curve" smooth="yes"/>
			<point x="135" y="202"/>
			<point x="132" y="226"/>
			<point x="132" y="252" type="curve" smooth="yes"/>
			<point x="132" y="277"/>
			<point x="135" y="302"/>
			<point x="141" y="327" type="curve" smooth="yes"/>
			<point x="146" y="351"/>
			<point x="154" y="372"/>
			<point x="165" y="388" type="curve" smooth="yes"/>
			<point x="176" y="404"/>
			<point x="189" y="417"/>
			<point x="205" y="425" type="curve" smooth="yes"/>
			<point x="219" y="432"/>
			<point x="234" y="436"/>
			<point x="250" y="436" type="curve" smooth="yes"/>
			<point x="265" y="436"/>
			<point x="280" y="432"/>
			<point x="296" y="425" type="curve" smooth="yes"/>
			<point x="310" y="417"/>
			<point x="323" y="404"/>
			<point x="334" y="388" type="curve" smooth="yes"/>
			<point x="345" y="372"/>
			<point x="354" y="351"/>
			<point x="360" y="327" type="curve" smooth="yes"/>
			<point x="365" y="302"/>
			<point x="368" y="277"/>
		</contour>
		<contour>
			<point x="476" y="252" type="curve" smooth="yes"/>
			<point x="476" y="288"/>
			<point x="470" y="324"/>
			<point x="460" y="358" type="curve" smooth="yes"/>
			<point x="449" y="392"/>
			<point x="434" y="421"/>
			<point x="415" y="446" type="curve" smooth="yes"/>
			<point x="394" y="472"/>
			<point x="369" y="491"/>
			<point x="341" y="505" type="curve" smooth="yes"/>
			<point x="311" y="517"/>
			<point x="281" y="524"/>
			<point x="250" y="524" type="curve" smooth="yes"/>
			<point x="218" y="524"/>
			<point x="188" y="517"/>
			<point x="160" y="505" type="curve" smooth="yes"/>
			<point x="130" y="491"/>
			<point x="105" y="472"/>
			<point x="85" y="446" type="curve" smooth="yes"/>
			<point x="65" y="421"/>
			<point x="50" y="392"/>
			<point x="40" y="358" type="curve" smooth="yes"/>
			<point x="29" y="324"/>
			<point x="24" y="288"/>
			<point x="24" y="252" type="curve" smooth="yes"/>
			<point x="24" y="215"/>
			<point x="29" y="180"/>
			<point x="40" y="146" type="curve" smooth="yes"/>
			<point x="50" y="112"/>
			<point x="65" y="82"/>
			<point x="85" y="58" type="curve" smooth="yes"/>
			<point x="105" y="32"/>
			<point x="130" y="13"/>
			<point x="160" y="1" type="curve" smooth="yes"/>
			<point x="188" y="-12"/>
			<point x="218" y="-19"/>
			<point x="250" y="-19" type="curve" smooth="yes"/>
			<point x="281" y="-19"/>
			<point x="311" y="-12"/>
			<point x="341" y="1" type="curve" smooth="yes"/>
			<point x="369" y="13"/>
			<point x="394" y="32"/>
			<point x="415" y="58" type="curve" smooth="yes"/>
			<point x="434" y="82"/>
			<point x="449" y="112"/>
			<point x="460" y="146" type="curve" smooth="yes"/>
			<point x="470" y="180"/>
			<point x="476" y="215"/>
		</contour>
	</outline>
</glyph>
<glyph name="p" format="2">
	<unicode hex="0070"/>
	<advance width="530"/>
	<outline>
		<contour>
			<point x="476" y="259" type="curve" smooth="yes"/>
			<point x="476" y="399.251"/>
			<point x="407.278" y="524"/>
			<point x="267" y="524" type="curve" smooth="yes"/>
			<point x="221" y="524"/>
			<point x="183" y="504"/>
			<point x="152" y="465" type="curve"/>
			<point x="152" y="512" type="line"/>
			<point x="49" y="512" type="line"/>
			<point x="49" y="-166" type="line"/>
			<point x="152" y="-166" type="line"/>
			<point x="152" y="38" type="line"/>
			<point x="184" y="2"/>
			<point x="223" y="-15"/>
			<point x="271" y="-15" type="curve" smooth="yes"/>
			<point x="412.858" y="-15"/>
			<point x="476" y="112.005"/>
		</contour>
		<contour>
			<point x="370" y="254" type="curve" smooth="yes"/>
			<point x="370" y="172.962"/>
			<point x="337.528" y="74"/>
			<point x="261" y="74" type="curve" smooth="yes"/>
			<point x="184.939" y="74"/>
			<point x="153" y="174.344"/>
			<point x="153" y="254" type="curve" smooth="yes"/>
			<point x="153" y="332.033"/>
			<point x="185.267" y="434"/>
			<point x="261" y="434" type="curve" smooth="yes"/>
			<point x="337.146" y="434"/>
			<point x="370" y="333.46"/>
		</contour>
	</outline>
</glyph>
<glyph name="q" format="2">
	<unicode hex="0071"/>
	<advance width="500"/>
	<outline>
		<contour>
			<point x="24" y="259" type="curve" smooth="yes"/>
			<point x="24" y="112.093"/>
			<point x="86.0994" y="-15"/>
			<point x="229" y="-15" type="curve" smooth="yes"/>
			<point x="276" y="-15"/>
			<point x="316" y="2"/>
			<point x="348" y="38" type="curve"/>
			<point x="348" y="-166" type="line"/>
			<point x="451" y="-166" type="line"/>
			<point x="451" y="512" type="line"/>
			<point x="348" y="512" type="line"/>
			<point x="348" y="465" type="line"/>
			<point x="316" y="504"/>
			<point x="278" y="524"/>
			<point x="233" y="524" type="curve" smooth="yes"/>
			<point x="91.9102" y="524"/>
			<point x="24" y="399.059"/>
		</contour>
		<contour>
			<point x="130" y="254" type="curve" smooth="yes"/>
			<point x="130" y="333.475"/>
			<point x="162.047" y="434"/>
			<point x="239" y="434" type="curve" smooth="yes"/>
			<point x="313.602" y="434"/>
			<point x="347" y="332.017"/>
			<point x="347" y="254" type="curve" smooth="yes"/>
			<point x="347" y="174.324"/>
			<point x="313.945" y="74"/>
			<point x="239" y="74" type="curve" smooth="yes"/>
			<point x="161.736" y="74"/>
			<point x="130" y="173.081"/>
		</contour>
	</outline>
</glyph>
<glyph name="r" format="2">
	<unicode hex="0072"/>
	<advance width="350"/>
	<outline>
		<contour>
			<point x="346" y="420" type="curve"/>
			<point x="346" y="524" type="line"/>
			<point x="246.42" y="522.394"/>
			<point x="190.166" y="495.952"/>
			<point x="151" y="440" type="curve"/>
			<point x="151" y="512" type="line"/>
			<point x="49" y="512" type="line"/>
			<point x="49" y="-8" type="line"/>
			<point x="151" y="-8" type="line"/>
			<point x="151" y="207" type="line" smooth="yes"/>
			<point x="151" y="350.258"/>
			<point x="202.775" y="420"/>
		</contour>
	</outline>
</glyph>
<glyph name="s" format="2">
	<unicode hex="0073"/>
	<advance width="409"/>
	<outline>
		<contour>
			<point x="376" y="135" type="curve" smooth="yes"/>
			<point x="376" y="316"/>
			<point x="126" y="282"/>
			<point x="126" y="383" type="curve" smooth="yes"/>
			<point x="126" y="418.566"/>
			<point x="161.543" y="436"/>
			<point x="200" y="436" type="curve" smooth="yes"/>
			<point x="262.413" y="436"/>
			<point x="303.043" y="417.208"/>
			<point x="348" y="393" type="curve"/>
			<point x="348" y="498" type="line"/>
			<point x="296" y="515"/>
			<point x="248" y="524"/>
			<point x="204" y="524" type="curve" smooth="yes"/>
			<point x="103.546" y="524"/>
			<point x="24" y="472.622"/>
			<point x="24" y="375" type="curve" smooth="yes"/>
			<point x="24" y="199"/>
			<point x="272" y="234"/>
			<point x="272" y="130" type="curve" smooth="yes"/>
			<point x="272" y="84.7771"/>
			<point x="226.506" y="71"/>
			<point x="171" y="71" type="curve" smooth="yes"/>
			<point x="113.805" y="71"/>
			<point x="65.68" y="93.8883"/>
			<point x="22" y="121" type="curve"/>
			<point x="22" y="10" type="line"/>
			<point x="83" y="-9"/>
			<point x="133" y="-19"/>
			<point x="171" y="-19" type="curve" smooth="yes"/>
			<point x="286.816" y="-19"/>
			<point x="376" y="20.2782"/>
		</contour>
	</outline>
</glyph>
<glyph name="t" format="2">
	<unicode hex="0074"/>
	<advance width="330"/>
	<outline>
		<contour>
			<point x="315" y="423" type="line"/>
			<point x="315" y="512" type="line"/>
			<point x="189" y="512" type="line"/>
			<point x="189" y="674" type="line"/>
			<point x="85" y="620" type="line"/>
			<point x="85" y="512" type="line"/>
			<point x="9" y="512" type="line"/>
			<point x="9" y="423" type="line"/>
			<point x="85" y="423" type="line"/>
			<point x="85" y="112" type="line" smooth="yes"/>
			<point x="85" y="25.6538"/>
			<point x="138.366" y="-19"/>
			<point x="228" y="-19" type="curve" smooth="yes"/>
			<point x="257" y="-19"/>
			<point x="285" y="-17"/>
			<point x="313" y="-13" type="curve"/>
			<point x="313" y="80" type="line"/>
			<point x="281" y="74"/>
			<point x="259" y="71"/>
			<point x="245" y="71" type="curve" smooth="yes"/>
			<point x="204.58" y="71"/>
			<point x="189" y="89.8616"/>
			<point x="189" y="128" type="curve" smooth="yes"/>
			<point x="189" y="423" type="line"/>
		</contour>
	</outline>
</glyph>
<glyph name="u" format="2">
	<unicode hex="0075"/>
	<advance width="500"/>
	<outline>
		<contour>
			<point x="49" y="512" type="line"/>
			<point x="49" y="166" type="line" smooth="yes"/>
			<point x="49" y="48.3456"/>
			<point x="109.665" y="-20"/>
			<point x="227" y="-20" type="curve" smooth="yes"/>
			<point x="279.551" y="-20"/>
			<point x="324.905" y="14.207"/>
			<point x="348" y="45" type="curve"/>
			<point x="348" y="-8" type="line"/>
			<point x="451" y="-8" type="line"/>
			<point x="451" y="512" type="line"/>
			<point x="348" y="512" type="line"/>
			<point x="348" y="284" type="line" smooth="yes"/>
			<point x="348" y="189.736"/>
			<point x="313.461" y="74"/>
			<point x="232" y="74" type="curve" smooth="yes"/>
			<point x="170.287" y="74"/>
			<point x="153" y="124.445"/>
			<point x="153" y="184" type="curve" smooth="yes"/>
			<point x="153" y="512" type="line"/>
		</contour>
	</outline>
</glyph>
<glyph name="v" format="2">
  <advance width="470"/>
  <unicode hex="0076"/>
  <outline>
    <contour>
      <point x="467" y="512" type="line"/>
      <point x="365" y="512" type="line"/>
      <point x="243" y="144" type="line"/>
      <point x="111" y="512" type="line"/>
      <point x="3" y="512" type="line"/>
      <point x="199" y="-8" type="line"/>
      <point x="288" y="-8" type="line"/>
    </contour>
  </outline>
</glyph>
<glyph name="w" format="2">
  <advance width="640"/>
  <unicode hex="0077"/>
  <outline>
    <contour>
      <point x="633" y="512" type="line"/>
      <point x="534" y="512" type="line"/>
      <point x="459" y="174" type="line"/>
      <point x="360" y="512" type="line"/>
      <point x="280" y="512" type="line"/>
      <point x="182" y="175" type="line"/>
      <point x="108" y="512" type="line"/>
      <point x="7" y="512" type="line"/>
      <point x="131" y="-8" type="line"/>
      <point x="221" y="-8" type="line"/>
      <point x="320" y="329" type="line"/>
      <point x="421" y="-8" type="line"/>
      <point x="513" y="-8" type="line"/>
    </contour>
  </outline>
</glyph>
<glyph name="x" format="2">
	<unicode hex="0078"/>
	<advance width="492"/>
	<outline>
		<contour>
			<point x="465" y="-8" type="line"/>
			<point x="290" y="266" type="line"/>
			<point x="449" y="512" type="line"/>
			<point x="334" y="512" type="line"/>
			<point x="233" y="355" type="line"/>
			<point x="133" y="512" type="line"/>
			<point x="18" y="512" type="line"/>
			<point x="176" y="266" type="line"/>
			<point x="-1" y="-8" type="line"/>
			<point x="115" y="-8" type="line"/>
			<point x="233" y="175" type="line"/>
			<point x="349" y="-8" type="line"/>
		</contour>
	</outline>
</glyph>
<glyph name="y" format="2">
	<unicode hex="0079"/>
	<advance width="482"/>
	<outline>
		<contour>
			<point x="344" y="512" type="line"/>
			<point x="232" y="178" type="line"/>
			<point x="111" y="512" type="line"/>
			<point x="1" y="512" type="line"/>
			<point x="183" y="34" type="line"/>
			<point x="116" y="-166" type="line"/>
			<point x="221" y="-166" type="line"/>
			<point x="451" y="512" type="line"/>
		</contour>
	</outline>
</glyph>
<glyph name="braceleft" format="2">
	<unicode hex="007B"/>
	<advance width="422"/>
	<outline>
		<contour>
			<point x="97" y="299" type="line"/>
			<point x="149.765" y="280.862"/>
			<point x="193" y="260.132"/>
			<point x="193" y="198" type="curve" smooth="yes"/>
			<point x="193" y="139.454"/>
			<point x="170" y="87.8172"/>
			<point x="170" y="25" type="curve" smooth="yes"/>
			<point x="170" y="-77.9205"/>
			<point x="254.877" y="-151.785"/>
			<point x="358.765" y="-151.785" type="curve" smooth="yes"/>
			<point x="364.89" y="-151.785"/>
			<point x="371.301" y="-151.536"/>
			<point x="378" y="-151" type="curve"/>
			<point x="378" y="-93" type="line"/>
			<point x="313.765" y="-73.5347"/>
			<point x="280.362" y="-38.1325"/>
			<point x="280.362" y="34.3431" type="curve" smooth="yes"/>
			<point x="280.362" y="79.6435"/>
			<point x="293.375" y="118.107"/>
			<point x="293.375" y="165.953" type="curve" smooth="yes"/>
			<point x="293.375" y="247.222"/>
			<point x="245.334" y="302.8"/>
			<point x="200" y="330" type="curve"/>
			<point x="247.049" y="348.819"/>
			<point x="293.375" y="418.041"/>
			<point x="293.375" y="494.484" type="curve" smooth="yes"/>
			<point x="293.375" y="543.748"/>
			<point x="279.787" y="585.156"/>
			<point x="279.787" y="633.234" type="curve" smooth="yes"/>
			<point x="279.787" y="698.608"/>
			<point x="318.835" y="736.071"/>
			<point x="378" y="754" type="curve"/>
			<point x="378" y="812" type="line"/>
			<point x="371.697" y="812.504"/>
			<point x="365.463" y="812.752"/>
			<point x="359.309" y="812.752" type="curve" smooth="yes"/>
			<point x="252.641" y="812.752"/>
			<point x="170" y="738.352"/>
			<point x="170" y="636" type="curve" smooth="yes"/>
			<point x="170" y="573.287"/>
			<point x="193" y="521.007"/>
			<point x="193" y="463" type="curve" smooth="yes"/>
			<point x="193" y="401.14"/>
			<point x="149.728" y="378.477"/>
			<point x="97" y="362" type="curve"/>
		</contour>
	</outline>
</glyph>
<glyph name="bar" format="2">
	<unicode hex="007C"/>
	<advance width="321"/>
	<outline>
		<contour>
			<point x="199" y="-134" type="line"/>
			<point x="199" y="793" type="line"/>
			<point x="104" y="793" type="line"/>
			<point x="104" y="-134" type="line"/>
		</contour>
	</outline>
</glyph>
<glyph name="braceright" format="2">
	<unicode hex="007D"/>
	<advance width="406"/>
	<outline>
		<contour>
			<point x="309" y="299" type="curve"/>
			<point x="309" y="362" type="line"/>
			<point x="276" y="372"/>
			<point x="252" y="385"/>
			<point x="237" y="401" type="curve" smooth="yes"/>
			<point x="221" y="417"/>
			<point x="213" y="437"/>
			<point x="213" y="463" type="curve" smooth="yes"/>
			<point x="213" y="479"/>
			<point x="215" y="498"/>
			<point x="221" y="520" type="curve" smooth="yes"/>
			<point x="226" y="541"/>
			<point x="230" y="559"/>
			<point x="232" y="573" type="curve" smooth="yes"/>
			<point x="234" y="593"/>
			<point x="236" y="614"/>
			<point x="236" y="636" type="curve" smooth="yes"/>
			<point x="236" y="658"/>
			<point x="231" y="680"/>
			<point x="221" y="702" type="curve" smooth="yes"/>
			<point x="211" y="723"/>
			<point x="199" y="741"/>
			<point x="186" y="756" type="curve" smooth="yes"/>
			<point x="172" y="770"/>
			<point x="157" y="781"/>
			<point x="141" y="789" type="curve" smooth="yes"/>
			<point x="125" y="797"/>
			<point x="108" y="803"/>
			<point x="91" y="808" type="curve" smooth="yes"/>
			<point x="73" y="812"/>
			<point x="52" y="814"/>
			<point x="28" y="812" type="curve"/>
			<point x="28" y="754" type="line"/>
			<point x="60" y="744"/>
			<point x="83" y="732"/>
			<point x="96" y="717" type="curve" smooth="yes"/>
			<point x="108" y="701"/>
			<point x="116" y="684"/>
			<point x="120" y="668" type="curve" smooth="yes"/>
			<point x="125" y="646"/>
			<point x="127" y="625"/>
			<point x="125" y="605" type="curve" smooth="yes"/>
			<point x="122" y="584"/>
			<point x="119" y="563"/>
			<point x="116" y="543" type="curve" smooth="yes"/>
			<point x="112" y="522"/>
			<point x="112" y="500"/>
			<point x="114" y="478" type="curve" smooth="yes"/>
			<point x="115" y="455"/>
			<point x="120" y="435"/>
			<point x="128" y="419" type="curve" smooth="yes"/>
			<point x="142" y="389"/>
			<point x="157" y="368"/>
			<point x="174" y="355" type="curve" smooth="yes"/>
			<point x="190" y="341"/>
			<point x="200" y="332"/>
			<point x="206" y="330" type="curve"/>
			<point x="200" y="327"/>
			<point x="190" y="319"/>
			<point x="174" y="306" type="curve" smooth="yes"/>
			<point x="157" y="292"/>
			<point x="142" y="271"/>
			<point x="128" y="242" type="curve" smooth="yes"/>
			<point x="120" y="225"/>
			<point x="115" y="205"/>
			<point x="114" y="183" type="curve" smooth="yes"/>
			<point x="112" y="160"/>
			<point x="112" y="138"/>
			<point x="116" y="118" type="curve" smooth="yes"/>
			<point x="119" y="97"/>
			<point x="122" y="77"/>
			<point x="125" y="57" type="curve" smooth="yes"/>
			<point x="127" y="36"/>
			<point x="125" y="15"/>
			<point x="120" y="-7" type="curve" smooth="yes"/>
			<point x="116" y="-23"/>
			<point x="108" y="-40"/>
			<point x="96" y="-56" type="curve" smooth="yes"/>
			<point x="83" y="-71"/>
			<point x="60" y="-83"/>
			<point x="28" y="-93" type="curve"/>
			<point x="28" y="-151" type="line"/>
			<point x="52" y="-153"/>
			<point x="73" y="-151"/>
			<point x="91" y="-147" type="curve" smooth="yes"/>
			<point x="108" y="-142"/>
			<point x="125" y="-136"/>
			<point x="141" y="-128" type="curve" smooth="yes"/>
			<point x="157" y="-120"/>
			<point x="172" y="-109"/>
			<point x="186" y="-95" type="curve" smooth="yes"/>
			<point x="199" y="-80"/>
			<point x="211" y="-62"/>
			<point x="221" y="-41" type="curve" smooth="yes"/>
			<point x="231" y="-19"/>
			<point x="236" y="3"/>
			<point x="236" y="25" type="curve" smooth="yes"/>
			<point x="236" y="47"/>
			<point x="234" y="68"/>
			<point x="232" y="88" type="curve" smooth="yes"/>
			<point x="230" y="102"/>
			<point x="226" y="120"/>
			<point x="221" y="142" type="curve" smooth="yes"/>
			<point x="215" y="163"/>
			<point x="213" y="182"/>
			<point x="213" y="198" type="curve" smooth="yes"/>
			<point x="213" y="223"/>
			<point x="221" y="244"/>
			<point x="237" y="260" type="curve" smooth="yes"/>
			<point x="252" y="275"/>
			<point x="276" y="288"/>
		</contour>
	</outline>
</glyph>
<glyph name="asciitilde" format="2">
	<unicode hex="007E"/>
	<advance width="524"/>
	<outline>
		<contour>
			<point x="498" y="442" type="curve"/>
			<point x="405" y="442" type="line"/>
			<point x="405" y="379.574"/>
			<point x="399.574" y="333"/>
			<point x="355" y="333" type="curve" smooth="yes"/>
			<point x="300" y="333"/>
			<point x="279" y="456"/>
			<point x="165" y="456" type="curve" smooth="yes"/>
			<point x="65.7157" y="456"/>
			<point x="27" y="363.96"/>
			<point x="27" y="253" type="curve"/>
			<point x="119" y="253" type="line"/>
			<point x="119" y="313.547"/>
			<point x="122.975" y="364"/>
			<point x="167" y="364" type="curve" smooth="yes"/>
			<point x="223" y="364"/>
			<point x="239" y="241"/>
			<point x="358" y="241" type="curve" smooth="yes"/>
			<point x="460.875" y="241"/>
			<point x="498" y="329.017"/>
		</contour>
	</outline>
</glyph>
<glyph name="uni0084" format="2">
	<unicode hex="0084"/>
	<advance width="996"/>
	<outline>
		<contour>
			<point x="225" y="352" type="line"/>
			<point x="284" y="352" type="line"/>
			<point x="284" y="684" type="line"/>
			<point x="419" y="684" type="line"/>
			<point x="419" y="744" type="line"/>
			<point x="90" y="744" type="line"/>
			<point x="90" y="684" type="line"/>
			<point x="225" y="684" type="line"/>
		</contour>
		<contour>
			<point x="611" y="352" type="line"/>
			<point x="655" y="352" type="line"/>
			<point x="757" y="618" type="line"/>
			<point x="757" y="352" type="line"/>
			<point x="812" y="352" type="line"/>
			<point x="812" y="744" type="line"/>
			<point x="742" y="744" type="line"/>
			<point x="631" y="443" type="line"/>
			<point x="507" y="744" type="line"/>
			<point x="448" y="744" type="line"/>
			<point x="448" y="352" type="line"/>
			<point x="503" y="352" type="line"/>
			<point x="503" y="613" type="line"/>
		</contour>
	</outline>
</glyph>
<glyph name="exclamdown" format="2">
	<unicode hex="00A1"/>
	<advance width="871"/>
	<outline>
		<contour>
			<point x="472" y="-81" type="line"/>
			<point x="465" y="500" type="line"/>
			<point x="372" y="500" type="line"/>
			<point x="365" y="-81" type="line"/>
		</contour>
		<contour>
			<point x="479" y="721" type="line"/>
			<point x="359" y="721" type="line"/>
			<point x="359" y="599" type="line"/>
			<point x="479" y="599" type="line"/>
		</contour>
	</outline>
</glyph>
<glyph name="sterling" format="2">
	<unicode hex="00A3"/>
	<advance width="940"/>
	<outline>
		<contour>
			<point x="683" y="200" type="line"/>
			<point x="683" y="114.735"/>
			<point x="650.169" y="98"/>
			<point x="567" y="98" type="curve" smooth="yes"/>
			<point x="324" y="98" type="line"/>
			<point x="342.322" y="134.643"/>
			<point x="354" y="221.432"/>
			<point x="354" y="278" type="curve" smooth="yes"/>
			<point x="354" y="299"/>
			<point x="352" y="322"/>
			<point x="350" y="347" type="curve"/>
			<point x="604" y="347" type="line"/>
			<point x="604" y="407" type="line"/>
			<point x="342" y="407" type="line"/>
			<point x="336.37" y="434.025"/>
			<point x="332.5" y="468.996"/>
			<point x="332.5" y="504.824" type="curve" smooth="yes"/>
			<point x="332.5" y="600.025"/>
			<point x="395.3" y="680"/>
			<point x="491" y="680" type="curve" smooth="yes"/>
			<point x="567.161" y="680"/>
			<point x="617.812" y="616.127"/>
			<point x="629" y="549" type="curve"/>
			<point x="701" y="549" type="line"/>
			<point x="688.615" y="656.341"/>
			<point x="611.083" y="748"/>
			<point x="492" y="748" type="curve" smooth="yes"/>
			<point x="357.937" y="748"/>
			<point x="259.892" y="649.853"/>
			<point x="259.892" y="513.892" type="curve" smooth="yes"/>
			<point x="259.892" y="477.031"/>
			<point x="261.65" y="442.312"/>
			<point x="267" y="407" type="curve"/>
			<point x="209" y="407" type="line"/>
			<point x="209" y="347" type="line"/>
			<point x="274" y="347" type="line"/>
			<point x="278" y="324"/>
			<point x="280" y="302"/>
			<point x="280" y="280" type="curve" smooth="yes"/>
			<point x="280" y="220.175"/>
			<point x="265.837" y="136.673"/>
			<point x="247" y="99" type="curve"/>
			<point x="175" y="99" type="line"/>
			<point x="175" y="32" type="line"/>
			<point x="572" y="32" type="line" smooth="yes"/>
			<point x="699.359" y="32"/>
			<point x="754" y="73.635"/>
			<point x="754" y="200" type="curve"/>
		</contour>
	</outline>
</glyph>
<glyph name="currency" format="2">
	<unicode hex="00A4"/>
	<advance width="719"/>
	<outline>
		<contour>
			<point x="106" y="332" type="curve" smooth="yes"/>
			<point x="106" y="274"/>
			<point x="122" y="225"/>
			<point x="154" y="183" type="curve"/>
			<point x="77" y="101" type="line"/>
			<point x="131" y="50" type="line"/>
			<point x="207" y="131" type="line"/>
			<point x="247" y="101"/>
			<point x="293" y="86"/>
			<point x="343" y="86" type="curve" smooth="yes"/>
			<point x="393" y="86"/>
			<point x="438" y="101"/>
			<point x="479" y="131" type="curve"/>
			<point x="555" y="50" type="line"/>
			<point x="609" y="101" type="line"/>
			<point x="532" y="183" type="line"/>
			<point x="564" y="225"/>
			<point x="580" y="274"/>
			<point x="580" y="332" type="curve" smooth="yes"/>
			<point x="580" y="389"/>
			<point x="564" y="438"/>
			<point x="532" y="480" type="curve"/>
			<point x="609" y="562" type="line"/>
			<point x="556" y="613" type="line"/>
			<point x="480" y="532" type="line"/>
			<point x="439" y="562"/>
			<point x="393" y="578"/>
			<point x="343" y="578" type="curve" smooth="yes"/>
			<point x="292" y="578"/>
			<point x="246" y="562"/>
			<point x="206" y="532" type="curve"/>
			<point x="130" y="613" type="line"/>
			<point x="77" y="562" type="line"/>
			<point x="153" y="480" type="line"/>
			<point x="121" y="438"/>
			<point x="106" y="388"/>
		</contour>
		<contour>
			<point x="182" y="332" type="curve" smooth="yes"/>
			<point x="182" y="426.29"/>
			<point x="251.159" y="506"/>
			<point x="343" y="506" type="curve" smooth="yes"/>
			<point x="434.34" y="506"/>
			<point x="504" y="427.346"/>
			<point x="504" y="332" type="curve" smooth="yes"/>
			<point x="504" y="236.053"/>
			<point x="433.337" y="158"/>
			<point x="343" y="158" type="curve" smooth="yes"/>
			<point x="252.217" y="158"/>
			<point x="182" y="237.186"/>
		</contour>
	</outline>
</glyph>
<glyph name="yen" format="2">
	<unicode hex="00A5"/>
	<advance width="996"/>
	<outline>
		<contour>
			<point x="200" y="189" type="line"/>
			<point x="428" y="189" type="line"/>
			<point x="428" y="32" type="line"/>
			<point x="508" y="32" type="line"/>
			<point x="508" y="189" type="line"/>
			<point x="725" y="189" type="line"/>
			<point x="725" y="258" type="line"/>
			<point x="508" y="258" type="line"/>
			<point x="508" y="319" type="line"/>
			<point x="725" y="319" type="line"/>
			<point x="725" y="388" type="line"/>
			<point x="525" y="388" type="line"/>
			<point x="747" y="742" type="line"/>
			<point x="660" y="742" type="line"/>
			<point x="468" y="433" type="line"/>
			<point x="281" y="742" type="line"/>
			<point x="191" y="742" type="line"/>
			<point x="410" y="388" type="line"/>
			<point x="200" y="388" type="line"/>
			<point x="200" y="319" type="line"/>
			<point x="428" y="319" type="line"/>
			<point x="428" y="258" type="line"/>
			<point x="200" y="258" type="line"/>
		</contour>
	</outline>
</glyph>
<glyph name="copyright" format="2">
	<unicode hex="00A9"/>
	<advance width="838"/>
	<outline>
		<contour>
			<point x="597" y="441" type="line"/>
			<point x="597" y="476"/>
			<point x="592" y="504"/>
			<point x="583" y="525" type="curve" smooth="yes"/>
			<point x="573" y="545"/>
			<point x="560" y="562"/>
			<point x="544" y="576" type="curve" smooth="yes"/>
			<point x="528" y="590"/>
			<point x="509" y="602"/>
			<point x="489" y="611" type="curve" smooth="yes"/>
			<point x="468" y="619"/>
			<point x="445" y="623"/>
			<point x="420" y="623" type="curve" smooth="yes"/>
			<point x="382" y="623"/>
			<point x="348" y="615"/>
			<point x="320" y="599" type="curve" smooth="yes"/>
			<point x="291" y="582"/>
			<point x="267" y="561"/>
			<point x="248" y="536" type="curve" smooth="yes"/>
			<point x="228" y="510"/>
			<point x="215" y="481"/>
			<point x="207" y="449" type="curve" smooth="yes"/>
			<point x="198" y="415"/>
			<point x="194" y="381"/>
			<point x="194" y="345" type="curve" smooth="yes"/>
			<point x="194" y="309"/>
			<point x="198" y="275"/>
			<point x="206" y="241" type="curve" smooth="yes"/>
			<point x="213" y="207"/>
			<point x="226" y="175"/>
			<point x="246" y="147" type="curve" smooth="yes"/>
			<point x="266" y="117"/>
			<point x="291" y="94"/>
			<point x="323" y="77" type="curve" smooth="yes"/>
			<point x="354" y="59"/>
			<point x="386" y="51"/>
			<point x="420" y="51" type="curve" smooth="yes"/>
			<point x="459" y="51"/>
			<point x="494" y="55"/>
			<point x="524" y="64" type="curve" smooth="yes"/>
			<point x="536" y="67"/>
			<point x="546" y="71"/>
			<point x="555" y="76" type="curve" smooth="yes"/>
			<point x="563" y="80"/>
			<point x="571" y="84"/>
			<point x="580" y="88" type="curve"/>
			<point x="580" y="188" type="line"/>
			<point x="549" y="164"/>
			<point x="523" y="149"/>
			<point x="503" y="141" type="curve" smooth="yes"/>
			<point x="481" y="133"/>
			<point x="459" y="129"/>
			<point x="437" y="129" type="curve" smooth="yes"/>
			<point x="409" y="129"/>
			<point x="385" y="136"/>
			<point x="364" y="152" type="curve" smooth="yes"/>
			<point x="342" y="167"/>
			<point x="324" y="186"/>
			<point x="312" y="208" type="curve" smooth="yes"/>
			<point x="300" y="232"/>
			<point x="293" y="256"/>
			<point x="289" y="282" type="curve" smooth="yes"/>
			<point x="284" y="306"/>
			<point x="282" y="327"/>
			<point x="282" y="345" type="curve" smooth="yes"/>
			<point x="282" y="372"/>
			<point x="286" y="400"/>
			<point x="294" y="428" type="curve" smooth="yes"/>
			<point x="301" y="455"/>
			<point x="312" y="477"/>
			<point x="326" y="495" type="curve" smooth="yes"/>
			<point x="339" y="512"/>
			<point x="354" y="525"/>
			<point x="370" y="533" type="curve" smooth="yes"/>
			<point x="386" y="541"/>
			<point x="402" y="545"/>
			<point x="420" y="545" type="curve" smooth="yes"/>
			<point x="430" y="544"/>
			<point x="441" y="542"/>
			<point x="452" y="539" type="curve" smooth="yes"/>
			<point x="462" y="535"/>
			<point x="471" y="529"/>
			<point x="479" y="523" type="curve" smooth="yes"/>
			<point x="487" y="515"/>
			<point x="493" y="506"/>
			<point x="499" y="496" type="curve" smooth="yes"/>
			<point x="504" y="485"/>
			<point x="507" y="467"/>
			<point x="507" y="441" type="curve"/>
		</contour>
		<contour>
			<point x="829" y="331" type="curve" smooth="yes"/>
			<point x="829" y="392"/>
			<point x="818" y="448"/>
			<point x="797" y="498" type="curve" smooth="yes"/>
			<point x="775" y="548"/>
			<point x="745" y="591"/>
			<point x="708" y="629" type="curve" smooth="yes"/>
			<point x="670" y="666"/>
			<point x="627" y="696"/>
			<point x="578" y="718" type="curve" smooth="yes"/>
			<point x="528" y="740"/>
			<point x="475" y="751"/>
			<point x="419" y="751" type="curve" smooth="yes"/>
			<point x="362" y="751"/>
			<point x="309" y="740"/>
			<point x="260" y="718" type="curve" smooth="yes"/>
			<point x="210" y="696"/>
			<point x="167" y="666"/>
			<point x="130" y="629" type="curve" smooth="yes"/>
			<point x="92" y="591"/>
			<point x="63" y="548"/>
			<point x="42" y="498" type="curve" smooth="yes"/>
			<point x="20" y="448"/>
			<point x="9" y="392"/>
			<point x="9" y="331" type="curve" smooth="yes"/>
			<point x="9" y="270"/>
			<point x="20" y="215"/>
			<point x="42" y="165" type="curve" smooth="yes"/>
			<point x="63" y="115"/>
			<point x="92" y="71"/>
			<point x="130" y="34" type="curve" smooth="yes"/>
			<point x="167" y="-3"/>
			<point x="210" y="-33"/>
			<point x="260" y="-55" type="curve" smooth="yes"/>
			<point x="309" y="-76"/>
			<point x="362" y="-87"/>
			<point x="419" y="-87" type="curve" smooth="yes"/>
			<point x="475" y="-87"/>
			<point x="528" y="-76"/>
			<point x="578" y="-55" type="curve" smooth="yes"/>
			<point x="627" y="-33"/>
			<point x="670" y="-3"/>
			<point x="708" y="34" type="curve" smooth="yes"/>
			<point x="745" y="71"/>
			<point x="775" y="115"/>
			<point x="797" y="165" type="curve" smooth="yes"/>
			<point x="818" y="215"/>
			<point x="829" y="270"/>
		</contour>
		<contour>
			<point x="753" y="331" type="curve" smooth="yes"/>
			<point x="753" y="279"/>
			<point x="744" y="233"/>
			<point x="726" y="192" type="curve" smooth="yes"/>
			<point x="708" y="150"/>
			<point x="684" y="113"/>
			<point x="654" y="83" type="curve" smooth="yes"/>
			<point x="624" y="53"/>
			<point x="588" y="29"/>
			<point x="548" y="12" type="curve" smooth="yes"/>
			<point x="507" y="-6"/>
			<point x="464" y="-15"/>
			<point x="419" y="-15" type="curve" smooth="yes"/>
			<point x="373" y="-15"/>
			<point x="330" y="-6"/>
			<point x="290" y="12" type="curve" smooth="yes"/>
			<point x="249" y="29"/>
			<point x="214" y="53"/>
			<point x="184" y="83" type="curve" smooth="yes"/>
			<point x="154" y="113"/>
			<point x="130" y="150"/>
			<point x="112" y="192" type="curve" smooth="yes"/>
			<point x="94" y="233"/>
			<point x="85" y="279"/>
			<point x="85" y="331" type="curve" smooth="yes"/>
			<point x="85" y="383"/>
			<point x="94" y="430"/>
			<point x="112" y="472" type="curve" smooth="yes"/>
			<point x="130" y="513"/>
			<point x="154" y="549"/>
			<point x="184" y="580" type="curve" smooth="yes"/>
			<point x="214" y="610"/>
			<point x="249" y="634"/>
			<point x="290" y="652" type="curve" smooth="yes"/>
			<point x="330" y="670"/>
			<point x="373" y="679"/>
			<point x="419" y="679" type="curve" smooth="yes"/>
			<point x="464" y="679"/>
			<point x="507" y="670"/>
			<point x="548" y="652" type="curve" smooth="yes"/>
			<point x="588" y="634"/>
			<point x="624" y="610"/>
			<point x="654" y="580" type="curve" smooth="yes"/>
			<point x="684" y="549"/>
			<point x="708" y="513"/>
			<point x="726" y="472" type="curve" smooth="yes"/>
			<point x="744" y="430"/>
			<point x="753" y="383"/>
		</contour>
	</outline>
</glyph>
<glyph name="ordfeminine" format="2">
	<unicode hex="00AA"/>
	<advance width="611"/>
	<outline>
		<contour>
			<point x="93" y="180" type="line"/>
			<point x="510" y="180" type="line"/>
			<point x="510" y="267" type="line"/>
			<point x="93" y="267" type="line"/>
		</contour>
		<contour>
			<point x="373" y="298" type="line"/>
			<point x="470" y="298" type="line"/>
			<point x="470" y="589" type="line" smooth="yes"/>
			<point x="470" y="672.525"/>
			<point x="399.039" y="734"/>
			<point x="311" y="734" type="curve" smooth="yes"/>
			<point x="219.428" y="734"/>
			<point x="148" y="683.339"/>
			<point x="148" y="593" type="curve"/>
			<point x="254" y="593" type="line"/>
			<point x="254" y="634.676"/>
			<point x="269.812" y="648"/>
			<point x="311" y="648" type="curve" smooth="yes"/>
			<point x="352.487" y="648"/>
			<point x="373" y="625.099"/>
			<point x="373" y="586" type="curve" smooth="yes"/>
			<point x="373" y="568" type="line"/>
			<point x="254.228" y="568"/>
			<point x="139" y="527.019"/>
			<point x="139" y="408" type="curve" smooth="yes"/>
			<point x="139" y="336.524"/>
			<point x="194.165" y="289"/>
			<point x="264" y="289" type="curve" smooth="yes"/>
			<point x="312.468" y="289"/>
			<point x="355.614" y="305.66"/>
			<point x="373" y="330" type="curve"/>
		</contour>
		<contour>
			<point x="373" y="457" type="line" smooth="yes"/>
			<point x="373" y="411.322"/>
			<point x="335.632" y="375"/>
			<point x="290" y="375" type="curve" smooth="yes"/>
			<point x="259.773" y="375"/>
			<point x="240" y="386.526"/>
			<point x="240" y="418" type="curve" smooth="yes"/>
			<point x="240" y="479.292"/>
			<point x="312.168" y="489"/>
			<point x="373" y="489" type="curve"/>
		</contour>
	</outline>
</glyph>
<glyph name="logicalnot" format="2">
	<unicode hex="00AC"/>
	<advance width="940"/>
	<outline>
		<contour>
			<point x="888" y="387" type="line"/>
			<point x="25" y="387" type="line"/>
			<point x="25" y="333" type="line"/>
			<point x="824" y="333" type="line"/>
			<point x="824" y="58" type="line"/>
			<point x="888" y="58" type="line"/>
		</contour>
	</outline>
</glyph>
<glyph name="uni00AD" format="2">
	<unicode hex="00AD"/>
	<advance width="367"/>
	<outline>
		<contour>
			<point x="336" y="390" type="line"/>
			<point x="30" y="390" type="line"/>
			<point x="30" y="294" type="line"/>
			<point x="336" y="294" type="line"/>
		</contour>
	</outline>
</glyph>
<glyph name="registered" format="2">
	<unicode hex="00AE"/>
	<advance width="838"/>
	<outline>
		<contour>
			<point x="753" y="331" type="curve" smooth="yes"/>
			<point x="753" y="279"/>
			<point x="744" y="233"/>
			<point x="726" y="192" type="curve" smooth="yes"/>
			<point x="708" y="150"/>
			<point x="684" y="113"/>
			<point x="654" y="83" type="curve" smooth="yes"/>
			<point x="624" y="53"/>
			<point x="588" y="29"/>
			<point x="548" y="12" type="curve" smooth="yes"/>
			<point x="507" y="-6"/>
			<point x="464" y="-15"/>
			<point x="419" y="-15" type="curve" smooth="yes"/>
			<point x="373" y="-15"/>
			<point x="330" y="-6"/>
			<point x="290" y="12" type="curve" smooth="yes"/>
			<point x="249" y="29"/>
			<point x="214" y="53"/>
			<point x="184" y="83" type="curve" smooth="yes"/>
			<point x="154" y="113"/>
			<point x="130" y="150"/>
			<point x="112" y="192" type="curve" smooth="yes"/>
			<point x="94" y="233"/>
			<point x="85" y="279"/>
			<point x="85" y="331" type="curve" smooth="yes"/>
			<point x="85" y="383"/>
			<point x="94" y="430"/>
			<point x="112" y="472" type="curve" smooth="yes"/>
			<point x="130" y="513"/>
			<point x="154" y="549"/>
			<point x="184" y="580" type="curve" smooth="yes"/>
			<point x="214" y="610"/>
			<point x="249" y="634"/>
			<point x="290" y="652" type="curve" smooth="yes"/>
			<point x="330" y="670"/>
			<point x="373" y="679"/>
			<point x="419" y="679" type="curve" smooth="yes"/>
			<point x="464" y="679"/>
			<point x="507" y="670"/>
			<point x="548" y="652" type="curve" smooth="yes"/>
			<point x="588" y="634"/>
			<point x="624" y="610"/>
			<point x="654" y="580" type="curve" smooth="yes"/>
			<point x="684" y="549"/>
			<point x="708" y="513"/>
			<point x="726" y="472" type="curve" smooth="yes"/>
			<point x="744" y="430"/>
			<point x="753" y="383"/>
		</contour>
		<contour>
			<point x="829" y="331" type="curve" smooth="yes"/>
			<point x="829" y="392"/>
			<point x="818" y="448"/>
			<point x="797" y="498" type="curve" smooth="yes"/>
			<point x="775" y="548"/>
			<point x="745" y="591"/>
			<point x="708" y="629" type="curve" smooth="yes"/>
			<point x="670" y="666"/>
			<point x="627" y="696"/>
			<point x="578" y="718" type="curve" smooth="yes"/>
			<point x="528" y="740"/>
			<point x="475" y="751"/>
			<point x="419" y="751" type="curve" smooth="yes"/>
			<point x="362" y="751"/>
			<point x="309" y="740"/>
			<point x="260" y="718" type="curve" smooth="yes"/>
			<point x="210" y="696"/>
			<point x="167" y="666"/>
			<point x="130" y="629" type="curve" smooth="yes"/>
			<point x="92" y="591"/>
			<point x="63" y="548"/>
			<point x="42" y="498" type="curve" smooth="yes"/>
			<point x="20" y="448"/>
			<point x="9" y="392"/>
			<point x="9" y="331" type="curve" smooth="yes"/>
			<point x="9" y="270"/>
			<point x="20" y="215"/>
			<point x="42" y="165" type="curve" smooth="yes"/>
			<point x="63" y="115"/>
			<point x="92" y="71"/>
			<point x="130" y="34" type="curve" smooth="yes"/>
			<point x="167" y="-3"/>
			<point x="210" y="-33"/>
			<point x="260" y="-55" type="curve" smooth="yes"/>
			<point x="309" y="-76"/>
			<point x="362" y="-87"/>
			<point x="419" y="-87" type="curve" smooth="yes"/>
			<point x="475" y="-87"/>
			<point x="528" y="-76"/>
			<point x="578" y="-55" type="curve" smooth="yes"/>
			<point x="627" y="-33"/>
			<point x="670" y="-3"/>
			<point x="708" y="34" type="curve" smooth="yes"/>
			<point x="745" y="71"/>
			<point x="775" y="115"/>
			<point x="797" y="165" type="curve" smooth="yes"/>
			<point x="818" y="215"/>
			<point x="829" y="270"/>
		</contour>
		<contour>
			<point x="603" y="449" type="curve" smooth="yes"/>
			<point x="603" y="480"/>
			<point x="597" y="506"/>
			<point x="586" y="527" type="curve" smooth="yes"/>
			<point x="574" y="547"/>
			<point x="559" y="564"/>
			<point x="540" y="578" type="curve" smooth="yes"/>
			<point x="522" y="589"/>
			<point x="502" y="598"/>
			<point x="481" y="604" type="curve" smooth="yes"/>
			<point x="459" y="610"/>
			<point x="436" y="613"/>
			<point x="412" y="613" type="curve" smooth="yes"/>
			<point x="267" y="613" type="line"/>
			<point x="267" y="60" type="line"/>
			<point x="354" y="60" type="line"/>
			<point x="354" y="284" type="line"/>
			<point x="364" y="284" type="line"/>
			<point x="403" y="284" type="line" smooth="yes"/>
			<point x="433" y="284"/>
			<point x="458" y="269"/>
			<point x="478" y="240" type="curve" smooth="yes"/>
			<point x="497" y="212"/>
			<point x="514" y="152"/>
			<point x="528" y="60" type="curve"/>
			<point x="617" y="60" type="line"/>
			<point x="605" y="131"/>
			<point x="591" y="191"/>
			<point x="575" y="240" type="curve" smooth="yes"/>
			<point x="557" y="286"/>
			<point x="541" y="312"/>
			<point x="527" y="319" type="curve"/>
			<point x="531" y="321"/>
			<point x="536" y="324"/>
			<point x="542" y="329" type="curve" smooth="yes"/>
			<point x="560" y="341"/>
			<point x="574" y="357"/>
			<point x="586" y="379" type="curve" smooth="yes"/>
			<point x="597" y="399"/>
			<point x="603" y="423"/>
		</contour>
		<contour>
			<point x="354" y="366" type="line"/>
			<point x="354" y="534" type="line"/>
			<point x="415" y="534" type="line" smooth="yes"/>
			<point x="426" y="534"/>
			<point x="438" y="532"/>
			<point x="451" y="529" type="curve" smooth="yes"/>
			<point x="463" y="525"/>
			<point x="474" y="521"/>
			<point x="484" y="515" type="curve" smooth="yes"/>
			<point x="492" y="509"/>
			<point x="499" y="500"/>
			<point x="506" y="490" type="curve" smooth="yes"/>
			<point x="512" y="478"/>
			<point x="516" y="465"/>
			<point x="516" y="449" type="curve" smooth="yes"/>
			<point x="516" y="435"/>
			<point x="512" y="422"/>
			<point x="506" y="410" type="curve" smooth="yes"/>
			<point x="499" y="398"/>
			<point x="492" y="389"/>
			<point x="485" y="384" type="curve" smooth="yes"/>
			<point x="475" y="377"/>
			<point x="464" y="372"/>
			<point x="452" y="370" type="curve" smooth="yes"/>
			<point x="439" y="367"/>
			<point x="424" y="366"/>
			<point x="408" y="366" type="curve" smooth="yes"/>
			<point x="364" y="366" type="line"/>
		</contour>
	</outline>
</glyph>
<glyph name="degree" format="2">
	<unicode hex="00B0"/>
	<advance width="255"/>
	<outline>
		<contour>
			<point x="159" y="670" type="curve" smooth="yes"/>
			<point x="159" y="651.633"/>
			<point x="145.408" y="638"/>
			<point x="128" y="638" type="curve" smooth="yes"/>
			<point x="110.11" y="638"/>
			<point x="97" y="651.645"/>
			<point x="97" y="670" type="curve" smooth="yes"/>
			<point x="97" y="687.86"/>
			<point x="110.113" y="702"/>
			<point x="128" y="702" type="curve" smooth="yes"/>
			<point x="145.397" y="702"/>
			<point x="159" y="687.862"/>
		</contour>
		<contour>
			<point x="239" y="670" type="curve" smooth="yes"/>
			<point x="239" y="730.577"/>
			<point x="188.549" y="780"/>
			<point x="128" y="780" type="curve" smooth="yes"/>
			<point x="66.9264" y="780"/>
			<point x="17" y="729.518"/>
			<point x="17" y="670" type="curve" smooth="yes"/>
			<point x="17" y="610.455"/>
			<point x="68.0051" y="560"/>
			<point x="128" y="560" type="curve" smooth="yes"/>
			<point x="187.47" y="560"/>
			<point x="239" y="609.394"/>
		</contour>
	</outline>
</glyph>
<glyph name="plusminus" format="2">
	<unicode hex="00B1"/>
	<advance width="625"/>
	<outline>
		<contour>
			<point x="556" y="371" type="line"/>
			<point x="556" y="458" type="line"/>
			<point x="343" y="458" type="line"/>
			<point x="343" y="647" type="line"/>
			<point x="249" y="647" type="line"/>
			<point x="249" y="458" type="line"/>
			<point x="36" y="458" type="line"/>
			<point x="36" y="371" type="line"/>
			<point x="249" y="371" type="line"/>
			<point x="249" y="178" type="line"/>
			<point x="343" y="178" type="line"/>
			<point x="343" y="371" type="line"/>
		</contour>
		<contour>
			<point x="556" y="43" type="line"/>
			<point x="556" y="129" type="line"/>
			<point x="36" y="129" type="line"/>
			<point x="36" y="43" type="line"/>
		</contour>
	</outline>
</glyph>
<glyph name="uni00B2" format="2">
	<unicode hex="00B2"/>
	<advance width="348"/>
	<outline>
		<contour>
			<point x="54" y="391" type="curve"/>
			<point x="54" y="322" type="line"/>
			<point x="299" y="322" type="line"/>
			<point x="299" y="404" type="line"/>
			<point x="171" y="404" type="line"/>
			<point x="188" y="422"/>
			<point x="208" y="446"/>
			<point x="230" y="475" type="curve" smooth="yes"/>
			<point x="252" y="503"/>
			<point x="269" y="533"/>
			<point x="281" y="565" type="curve" smooth="yes"/>
			<point x="285" y="575"/>
			<point x="288" y="587"/>
			<point x="290" y="601" type="curve" smooth="yes"/>
			<point x="291" y="614"/>
			<point x="292" y="625"/>
			<point x="292" y="635" type="curve" smooth="yes"/>
			<point x="292" y="673"/>
			<point x="280" y="704"/>
			<point x="258" y="728" type="curve" smooth="yes"/>
			<point x="234" y="752"/>
			<point x="205" y="764"/>
			<point x="171" y="764" type="curve" smooth="yes"/>
			<point x="147" y="764"/>
			<point x="128" y="759"/>
			<point x="113" y="750" type="curve" smooth="yes"/>
			<point x="97" y="740"/>
			<point x="84" y="728"/>
			<point x="75" y="715" type="curve" smooth="yes"/>
			<point x="66" y="701"/>
			<point x="60" y="687"/>
			<point x="57" y="673" type="curve" smooth="yes"/>
			<point x="53" y="658"/>
			<point x="51" y="640"/>
			<point x="51" y="620" type="curve"/>
			<point x="137" y="620" type="line"/>
			<point x="136" y="645"/>
			<point x="139" y="662"/>
			<point x="146" y="672" type="curve" smooth="yes"/>
			<point x="152" y="681"/>
			<point x="160" y="686"/>
			<point x="171" y="686" type="curve" smooth="yes"/>
			<point x="183" y="686"/>
			<point x="192" y="681"/>
			<point x="199" y="671" type="curve" smooth="yes"/>
			<point x="205" y="661"/>
			<point x="209" y="650"/>
			<point x="209" y="638" type="curve" smooth="yes"/>
			<point x="209" y="632"/>
			<point x="208" y="624"/>
			<point x="207" y="614" type="curve" smooth="yes"/>
			<point x="205" y="604"/>
			<point x="204" y="596"/>
			<point x="203" y="592" type="curve" smooth="yes"/>
			<point x="191" y="556"/>
			<point x="167" y="518"/>
			<point x="133" y="477" type="curve" smooth="yes"/>
			<point x="97" y="435"/>
			<point x="76" y="411"/>
			<point x="70" y="406" type="curve" smooth="yes"/>
			<point x="68" y="404"/>
			<point x="66" y="402"/>
			<point x="65" y="401" type="curve" smooth="yes"/>
			<point x="63" y="399"/>
			<point x="59" y="395"/>
		</contour>
	</outline>
</glyph>
<glyph name="uni00B3" format="2">
	<unicode hex="00B3"/>
	<advance width="348"/>
	<outline>
		<contour>
			<point x="252" y="548" type="curve"/>
			<point x="274.418" y="560.811"/>
			<point x="293" y="596.404"/>
			<point x="293" y="638" type="curve" smooth="yes"/>
			<point x="293" y="711.866"/>
			<point x="242.559" y="763"/>
			<point x="170" y="763" type="curve" smooth="yes"/>
			<point x="92.5652" y="763"/>
			<point x="51" y="712.972"/>
			<point x="51" y="636" type="curve"/>
			<point x="132" y="636" type="line"/>
			<point x="136.851" y="665.104"/>
			<point x="142.254" y="683"/>
			<point x="172" y="683" type="curve" smooth="yes"/>
			<point x="195.649" y="683"/>
			<point x="206" y="663.461"/>
			<point x="206" y="638" type="curve" smooth="yes"/>
			<point x="206" y="590.668"/>
			<point x="186.951" y="589.999"/>
			<point x="136.48" y="589.999" type="curve" smooth="yes"/>
			<point x="135.014" y="589.999"/>
			<point x="133.52" y="590"/>
			<point x="132" y="590" type="curve"/>
			<point x="132" y="510" type="line"/>
			<point x="186.297" y="510"/>
			<point x="211" y="503.573"/>
			<point x="211" y="452" type="curve" smooth="yes"/>
			<point x="211" y="419.456"/>
			<point x="198.86" y="396"/>
			<point x="169" y="396" type="curve" smooth="yes"/>
			<point x="139.529" y="396"/>
			<point x="133" y="412.344"/>
			<point x="133" y="444" type="curve"/>
			<point x="41" y="444" type="line"/>
			<point x="48.6292" y="365.801"/>
			<point x="87.307" y="315"/>
			<point x="171" y="315" type="curve" smooth="yes"/>
			<point x="250.427" y="315"/>
			<point x="299" y="374.968"/>
			<point x="299" y="453" type="curve" smooth="yes"/>
			<point x="299" y="497.732"/>
			<point x="276.526" y="533.985"/>
		</contour>
	</outline>
</glyph>
<glyph name="acute" format="2">
	<unicode hex="00B4"/>
	<advance width="838"/>
	<outline>
		<contour>
			<point x="509" y="739" type="line"/>
			<point x="397" y="739" type="line"/>
			<point x="333" y="549" type="line"/>
			<point x="420" y="549" type="line"/>
		</contour>
	</outline>
</glyph>
<glyph name="paragraph" format="2">
	<unicode hex="00B6"/>
	<advance width="838"/>
	<outline>
		<contour>
			<point x="357" y="722" type="line" smooth="yes"/>
			<point x="255.944" y="722"/>
			<point x="179" y="626.079"/>
			<point x="179" y="523" type="curve" smooth="yes"/>
			<point x="179" y="414.501"/>
			<point x="248.698" y="320"/>
			<point x="356" y="320" type="curve"/>
			<point x="356" y="-157" type="line"/>
			<point x="422" y="-157" type="line"/>
			<point x="422" y="659" type="line"/>
			<point x="483" y="659" type="line"/>
			<point x="483" y="-157" type="line"/>
			<point x="550" y="-157" type="line"/>
			<point x="550" y="722" type="line"/>
		</contour>
	</outline>
</glyph>
<glyph name="periodcentered" format="2">
	<unicode hex="00B7"/>
	<advance width="259"/>
	<outline>
		<contour>
			<point x="189" y="401" type="line"/>
			<point x="71" y="401" type="line"/>
			<point x="71" y="279" type="line"/>
			<point x="189" y="279" type="line"/>
		</contour>
	</outline>
</glyph>
<glyph name="cedilla" format="2">
	<unicode hex="00B8"/>
	<advance width="291"/>
	<outline>
		<contour>
			<point x="257" y="43" type="line"/>
			<point x="160" y="43" type="line"/>
			<point x="160" y="-73" type="line"/>
			<point x="155.802" y="-98.1909"/>
			<point x="140.791" y="-105"/>
			<point x="111" y="-105" type="curve" smooth="yes"/>
			<point x="79.1348" y="-105"/>
			<point x="63.9173" y="-94.5733"/>
			<point x="39" y="-79" type="curve"/>
			<point x="14" y="-126" type="line"/>
			<point x="49.3983" y="-149.009"/>
			<point x="82.6468" y="-165"/>
			<point x="137" y="-165" type="curve" smooth="yes"/>
			<point x="198.957" y="-165"/>
			<point x="257" y="-129.615"/>
			<point x="257" y="-69" type="curve" smooth="yes"/>
		</contour>
	</outline>
</glyph>
<glyph name="uni00B9" format="2">
	<unicode hex="00B9"/>
	<advance width="368"/>
	<outline>
		<contour>
			<point x="138" y="647" type="line"/>
			<point x="138" y="320" type="line"/>
			<point x="223" y="320" type="line"/>
			<point x="223" y="761" type="line"/>
			<point x="158" y="761" type="line"/>
			<point x="78" y="704" type="line"/>
			<point x="78" y="604" type="line"/>
		</contour>
	</outline>
</glyph>
<glyph name="ordmasculine" format="2">
	<unicode hex="00BA"/>
	<advance width="611"/>
	<outline>
		<contour>
			<point x="93" y="177" type="line"/>
			<point x="510" y="177" type="line"/>
			<point x="510" y="264" type="line"/>
			<point x="93" y="264" type="line"/>
		</contour>
		<contour>
			<point x="303" y="293" type="curve" smooth="yes"/>
			<point x="423.474" y="293"/>
			<point x="487" y="387.806"/>
			<point x="487" y="512" type="curve" smooth="yes"/>
			<point x="487" y="635.633"/>
			<point x="422.122" y="734"/>
			<point x="301" y="734" type="curve" smooth="yes"/>
			<point x="177.915" y="734"/>
			<point x="118" y="632.746"/>
			<point x="118" y="511" type="curve" smooth="yes"/>
			<point x="118" y="385.479"/>
			<point x="183.305" y="293"/>
		</contour>
		<contour>
			<point x="220" y="511" type="curve" smooth="yes"/>
			<point x="220" y="576.198"/>
			<point x="234.396" y="648"/>
			<point x="300" y="648" type="curve" smooth="yes"/>
			<point x="363.59" y="648"/>
			<point x="384" y="578.672"/>
			<point x="384" y="512" type="curve" smooth="yes"/>
			<point x="384" y="444.081"/>
			<point x="364.612" y="379"/>
			<point x="303" y="379" type="curve" smooth="yes"/>
			<point x="239.913" y="379"/>
			<point x="220" y="443.946"/>
		</contour>
	</outline>
</glyph>
<glyph name="onequarter" format="2">
  <advance width="838"/>
  <unicode hex="00BC"/>
  <outline>
    <contour>
      <point x="133" y="-81" type="line"/>
      <point x="746" y="713" type="line"/>
      <point x="677" y="767" type="line"/>
      <point x="64" y="-27" type="line"/>
    </contour>
    <contour>
      <point x="181" y="637" type="line"/>
      <point x="181" y="310" type="line"/>
      <point x="272" y="310" type="line"/>
      <point x="272" y="751" type="line"/>
      <point x="204" y="751" type="line"/>
      <point x="121" y="694" type="line"/>
      <point x="121" y="594" type="line"/>
    </contour>
    <contour>
      <point x="594" y="29" type="line"/>
      <point x="594" y="-77" type="line"/>
      <point x="683" y="-77" type="line"/>
      <point x="683" y="29" type="line"/>
      <point x="739" y="29" type="line"/>
      <point x="739" y="114" type="line"/>
      <point x="683" y="114" type="line"/>
      <point x="683" y="364" type="line"/>
      <point x="601" y="364" type="line"/>
      <point x="456" y="93" type="line"/>
      <point x="456" y="29" type="line"/>
    </contour>
    <contour>
      <point x="594" y="187" type="line"/>
      <point x="594" y="114" type="line"/>
      <point x="556" y="114" type="line"/>
    </contour>
  </outline>
</glyph>
<glyph name="onehalf" format="2">
	<unicode hex="00BD"/>
	<advance width="888"/>
	<outline>
		<contour>
			<point x="133" y="-81" type="line"/>
			<point x="746" y="713" type="line"/>
			<point x="677" y="767" type="line"/>
			<point x="64" y="-27" type="line"/>
		</contour>
		<contour>
			<point x="181" y="637" type="line"/>
			<point x="181" y="310" type="line"/>
			<point x="272" y="310" type="line"/>
			<point x="272" y="751" type="line"/>
			<point x="204" y="751" type="line"/>
			<point x="121" y="694" type="line"/>
			<point x="121" y="594" type="line"/>
		</contour>
		<contour>
			<point x="476" y="-5" type="curve"/>
			<point x="476" y="-78" type="line"/>
			<point x="727" y="-78" type="line"/>
			<point x="727" y="7" type="line"/>
			<point x="605" y="7" type="line"/>
			<point x="610" y="13"/>
			<point x="624" y="31"/>
			<point x="647" y="61" type="curve" smooth="yes"/>
			<point x="671" y="92"/>
			<point x="692" y="128"/>
			<point x="709" y="168" type="curve" smooth="yes"/>
			<point x="714.154" y="185.181"/>
			<point x="720" y="213.08"/>
			<point x="720" y="235" type="curve" smooth="yes"/>
			<point x="720" y="306.359"/>
			<point x="663.088" y="364"/>
			<point x="595" y="364" type="curve" smooth="yes"/>
			<point x="510.436" y="364"/>
			<point x="473" y="303.213"/>
			<point x="473" y="220" type="curve"/>
			<point x="568" y="220" type="line"/>
			<point x="567.485" y="226.692"/>
			<point x="567.173" y="233.057"/>
			<point x="567.173" y="238.99" type="curve" smooth="yes"/>
			<point x="567.173" y="265.235"/>
			<point x="573.284" y="283"/>
			<point x="595" y="283" type="curve" smooth="yes"/>
			<point x="617.636" y="283"/>
			<point x="627" y="261.329"/>
			<point x="627" y="239" type="curve" smooth="yes"/>
			<point x="627" y="226.623"/>
			<point x="621.906" y="198.625"/>
			<point x="620" y="191" type="curve" smooth="yes"/>
			<point x="609" y="160"/>
			<point x="591" y="128"/>
			<point x="565" y="95" type="curve" smooth="yes"/>
			<point x="529" y="49"/>
			<point x="500" y="16"/>
		</contour>
	</outline>
</glyph>
<glyph name="threequarters" format="2">
	<unicode hex="00BE"/>
	<advance width="838"/>
	<outline>
		<contour>
			<point x="133" y="-81" type="line"/>
			<point x="746" y="713" type="line"/>
			<point x="677" y="767" type="line"/>
			<point x="64" y="-27" type="line"/>
		</contour>
		<contour>
			<point x="594" y="29" type="line"/>
			<point x="594" y="-77" type="line"/>
			<point x="683" y="-77" type="line"/>
			<point x="683" y="29" type="line"/>
			<point x="739" y="29" type="line"/>
			<point x="739" y="114" type="line"/>
			<point x="683" y="114" type="line"/>
			<point x="683" y="364" type="line"/>
			<point x="601" y="364" type="line"/>
			<point x="456" y="93" type="line"/>
			<point x="456" y="29" type="line"/>
		</contour>
		<contour>
			<point x="594" y="187" type="line"/>
			<point x="594" y="114" type="line"/>
			<point x="556" y="114" type="line"/>
		</contour>
		<contour>
			<point x="271" y="550" type="curve"/>
			<point x="276" y="552"/>
			<point x="285" y="561"/>
			<point x="298" y="576" type="curve" smooth="yes"/>
			<point x="310" y="590"/>
			<point x="316" y="611"/>
			<point x="316" y="638" type="curve" smooth="yes"/>
			<point x="316" y="657"/>
			<point x="312" y="674"/>
			<point x="305" y="690" type="curve" smooth="yes"/>
			<point x="297" y="705"/>
			<point x="288" y="718"/>
			<point x="277" y="729" type="curve" smooth="yes"/>
			<point x="265" y="740"/>
			<point x="251" y="749"/>
			<point x="236" y="755" type="curve" smooth="yes"/>
			<point x="220" y="760"/>
			<point x="205" y="763"/>
			<point x="190" y="763" type="curve" smooth="yes"/>
			<point x="168" y="763"/>
			<point x="150" y="759"/>
			<point x="135" y="752" type="curve" smooth="yes"/>
			<point x="119" y="744"/>
			<point x="106" y="735"/>
			<point x="97" y="723" type="curve" smooth="yes"/>
			<point x="87" y="713"/>
			<point x="80" y="701"/>
			<point x="76" y="688" type="curve" smooth="yes"/>
			<point x="70" y="674"/>
			<point x="68" y="657"/>
			<point x="68" y="636" type="curve"/>
			<point x="155" y="636" type="line"/>
			<point x="158" y="654"/>
			<point x="163" y="667"/>
			<point x="169" y="674" type="curve" smooth="yes"/>
			<point x="174" y="680"/>
			<point x="182" y="683"/>
			<point x="192" y="683" type="curve" smooth="yes"/>
			<point x="200" y="683"/>
			<point x="208" y="679"/>
			<point x="215" y="672" type="curve" smooth="yes"/>
			<point x="221" y="664"/>
			<point x="224" y="652"/>
			<point x="224" y="638" type="curve" smooth="yes"/>
			<point x="224" y="620"/>
			<point x="219" y="607"/>
			<point x="210" y="601" type="curve" smooth="yes"/>
			<point x="200" y="593"/>
			<point x="180" y="590"/>
			<point x="150" y="590" type="curve"/>
			<point x="150" y="510" type="line"/>
			<point x="179" y="510"/>
			<point x="199" y="506"/>
			<point x="211" y="500" type="curve" smooth="yes"/>
			<point x="222" y="492"/>
			<point x="228" y="476"/>
			<point x="228" y="452" type="curve" smooth="yes"/>
			<point x="228" y="434"/>
			<point x="224" y="420"/>
			<point x="218" y="411" type="curve" smooth="yes"/>
			<point x="211" y="401"/>
			<point x="201" y="396"/>
			<point x="189" y="396" type="curve" smooth="yes"/>
			<point x="177" y="396"/>
			<point x="169" y="399"/>
			<point x="165" y="407" type="curve" smooth="yes"/>
			<point x="159" y="413"/>
			<point x="156" y="426"/>
			<point x="156" y="444" type="curve"/>
			<point x="58" y="444" type="line"/>
			<point x="62" y="402"/>
			<point x="75" y="371"/>
			<point x="96" y="349" type="curve" smooth="yes"/>
			<point x="116" y="326"/>
			<point x="148" y="315"/>
			<point x="191" y="315" type="curve" smooth="yes"/>
			<point x="234" y="315"/>
			<point x="267" y="328"/>
			<point x="290" y="356" type="curve" smooth="yes"/>
			<point x="312" y="383"/>
			<point x="323" y="415"/>
			<point x="323" y="453" type="curve" smooth="yes"/>
			<point x="323" y="483"/>
			<point x="316" y="506"/>
			<point x="302" y="522" type="curve" smooth="yes"/>
			<point x="287" y="537"/>
			<point x="277" y="546"/>
		</contour>
	</outline>
</glyph>
<glyph name="questiondown" format="2">
	<unicode hex="00BF"/>
	<advance width="838"/>
	<outline>
		<contour>
			<point x="196" y="109" type="curve" smooth="yes"/>
			<point x="196" y="-4.791"/>
			<point x="289.855" y="-72"/>
			<point x="403" y="-72" type="curve" smooth="yes"/>
			<point x="464.706" y="-72"/>
			<point x="509.464" y="-56.5818"/>
			<point x="557" y="-43" type="curve"/>
			<point x="557" y="57" type="line"/>
			<point x="506.545" y="37.7791"/>
			<point x="467.069" y="16"/>
			<point x="405" y="16" type="curve" smooth="yes"/>
			<point x="351.352" y="16"/>
			<point x="300" y="57.9537"/>
			<point x="300" y="112" type="curve" smooth="yes"/>
			<point x="300" y="259.842"/>
			<point x="470" y="272.467"/>
			<point x="470" y="453" type="curve" smooth="yes"/>
			<point x="470" y="532" type="line"/>
			<point x="373" y="532" type="line"/>
			<point x="373" y="474" type="line" smooth="yes"/>
			<point x="373" y="290.277"/>
			<point x="196" y="283.402"/>
		</contour>
		<contour>
			<point x="359" y="744" type="line"/>
			<point x="359" y="622" type="line"/>
			<point x="480" y="622" type="line"/>
			<point x="480" y="744" type="line"/>
		</contour>
	</outline>
</glyph>
<glyph name="AE" format="2">
	<unicode hex="00C6"/>
	<advance width="751"/>
	<outline>
		<contour>
			<point x="-14" y="-8" type="line"/>
			<point x="88" y="-8" type="line"/>
			<point x="169" y="207" type="line"/>
			<point x="345" y="207" type="line"/>
			<point x="345" y="-8" type="line"/>
			<point x="720" y="-8" type="line"/>
			<point x="720" y="87" type="line"/>
			<point x="446" y="87" type="line"/>
			<point x="446" y="326" type="line"/>
			<point x="702" y="326" type="line"/>
			<point x="702" y="420" type="line"/>
			<point x="446" y="420" type="line"/>
			<point x="446" y="626" type="line"/>
			<point x="712" y="626" type="line"/>
			<point x="712" y="721" type="line"/>
			<point x="260" y="721" type="line"/>
		</contour>
		<contour>
			<point x="319" y="608" type="line"/>
			<point x="345" y="608" type="line"/>
			<point x="345" y="301" type="line"/>
			<point x="205" y="301" type="line"/>
		</contour>
	</outline>
</glyph>
<glyph name="Eth" format="2">
	<unicode hex="00D0"/>
	<advance width="665"/>
	<outline>
		<contour>
			<point x="111" y="323" type="line"/>
			<point x="111" y="-8" type="line"/>
			<point x="268" y="-8" type="line" smooth="yes"/>
			<point x="493.637" y="-8"/>
			<point x="599" y="129.969"/>
			<point x="599" y="359" type="curve" smooth="yes"/>
			<point x="599" y="584.436"/>
			<point x="496.907" y="721"/>
			<point x="278" y="721" type="curve" smooth="yes"/>
			<point x="111" y="721" type="line"/>
			<point x="111" y="407" type="line"/>
			<point x="9" y="407" type="line"/>
			<point x="9" y="323" type="line"/>
		</contour>
		<contour>
			<point x="211" y="323" type="line"/>
			<point x="405" y="323" type="line"/>
			<point x="405" y="407" type="line"/>
			<point x="211" y="407" type="line"/>
			<point x="211" y="626" type="line"/>
			<point x="263" y="626" type="line"/>
			<point x="439.001" y="621.368"/>
			<point x="494.995" y="534.22"/>
			<point x="499" y="358" type="curve" smooth="yes"/>
			<point x="499" y="195.941"/>
			<point x="438.727" y="86.8064"/>
			<point x="283.47" y="86.8064" type="curve" smooth="yes"/>
			<point x="259.669" y="86.8064"/>
			<point x="235.114" y="87"/>
			<point x="211" y="87" type="curve"/>
		</contour>
	</outline>
</glyph>
<glyph name="multiply" format="2">
	<unicode hex="00D7"/>
	<advance width="590"/>
	<outline>
		<contour>
			<point x="477" y="610" type="line"/>
			<point x="294" y="403" type="line"/>
			<point x="111" y="610" type="line"/>
			<point x="46" y="550" type="line"/>
			<point x="235" y="336" type="line"/>
			<point x="46" y="122" type="line"/>
			<point x="111" y="61" type="line"/>
			<point x="294" y="269" type="line"/>
			<point x="477" y="61" type="line"/>
			<point x="542" y="122" type="line"/>
			<point x="353" y="336" type="line"/>
			<point x="542" y="550" type="line"/>
		</contour>
	</outline>
</glyph>
<glyph name="Oslash" format="2">
	<unicode hex="00D8"/>
	<advance width="676"/>
	<outline>
		<contour>
			<point x="526" y="357" type="curve" smooth="yes"/>
			<point x="526" y="317"/>
			<point x="521" y="279"/>
			<point x="512" y="243" type="curve" smooth="yes"/>
			<point x="502" y="206"/>
			<point x="489" y="175"/>
			<point x="471" y="150" type="curve" smooth="yes"/>
			<point x="454" y="124"/>
			<point x="433" y="105"/>
			<point x="409" y="92" type="curve" smooth="yes"/>
			<point x="384" y="78"/>
			<point x="359" y="72"/>
			<point x="334" y="72" type="curve" smooth="yes"/>
			<point x="308" y="72"/>
			<point x="283" y="78"/>
			<point x="259" y="92" type="curve" smooth="yes"/>
			<point x="250" y="96"/>
			<point x="242" y="102"/>
			<point x="235" y="108" type="curve"/>
			<point x="502" y="503" type="line"/>
			<point x="506" y="493"/>
			<point x="509" y="482"/>
			<point x="512" y="471" type="curve" smooth="yes"/>
			<point x="521" y="434"/>
			<point x="526" y="396"/>
		</contour>
		<contour>
			<point x="458" y="581" type="curve"/>
			<point x="183" y="173" type="line"/>
			<point x="171" y="193"/>
			<point x="162" y="217"/>
			<point x="156" y="243" type="curve" smooth="yes"/>
			<point x="146" y="279"/>
			<point x="142" y="317"/>
			<point x="142" y="357" type="curve" smooth="yes"/>
			<point x="142" y="396"/>
			<point x="146" y="434"/>
			<point x="156" y="471" type="curve" smooth="yes"/>
			<point x="165" y="507"/>
			<point x="179" y="538"/>
			<point x="197" y="564" type="curve" smooth="yes"/>
			<point x="213" y="589"/>
			<point x="234" y="608"/>
			<point x="259" y="622" type="curve" smooth="yes"/>
			<point x="283" y="635"/>
			<point x="308" y="642"/>
			<point x="334" y="642" type="curve" smooth="yes"/>
			<point x="359" y="642"/>
			<point x="384" y="635"/>
			<point x="409" y="622" type="curve" smooth="yes"/>
			<point x="427" y="612"/>
			<point x="444" y="598"/>
		</contour>
		<contour>
			<point x="630" y="357" type="curve" smooth="yes"/>
			<point x="630" y="408"/>
			<point x="623" y="457"/>
			<point x="609" y="504" type="curve" smooth="yes"/>
			<point x="597" y="538"/>
			<point x="583" y="570"/>
			<point x="566" y="598" type="curve"/>
			<point x="622" y="680" type="line"/>
			<point x="557" y="727" type="line"/>
			<point x="513" y="662" type="line"/>
			<point x="495" y="678"/>
			<point x="474" y="693"/>
			<point x="452" y="705" type="curve" smooth="yes"/>
			<point x="414" y="723"/>
			<point x="375" y="733"/>
			<point x="334" y="733" type="curve" smooth="yes"/>
			<point x="292" y="733"/>
			<point x="253" y="723"/>
			<point x="216" y="705" type="curve" smooth="yes"/>
			<point x="178" y="685"/>
			<point x="146" y="659"/>
			<point x="120" y="625" type="curve" smooth="yes"/>
			<point x="94" y="590"/>
			<point x="74" y="550"/>
			<point x="60" y="504" type="curve" smooth="yes"/>
			<point x="45" y="457"/>
			<point x="38" y="408"/>
			<point x="38" y="357" type="curve" smooth="yes"/>
			<point x="38" y="305"/>
			<point x="45" y="256"/>
			<point x="60" y="210" type="curve" smooth="yes"/>
			<point x="74" y="163"/>
			<point x="94" y="123"/>
			<point x="120" y="89" type="curve" smooth="yes"/>
			<point x="121" y="87"/>
			<point x="122" y="86"/>
			<point x="123" y="85" type="curve" smooth="yes"/>
			<point x="69" y="5" type="line"/>
			<point x="136" y="-38" type="line"/>
			<point x="182" y="29" type="line"/>
			<point x="192" y="21"/>
			<point x="204" y="15"/>
			<point x="216" y="9" type="curve" smooth="yes"/>
			<point x="253" y="-9"/>
			<point x="292" y="-19"/>
			<point x="334" y="-19" type="curve" smooth="yes"/>
			<point x="375" y="-19"/>
			<point x="414" y="-9"/>
			<point x="452" y="9" type="curve" smooth="yes"/>
			<point x="489" y="27"/>
			<point x="521" y="54"/>
			<point x="548" y="89" type="curve" smooth="yes"/>
			<point x="574" y="123"/>
			<point x="594" y="163"/>
			<point x="609" y="210" type="curve" smooth="yes"/>
			<point x="623" y="256"/>
			<point x="630" y="305"/>
		</contour>
	</outline>
</glyph>
<glyph name="Thorn" format="2">
	<unicode hex="00DE"/>
	<advance width="525"/>
	<outline>
		<contour>
			<point x="160" y="721" type="line"/>
			<point x="59" y="721" type="line"/>
			<point x="59" y="-8" type="line"/>
			<point x="160" y="-8" type="line"/>
			<point x="160" y="122" type="line"/>
			<point x="269" y="122" type="line" smooth="yes"/>
			<point x="402.771" y="122"/>
			<point x="498" y="196.8"/>
			<point x="498" y="335" type="curve" smooth="yes"/>
			<point x="498" y="480.865"/>
			<point x="382.088" y="553"/>
			<point x="238" y="553" type="curve" smooth="yes"/>
			<point x="160" y="553" type="line"/>
		</contour>
		<contour>
			<point x="160" y="461" type="line"/>
			<point x="260" y="461" type="line" smooth="yes"/>
			<point x="337.416" y="461"/>
			<point x="395" y="416.104"/>
			<point x="395" y="337" type="curve" smooth="yes"/>
			<point x="391.183" y="249.203"/>
			<point x="340.149" y="215"/>
			<point x="254" y="215" type="curve" smooth="yes"/>
			<point x="160" y="215" type="line"/>
		</contour>
	</outline>
</glyph>
<glyph name="germandbls" format="2">
	<unicode hex="00DF"/>
	<advance width="569"/>
	<outline>
		<contour>
			<point x="261" y="331" type="line" smooth="yes"/>
			<point x="346.879" y="331"/>
			<point x="400.244" y="289.623"/>
			<point x="404" y="207" type="curve"/>
			<point x="397.918" y="113.747"/>
			<point x="346.922" y="85"/>
			<point x="249" y="85" type="curve" smooth="yes"/>
			<point x="209" y="85" type="line"/>
			<point x="209" y="-8" type="line"/>
			<point x="267" y="-8" type="line" smooth="yes"/>
			<point x="408.832" y="-8"/>
			<point x="506" y="60.8246"/>
			<point x="506" y="205" type="curve" smooth="yes"/>
			<point x="506" y="305.459"/>
			<point x="455.854" y="358.049"/>
			<point x="384" y="382" type="curve"/>
			<point x="432.182" y="403.414"/>
			<point x="480" y="466.296"/>
			<point x="480" y="545" type="curve" smooth="yes"/>
			<point x="476.227" y="669.496"/>
			<point x="394.952" y="734"/>
			<point x="273" y="734" type="curve" smooth="yes"/>
			<point x="139.875" y="734"/>
			<point x="68" y="628.312"/>
			<point x="68" y="492" type="curve" smooth="yes"/>
			<point x="68" y="-8" type="line"/>
			<point x="168" y="-8" type="line"/>
			<point x="168" y="486" type="line" smooth="yes"/>
			<point x="168" y="573.405"/>
			<point x="189.939" y="641"/>
			<point x="272" y="641" type="curve" smooth="yes"/>
			<point x="337.849" y="641"/>
			<point x="380" y="606.066"/>
			<point x="380" y="540" type="curve" smooth="yes"/>
			<point x="380" y="446.053"/>
			<point x="321.374" y="423"/>
			<point x="228" y="423" type="curve" smooth="yes"/>
			<point x="214" y="423" type="line"/>
			<point x="214" y="331" type="line"/>
		</contour>
	</outline>
</glyph>
<glyph name="ae" format="2">
  <advance width="727"/>
  <unicode hex="00E6"/>
  <outline>
    <contour>
      <point x="692" y="292" type="line" smooth="yes"/>
      <point x="692" y="323"/>
      <point x="689" y="354"/>
      <point x="685" y="385" type="curve" smooth="yes"/>
      <point x="680" y="415"/>
      <point x="670" y="441"/>
      <point x="656" y="463" type="curve" smooth="yes"/>
      <point x="640" y="485"/>
      <point x="621" y="500"/>
      <point x="598" y="510" type="curve" smooth="yes"/>
      <point x="574" y="519"/>
      <point x="548" y="524"/>
      <point x="518" y="524" type="curve" smooth="yes"/>
      <point x="480" y="524"/>
      <point x="447" y="515"/>
      <point x="421" y="498" type="curve" smooth="yes"/>
      <point x="393" y="480"/>
      <point x="376" y="465"/>
      <point x="369" y="451" type="curve"/>
      <point x="363" y="465"/>
      <point x="348" y="480"/>
      <point x="322" y="498" type="curve" smooth="yes"/>
      <point x="296" y="515"/>
      <point x="264" y="524"/>
      <point x="226" y="524" type="curve" smooth="yes"/>
      <point x="195" y="524"/>
      <point x="169" y="519"/>
      <point x="147" y="511" type="curve" smooth="yes"/>
      <point x="125" y="501"/>
      <point x="106" y="489"/>
      <point x="90" y="475" type="curve" smooth="yes"/>
      <point x="74" y="460"/>
      <point x="62" y="444"/>
      <point x="55" y="426" type="curve" smooth="yes"/>
      <point x="47" y="408"/>
      <point x="44" y="385"/>
      <point x="44" y="357" type="curve"/>
      <point x="152" y="357" type="line"/>
      <point x="152" y="387"/>
      <point x="158" y="408"/>
      <point x="171" y="420" type="curve" smooth="yes"/>
      <point x="183" y="431"/>
      <point x="202" y="437"/>
      <point x="226" y="437" type="curve" smooth="yes"/>
      <point x="245" y="437"/>
      <point x="260" y="433"/>
      <point x="270" y="427" type="curve" smooth="yes"/>
      <point x="280" y="419"/>
      <point x="287" y="411"/>
      <point x="293" y="402" type="curve" smooth="yes"/>
      <point x="298" y="392"/>
      <point x="302" y="380"/>
      <point x="304" y="368" type="curve" smooth="yes"/>
      <point x="305" y="355"/>
      <point x="306" y="347"/>
      <point x="306" y="343" type="curve" smooth="yes"/>
      <point x="306" y="305" type="line"/>
      <point x="291" y="305"/>
      <point x="267" y="303"/>
      <point x="235" y="301" type="curve" smooth="yes"/>
      <point x="202" y="298"/>
      <point x="171" y="291"/>
      <point x="142" y="279" type="curve" smooth="yes"/>
      <point x="111" y="268"/>
      <point x="85" y="250"/>
      <point x="65" y="226" type="curve" smooth="yes"/>
      <point x="43" y="201"/>
      <point x="33" y="167"/>
      <point x="33" y="124" type="curve" smooth="yes"/>
      <point x="33" y="102"/>
      <point x="37" y="82"/>
      <point x="45" y="65" type="curve" smooth="yes"/>
      <point x="52" y="47"/>
      <point x="62" y="32"/>
      <point x="74" y="19" type="curve" smooth="yes"/>
      <point x="88" y="6"/>
      <point x="103" y="-3"/>
      <point x="119" y="-10" type="curve" smooth="yes"/>
      <point x="134" y="-16"/>
      <point x="150" y="-19"/>
      <point x="167" y="-19" type="curve" smooth="yes"/>
      <point x="223" y="-19"/>
      <point x="266" y="-8"/>
      <point x="298" y="14" type="curve" smooth="yes"/>
      <point x="328" y="36"/>
      <point x="348" y="59"/>
      <point x="357" y="83" type="curve"/>
      <point x="369" y="54"/>
      <point x="393" y="30"/>
      <point x="427" y="11" type="curve" smooth="yes"/>
      <point x="460" y="-9"/>
      <point x="501" y="-19"/>
      <point x="549" y="-19" type="curve" smooth="yes"/>
      <point x="571" y="-19"/>
      <point x="592" y="-17"/>
      <point x="612" y="-14" type="curve" smooth="yes"/>
      <point x="632" y="-10"/>
      <point x="654" y="-4"/>
      <point x="679" y="4" type="curve"/>
      <point x="679" y="90" type="line"/>
      <point x="646" y="79"/>
      <point x="621" y="73"/>
      <point x="605" y="71" type="curve" smooth="yes"/>
      <point x="587" y="69"/>
      <point x="575" y="68"/>
      <point x="569" y="68" type="curve" smooth="yes"/>
      <point x="514" y="68"/>
      <point x="474" y="81"/>
      <point x="449" y="107" type="curve" smooth="yes"/>
      <point x="423" y="133"/>
      <point x="408" y="172"/>
      <point x="405" y="225" type="curve"/>
      <point x="692" y="225" type="line"/>
    </contour>
    <contour>
      <point x="306" y="186" type="line" smooth="yes"/>
      <point x="306" y="165"/>
      <point x="304" y="150"/>
      <point x="300" y="142" type="curve" smooth="yes"/>
      <point x="289" y="120"/>
      <point x="273" y="102"/>
      <point x="252" y="88" type="curve" smooth="yes"/>
      <point x="243" y="81"/>
      <point x="234" y="76"/>
      <point x="226" y="73" type="curve" smooth="yes"/>
      <point x="216" y="69"/>
      <point x="208" y="68"/>
      <point x="201" y="68" type="curve" smooth="yes"/>
      <point x="183" y="68"/>
      <point x="167" y="72"/>
      <point x="155" y="81" type="curve" smooth="yes"/>
      <point x="141" y="89"/>
      <point x="135" y="106"/>
      <point x="135" y="134" type="curve" smooth="yes"/>
      <point x="135" y="156"/>
      <point x="141" y="173"/>
      <point x="153" y="185" type="curve" smooth="yes"/>
      <point x="164" y="197"/>
      <point x="179" y="205"/>
      <point x="198" y="211" type="curve" smooth="yes"/>
      <point x="218" y="217"/>
      <point x="239" y="222"/>
      <point x="261" y="224" type="curve" smooth="yes"/>
      <point x="282" y="225"/>
      <point x="297" y="226"/>
      <point x="306" y="226" type="curve"/>
    </contour>
    <contour>
      <point x="515" y="437" type="curve" smooth="yes"/>
      <point x="530" y="437"/>
      <point x="543" y="433"/>
      <point x="554" y="427" type="curve" smooth="yes"/>
      <point x="564" y="419"/>
      <point x="572" y="410"/>
      <point x="578" y="399" type="curve" smooth="yes"/>
      <point x="582" y="389"/>
      <point x="585" y="374"/>
      <point x="587" y="354" type="curve" smooth="yes"/>
      <point x="588" y="332"/>
      <point x="589" y="318"/>
      <point x="589" y="311" type="curve"/>
      <point x="405" y="311" type="line"/>
      <point x="407" y="345"/>
      <point x="417" y="375"/>
      <point x="437" y="400" type="curve" smooth="yes"/>
      <point x="456" y="424"/>
      <point x="482" y="437"/>
    </contour>
  </outline>
</glyph>
<glyph name="eth" format="2">
	<unicode hex="00F0"/>
	<advance width="516"/>
	<outline>
		<contour>
			<point x="308" y="663" type="line"/>
			<point x="287" y="679"/>
			<point x="260" y="693"/>
			<point x="226" y="705" type="curve" smooth="yes"/>
			<point x="191" y="716"/>
			<point x="149" y="724"/>
			<point x="99" y="729" type="curve"/>
			<point x="99" y="645" type="line"/>
			<point x="132" y="639"/>
			<point x="160" y="632"/>
			<point x="183" y="626" type="curve" smooth="yes"/>
			<point x="205" y="618"/>
			<point x="220" y="613"/>
			<point x="226" y="609" type="curve"/>
			<point x="127" y="546" type="line"/>
			<point x="164" y="479" type="line"/>
			<point x="154" y="475" type="line" smooth="yes"/>
			<point x="126" y="460"/>
			<point x="102" y="441"/>
			<point x="84" y="417" type="curve" smooth="yes"/>
			<point x="65" y="393"/>
			<point x="51" y="367"/>
			<point x="41" y="337" type="curve" smooth="yes"/>
			<point x="31" y="306"/>
			<point x="26" y="273"/>
			<point x="26" y="238" type="curve" smooth="yes"/>
			<point x="26" y="154"/>
			<point x="46" y="91"/>
			<point x="88" y="47" type="curve" smooth="yes"/>
			<point x="128" y="3"/>
			<point x="182" y="-19"/>
			<point x="250" y="-19" type="curve" smooth="yes"/>
			<point x="318" y="-19"/>
			<point x="372" y="4"/>
			<point x="413" y="51" type="curve" smooth="yes"/>
			<point x="453" y="97"/>
			<point x="474" y="159"/>
			<point x="474" y="237" type="curve" smooth="yes"/>
			<point x="474" y="238" type="line" smooth="yes"/>
			<point x="474" y="325"/>
			<point x="464" y="400"/>
			<point x="444" y="464" type="curve" smooth="yes"/>
			<point x="424" y="526"/>
			<point x="399" y="574"/>
			<point x="370" y="606" type="curve"/>
			<point x="457" y="663" type="line"/>
			<point x="418" y="733" type="line"/>
		</contour>
		<contour>
			<point x="184" y="487" type="curve"/>
			<point x="288" y="554" type="line"/>
			<point x="296" y="546"/>
			<point x="306" y="534"/>
			<point x="318" y="516" type="curve" smooth="yes"/>
			<point x="330" y="498"/>
			<point x="338" y="482"/>
			<point x="343" y="469" type="curve"/>
			<point x="337" y="471"/>
			<point x="326" y="476"/>
			<point x="308" y="484" type="curve" smooth="yes"/>
			<point x="289" y="492"/>
			<point x="269" y="496"/>
			<point x="248" y="496" type="curve" smooth="yes"/>
			<point x="225" y="496"/>
			<point x="204" y="493"/>
		</contour>
		<contour>
			<point x="128" y="238" type="curve" smooth="yes"/>
			<point x="128" y="289"/>
			<point x="137" y="330"/>
			<point x="157" y="362" type="curve" smooth="yes"/>
			<point x="175" y="393"/>
			<point x="205" y="409"/>
			<point x="247" y="409" type="curve" smooth="yes"/>
			<point x="268" y="409"/>
			<point x="286" y="404"/>
			<point x="302" y="396" type="curve" smooth="yes"/>
			<point x="316" y="387"/>
			<point x="328" y="375"/>
			<point x="338" y="360" type="curve" smooth="yes"/>
			<point x="349" y="344"/>
			<point x="357" y="325"/>
			<point x="363" y="305" type="curve" smooth="yes"/>
			<point x="368" y="284"/>
			<point x="371" y="262"/>
			<point x="371" y="239" type="curve" smooth="yes"/>
			<point x="371" y="215"/>
			<point x="368" y="192"/>
			<point x="363" y="171" type="curve" smooth="yes"/>
			<point x="357" y="149"/>
			<point x="349" y="130"/>
			<point x="339" y="116" type="curve" smooth="yes"/>
			<point x="329" y="100"/>
			<point x="317" y="89"/>
			<point x="303" y="81" type="curve" smooth="yes"/>
			<point x="288" y="72"/>
			<point x="271" y="68"/>
			<point x="251" y="68" type="curve" smooth="yes"/>
			<point x="210" y="68"/>
			<point x="179" y="84"/>
			<point x="159" y="116" type="curve" smooth="yes"/>
			<point x="138" y="148"/>
			<point x="128" y="188"/>
		</contour>
	</outline>
</glyph>
<glyph name="divide" format="2">
	<unicode hex="00F7"/>
	<advance width="590"/>
	<outline>
		<contour>
			<point x="369" y="572" type="curve" smooth="yes"/>
			<point x="369" y="611.785"/>
			<point x="333.747" y="646"/>
			<point x="294" y="646" type="curve" smooth="yes"/>
			<point x="252.887" y="646"/>
			<point x="219" y="611.783"/>
			<point x="219" y="572" type="curve" smooth="yes"/>
			<point x="219" y="531.351"/>
			<point x="252.892" y="498"/>
			<point x="294" y="498" type="curve" smooth="yes"/>
			<point x="333.745" y="498"/>
			<point x="369" y="531.346"/>
		</contour>
		<contour>
			<point x="561" y="387" type="line"/>
			<point x="27" y="387" type="line"/>
			<point x="27" y="297" type="line"/>
			<point x="561" y="297" type="line"/>
		</contour>
		<contour>
			<point x="369" y="111" type="curve" smooth="yes"/>
			<point x="369" y="150.785"/>
			<point x="333.747" y="185"/>
			<point x="294" y="185" type="curve" smooth="yes"/>
			<point x="252.887" y="185"/>
			<point x="219" y="150.783"/>
			<point x="219" y="111" type="curve" smooth="yes"/>
			<point x="219" y="70.3514"/>
			<point x="252.892" y="37"/>
			<point x="294" y="37" type="curve" smooth="yes"/>
			<point x="333.745" y="37"/>
			<point x="369" y="70.3464"/>
		</contour>
	</outline>
</glyph>
<glyph name="oslash" format="2">
	<unicode hex="00F8"/>
	<advance width="533"/>
	<outline>
		<contour>
			<point x="384" y="252" type="curve" smooth="yes"/>
			<point x="384" y="162.027"/>
			<point x="349.547" y="68"/>
			<point x="262" y="68" type="curve" smooth="yes"/>
			<point x="247" y="68"/>
			<point x="232" y="71"/>
			<point x="218" y="79" type="curve"/>
			<point x="377" y="317" type="line"/>
			<point x="381" y="295"/>
			<point x="384" y="274"/>
		</contour>
		<contour>
			<point x="337" y="403" type="curve"/>
			<point x="162" y="140" type="line"/>
			<point x="146.87" y="167.739"/>
			<point x="140" y="212.437"/>
			<point x="140" y="252" type="curve" smooth="yes"/>
			<point x="140" y="341.589"/>
			<point x="172.772" y="437"/>
			<point x="262" y="437" type="curve" smooth="yes"/>
			<point x="293.601" y="437"/>
			<point x="319.498" y="420.502"/>
		</contour>
		<contour>
			<point x="487" y="252" type="curve" smooth="yes"/>
			<point x="487" y="314.304"/>
			<point x="469.153" y="376.841"/>
			<point x="444" y="418" type="curve"/>
			<point x="489" y="485" type="line"/>
			<point x="424" y="532" type="line"/>
			<point x="389" y="480" type="line"/>
			<point x="355.64" y="502.24"/>
			<point x="311.599" y="524"/>
			<point x="262" y="524" type="curve" smooth="yes"/>
			<point x="115.91" y="524"/>
			<point x="37" y="398.562"/>
			<point x="37" y="252" type="curve" smooth="yes"/>
			<point x="37" y="172.135"/>
			<point x="62.3926" y="94.6074"/>
			<point x="104" y="53" type="curve"/>
			<point x="60" y="-12" type="line"/>
			<point x="128" y="-57" type="line"/>
			<point x="168" y="3" type="line"/>
			<point x="204" y="-14"/>
			<point x="236.882" y="-19"/>
			<point x="262" y="-19" type="curve" smooth="yes"/>
			<point x="406.615" y="-19"/>
			<point x="487" y="104.419"/>
		</contour>
	</outline>
</glyph>
<glyph name="thorn" format="2">
	<unicode hex="00FE"/>
	<advance width="524"/>
	<outline>
		<contour>
			<point x="75" y="-160" type="line"/>
			<point x="171" y="-160" type="line"/>
			<point x="171" y="29" type="line"/>
			<point x="175" y="23"/>
			<point x="186" y="14"/>
			<point x="206" y="2" type="curve" smooth="yes"/>
			<point x="225" y="-10"/>
			<point x="249" y="-16"/>
			<point x="277" y="-16" type="curve" smooth="yes"/>
			<point x="339" y="-16"/>
			<point x="391" y="6"/>
			<point x="432" y="52" type="curve" smooth="yes"/>
			<point x="472" y="96"/>
			<point x="492" y="163"/>
			<point x="492" y="251" type="curve" smooth="yes"/>
			<point x="492" y="283"/>
			<point x="488" y="316"/>
			<point x="482" y="349" type="curve" smooth="yes"/>
			<point x="475" y="381"/>
			<point x="464" y="410"/>
			<point x="448" y="436" type="curve" smooth="yes"/>
			<point x="431" y="462"/>
			<point x="410" y="483"/>
			<point x="385" y="500" type="curve" smooth="yes"/>
			<point x="359" y="516"/>
			<point x="328" y="524"/>
			<point x="292" y="524" type="curve" smooth="yes"/>
			<point x="260" y="524"/>
			<point x="234" y="516"/>
			<point x="214" y="501" type="curve" smooth="yes"/>
			<point x="192" y="485"/>
			<point x="178" y="471"/>
			<point x="171" y="458" type="curve"/>
			<point x="171" y="721" type="line"/>
			<point x="75" y="721" type="line"/>
		</contour>
		<contour>
			<point x="173" y="234" type="curve" smooth="yes"/>
			<point x="173" y="261"/>
			<point x="175" y="287"/>
			<point x="181" y="312" type="curve" smooth="yes"/>
			<point x="186" y="336"/>
			<point x="194" y="358"/>
			<point x="204" y="377" type="curve" smooth="yes"/>
			<point x="214" y="395"/>
			<point x="226" y="409"/>
			<point x="240" y="419" type="curve" smooth="yes"/>
			<point x="253" y="429"/>
			<point x="268" y="434"/>
			<point x="284" y="434" type="curve" smooth="yes"/>
			<point x="303" y="434"/>
			<point x="319" y="429"/>
			<point x="333" y="419" type="curve" smooth="yes"/>
			<point x="345" y="408"/>
			<point x="356" y="394"/>
			<point x="364" y="378" type="curve" smooth="yes"/>
			<point x="372" y="359"/>
			<point x="378" y="338"/>
			<point x="382" y="316" type="curve" smooth="yes"/>
			<point x="385" y="292"/>
			<point x="387" y="269"/>
			<point x="387" y="246" type="curve" smooth="yes"/>
			<point x="387" y="193"/>
			<point x="377" y="151"/>
			<point x="358" y="119" type="curve" smooth="yes"/>
			<point x="338" y="86"/>
			<point x="311" y="70"/>
			<point x="277" y="70" type="curve" smooth="yes"/>
			<point x="259" y="70"/>
			<point x="244" y="74"/>
			<point x="231" y="84" type="curve" smooth="yes"/>
			<point x="217" y="93"/>
			<point x="206" y="106"/>
			<point x="198" y="122" type="curve" smooth="yes"/>
			<point x="189" y="138"/>
			<point x="183" y="156"/>
			<point x="179" y="176" type="curve" smooth="yes"/>
			<point x="175" y="195"/>
			<point x="173" y="214"/>
		</contour>
	</outline>
</glyph>
<glyph name="dcroat" format="2">
	<unicode hex="0111"/>
	<advance width="542"/>
	<outline>
		<contour>
			<point x="346" y="549" type="line"/>
			<point x="346" y="450" type="line"/>
			<point x="342" y="458"/>
			<point x="330" y="470"/>
			<point x="310" y="487" type="curve" smooth="yes"/>
			<point x="289" y="503"/>
			<point x="263" y="512"/>
			<point x="231" y="512" type="curve" smooth="yes"/>
			<point x="171" y="512"/>
			<point x="122" y="488"/>
			<point x="86" y="442" type="curve" smooth="yes"/>
			<point x="49" y="394"/>
			<point x="31" y="327"/>
			<point x="31" y="239" type="curve" smooth="yes"/>
			<point x="31" y="201"/>
			<point x="35" y="167"/>
			<point x="45" y="137" type="curve" smooth="yes"/>
			<point x="53" y="106"/>
			<point x="65" y="79"/>
			<point x="81" y="55" type="curve" smooth="yes"/>
			<point x="98" y="32"/>
			<point x="118" y="14"/>
			<point x="142" y="1" type="curve" smooth="yes"/>
			<point x="165" y="-12"/>
			<point x="190" y="-19"/>
			<point x="218" y="-19" type="curve" smooth="yes"/>
			<point x="250" y="-19"/>
			<point x="279" y="-11"/>
			<point x="303" y="5" type="curve" smooth="yes"/>
			<point x="327" y="20"/>
			<point x="341" y="32"/>
			<point x="346" y="41" type="curve"/>
			<point x="346" y="-8" type="line"/>
			<point x="440" y="-8" type="line"/>
			<point x="440" y="549" type="line"/>
			<point x="527" y="549" type="line"/>
			<point x="527" y="633" type="line"/>
			<point x="440" y="633" type="line"/>
			<point x="440" y="721" type="line"/>
			<point x="346" y="721" type="line"/>
			<point x="346" y="633" type="line"/>
			<point x="130" y="633" type="line"/>
			<point x="130" y="549" type="line"/>
		</contour>
		<contour>
			<point x="135" y="236" type="curve" smooth="yes"/>
			<point x="135" y="301"/>
			<point x="144" y="349"/>
			<point x="163" y="380" type="curve" smooth="yes"/>
			<point x="181" y="410"/>
			<point x="205" y="425"/>
			<point x="235" y="425" type="curve" smooth="yes"/>
			<point x="253" y="425"/>
			<point x="268" y="419"/>
			<point x="282" y="409" type="curve" smooth="yes"/>
			<point x="295" y="398"/>
			<point x="306" y="385"/>
			<point x="314" y="370" type="curve" smooth="yes"/>
			<point x="322" y="353"/>
			<point x="329" y="328"/>
			<point x="335" y="295" type="curve" smooth="yes"/>
			<point x="339" y="261"/>
			<point x="338" y="225"/>
			<point x="332" y="186" type="curve" smooth="yes"/>
			<point x="326" y="150"/>
			<point x="314" y="122"/>
			<point x="297" y="100" type="curve" smooth="yes"/>
			<point x="279" y="77"/>
			<point x="259" y="66"/>
			<point x="236" y="66" type="curve" smooth="yes"/>
			<point x="219" y="66"/>
			<point x="204" y="71"/>
			<point x="192" y="81" type="curve" smooth="yes"/>
			<point x="179" y="90"/>
			<point x="168" y="103"/>
			<point x="160" y="120" type="curve" smooth="yes"/>
			<point x="152" y="136"/>
			<point x="146" y="155"/>
			<point x="142" y="176" type="curve" smooth="yes"/>
			<point x="137" y="196"/>
			<point x="135" y="216"/>
		</contour>
	</outline>
</glyph>
<glyph name="Hbar" format="2">
	<unicode hex="0126"/>
	<advance width="653"/>
	<outline>
		<contour>
			<point x="106" y="484" type="line"/>
			<point x="106" y="-8" type="line"/>
			<point x="207" y="-8" type="line"/>
			<point x="207" y="320" type="line"/>
			<point x="461" y="320" type="line"/>
			<point x="461" y="-8" type="line"/>
			<point x="562" y="-8" type="line"/>
			<point x="562" y="484" type="line"/>
			<point x="645" y="484" type="line"/>
			<point x="645" y="568" type="line"/>
			<point x="562" y="568" type="line"/>
			<point x="562" y="721" type="line"/>
			<point x="461" y="721" type="line"/>
			<point x="461" y="568" type="line"/>
			<point x="207" y="568" type="line"/>
			<point x="207" y="721" type="line"/>
			<point x="106" y="721" type="line"/>
			<point x="106" y="568" type="line"/>
			<point x="9" y="568" type="line"/>
			<point x="9" y="484" type="line"/>
		</contour>
		<contour>
			<point x="207" y="414" type="line"/>
			<point x="207" y="484" type="line"/>
			<point x="461" y="484" type="line"/>
			<point x="461" y="414" type="line"/>
		</contour>
	</outline>
</glyph>
<glyph name="hbar" format="2">
	<unicode hex="0127"/>
	<advance width="538"/>
	<outline>
		<contour>
			<point x="94" y="543" type="line"/>
			<point x="94" y="-8" type="line"/>
			<point x="188" y="-8" type="line"/>
			<point x="188" y="215" type="line" smooth="yes"/>
			<point x="188" y="301.644"/>
			<point x="229.331" y="424"/>
			<point x="310" y="424" type="curve" smooth="yes"/>
			<point x="359.894" y="424"/>
			<point x="380" y="374.546"/>
			<point x="380" y="325" type="curve" smooth="yes"/>
			<point x="380" y="-8" type="line"/>
			<point x="475" y="-8" type="line"/>
			<point x="475" y="361" type="line" smooth="yes"/>
			<point x="475" y="455.763"/>
			<point x="414.102" y="516"/>
			<point x="322" y="516" type="curve" smooth="yes"/>
			<point x="255.741" y="516"/>
			<point x="202.757" y="475.191"/>
			<point x="188" y="426" type="curve"/>
			<point x="188" y="543" type="line"/>
			<point x="404" y="543" type="line"/>
			<point x="404" y="627" type="line"/>
			<point x="188" y="627" type="line"/>
			<point x="188" y="721" type="line"/>
			<point x="94" y="721" type="line"/>
			<point x="94" y="627" type="line"/>
			<point x="8" y="627" type="line"/>
			<point x="8" y="543" type="line"/>
		</contour>
	</outline>
</glyph>
<glyph name="dotlessi" format="2">
	<unicode hex="0131"/>
	<advance width="231"/>
	<outline>
		<contour>
			<point x="56" y="-8" type="line"/>
			<point x="156" y="-8" type="line"/>
			<point x="156" y="512" type="line"/>
			<point x="56" y="512" type="line"/>
		</contour>
	</outline>
</glyph>
